<svg width="67" height="50" viewBox="0 0 67 50" fill="none" xmlns="http://www.w3.org/2000/svg">
<path d="M66.9166 31.2568C66.6777 26.3439 64.6303 22.2722 60.8426 19.1091C60.0577 18.4697 59.2046 17.8977 58.3857 17.3929C58.2833 17.3256 58.1468 17.2583 58.0444 17.1574C60.8767 13.6914 61.2862 8.94671 58.9316 5.17788C56.4065 1.1062 51.6292 -0.811862 47.0566 0.433197C46.1352 0.668749 45.248 1.1062 44.3949 1.54365C43.9513 1.77921 43.6101 2.14936 43.4395 2.62046C43.303 3.09156 43.3371 3.62997 43.576 4.10107C44.0537 4.97598 45.0433 5.31248 45.9988 4.97598C46.2376 4.87503 46.4765 4.77408 46.8177 4.57218C49.3088 3.32712 52.3799 3.79822 54.4273 5.71628C56.5089 7.63435 57.1231 10.6292 56.0311 13.153C54.6662 16.2488 51.5609 17.7631 48.0803 17.0228C47.1931 16.8209 46.613 17.0228 46.2717 17.2583C45.8623 17.5275 45.5893 17.9313 45.4869 18.4361C45.3163 19.311 45.6916 20.3541 47.2272 20.7243C49.7182 21.33 52.1751 21.0608 54.4956 19.9167C54.5638 19.9167 54.7344 19.9167 54.8027 19.9167C57.942 21.1954 60.2283 23.3154 61.798 26.4112C63.1289 29.0696 63.0947 31.8962 63.0947 34.891C63.0947 35.4294 63.0947 35.9679 63.0947 36.5063H54.7685C53.5401 29.4397 49.7182 24.1566 43.4053 20.7243C45.4186 18.2678 46.4082 15.273 46.2376 12.1435C46.0329 8.6102 44.3949 5.27883 41.7333 3.02427C36.956 -0.980112 29.5511 -0.879163 24.8762 3.22617C22.3169 5.48073 20.7813 8.74481 20.6107 12.1771C20.4742 15.2393 21.4638 18.2342 23.4771 20.6906C17.1301 24.123 13.3082 29.4397 12.1139 36.4726H3.82185C3.82185 36.1361 3.82185 35.7996 3.82185 35.4631C3.82185 34.1171 3.78773 32.872 3.85598 31.5933C4.19722 26.0747 6.99536 22.1376 12.1139 19.883C12.1822 19.883 12.3187 19.883 12.3869 19.883C14.7073 21.0271 17.1983 21.2963 19.7917 20.657C20.4401 20.4887 20.9178 20.1859 21.1908 19.7148C21.4638 19.2773 21.5321 18.8062 21.3956 18.3015C21.1226 17.2583 20.133 16.7536 18.768 16.9891C18.3586 17.0564 17.9832 17.1574 17.5737 17.1574C14.7414 17.2247 12.5575 16.0806 11.2267 13.6914C9.89587 11.3022 10.0324 8.9467 11.6021 6.72579C13.2059 4.47122 15.3898 3.52902 18.1879 3.93282C18.768 4.03377 19.3823 4.26932 20.0306 4.53852C20.2695 4.63947 20.5083 4.74043 20.7813 4.84138C21.8733 5.24518 22.897 4.94233 23.3747 4.03377C23.9207 3.05791 23.5454 1.94745 22.4534 1.3754C20.3036 0.197641 18.0173 -0.206159 15.6628 0.0966934C12.2845 0.534146 9.41814 2.51951 7.7802 5.54804C6.14227 8.54291 6.07402 11.9752 7.54134 14.9365C7.9167 15.6768 8.36031 16.3498 8.83804 16.9891C8.83804 17.0228 8.87216 17.0564 8.90629 17.0901C5.08443 19.21 2.42278 22.2722 1.02371 26.2093C0.682474 27.1851 0.477732 28.1947 0.27299 29.1705C0.170619 29.608 0.102371 30.0118 0 30.4492V38.6935L0.0682473 39.0973C0.511855 39.9049 1.22845 40.3424 2.28629 40.3424C4.67495 40.3424 7.06361 40.3424 9.41814 40.3424H11.9433V47.7118C11.9433 49.2933 12.6599 50 14.2978 50H52.687C54.2567 50 55.0074 49.2934 55.0074 47.7454V40.3424H64.7668C66.2 40.3424 66.9848 39.6021 66.9848 38.2224V36.2707C66.9848 34.6218 67.019 32.9057 66.9848 31.1895L66.9166 31.2568ZM15.7651 40.0395C15.7651 35.1602 17.4031 30.954 20.7131 27.5216C22.3851 25.7718 24.4667 24.4258 26.8554 23.5846C29.3123 25.0315 32.008 25.6036 34.9085 25.3007C36.7854 25.0988 38.4915 24.4931 39.993 23.5509C40.0954 23.4836 40.0954 23.4836 40.266 23.5509C47.0907 26.6804 50.7078 32.0308 51.0491 39.4002C51.1173 41.1163 51.1173 42.7989 51.0832 44.616C51.0832 45.1544 51.0832 45.7264 51.0832 46.2648H15.7993V44.515C15.7993 43.0344 15.7993 41.5538 15.7993 40.0732L15.7651 40.0395ZM33.4412 21.5655C31.0526 21.5655 28.7663 20.6233 27.0601 18.9072C25.388 17.2247 24.4667 15.0038 24.4667 12.7155C24.5008 7.8699 28.5274 3.93282 33.4071 3.93282C35.7958 3.93282 38.0479 4.87503 39.7541 6.59119C41.4603 8.2737 42.3816 10.4946 42.3475 12.8165C42.3134 17.6621 38.2868 21.5992 33.4071 21.5992L33.4412 21.5655Z" fill="#0D344F"/>
</svg>
