<svg width="503" height="354" viewBox="0 0 503 354" fill="none" xmlns="http://www.w3.org/2000/svg">
<g clip-path="url(#clip0_22_94)">
<path d="M410.03 234.332C410.593 233.601 410.989 232.756 411.19 231.855C411.39 230.955 411.391 230.021 411.193 229.12C410.994 228.219 410.6 227.373 410.039 226.641C409.478 225.909 408.763 225.309 407.945 224.883L409.191 210.516L400.647 207.628L399.171 227.942C398.547 229.365 398.466 230.966 398.944 232.444C399.422 233.922 400.424 235.173 401.763 235.96C403.101 236.748 404.681 237.017 406.205 236.717C407.728 236.417 409.088 235.569 410.028 234.333L410.03 234.332Z" fill="#FFD8D8"/>
<path d="M452.661 346.033H444.973L441.315 316.354H452.667L452.661 346.033Z" fill="#FFD8D8"/>
<rect width="340" height="56" rx="12" fill="white"/>
<path d="M439.479 343.834H454.313V353.176H430.139C430.139 350.698 431.123 348.322 432.874 346.57C434.626 344.818 437.002 343.834 439.479 343.834Z" fill="#222230"/>
<path d="M435.205 326.34L427.737 328.175L417.103 300.23L428.127 297.52L435.205 326.34Z" fill="#FFD8D8"/>
<path d="M421.982 327.086L436.386 323.54L438.618 332.612L415.145 338.391C414.553 335.985 414.941 333.442 416.223 331.322C417.505 329.202 419.577 327.679 421.982 327.086Z" fill="#222230"/>
<path d="M443.662 336.569C442.96 336.571 442.282 336.312 441.759 335.842C441.237 335.372 440.908 334.725 440.836 334.026L431.988 251.549L424.286 276.771L435.194 316.164C435.382 316.839 435.314 317.56 435.003 318.188C434.692 318.816 434.16 319.307 433.509 319.566L424.837 323.036C424.479 323.179 424.097 323.248 423.713 323.239C423.328 323.23 422.95 323.143 422.6 322.984C422.25 322.824 421.936 322.595 421.677 322.311C421.418 322.027 421.219 321.693 421.092 321.33L407.725 282.963C406.261 278.774 405.614 274.343 405.817 269.91L407.683 228.505L456.826 230.587L456.059 333.028C456.05 333.741 455.775 334.425 455.288 334.946C454.802 335.467 454.138 335.788 453.427 335.845L443.884 336.565C443.809 336.568 443.735 336.569 443.662 336.569Z" fill="#304553"/>
<path d="M435.523 136.871C444.65 136.871 452.048 129.471 452.048 120.342C452.048 111.213 444.65 103.812 435.523 103.812C426.397 103.812 418.999 111.213 418.999 120.342C418.999 129.471 426.397 136.871 435.523 136.871Z" fill="#FFD8D8"/>
<path d="M447.676 233.28C443.324 233.28 437.92 232.924 432.324 232.556C424.681 232.052 416.778 231.532 410.879 231.874C410.082 231.953 409.278 231.827 408.544 231.507C407.81 231.187 407.17 230.685 406.686 230.048C400.604 222.258 409.982 191.883 410.386 190.594L418.018 156.629L418.347 156.703L418.018 156.629C419.7 149.158 425.063 143.648 432.021 142.248C438.534 140.94 444.834 143.548 448.874 149.231C449.088 149.532 449.302 149.841 449.516 150.159C462.671 169.647 455.23 218.065 454.732 221.187C455.427 222.019 459.184 226.727 458.152 229.997C457.731 231.328 456.59 232.234 454.759 232.689C452.427 233.151 450.05 233.349 447.674 233.278L447.676 233.28Z" fill="#E3F0EE"/>
<path d="M411.145 233.295C409.648 233.295 407.629 232.742 404.907 231.612C403.737 231.125 400.176 229.644 404.499 191.857C406.622 173.295 409.664 154.863 409.694 154.679L409.723 154.501L409.888 154.427C409.966 154.392 417.734 150.83 419.085 146.253C419.13 146.095 419.182 145.941 419.242 145.792C419.614 144.775 420.364 143.94 421.336 143.463C422.308 142.985 423.427 142.902 424.459 143.229C425.549 143.49 426.5 144.156 427.117 145.092C427.735 146.028 427.973 147.163 427.784 148.269C427.314 151.254 426.409 154.155 425.099 156.878C421.444 164.422 418.967 184.423 418.943 184.624C418.803 186.332 415.486 226.802 414.847 229.873C414.623 230.946 414.213 232.258 413.008 232.895C412.43 233.18 411.791 233.319 411.146 233.299L411.145 233.295Z" fill="#2F2E41"/>
<path d="M429.197 231.744C428.895 231.744 428.602 231.644 428.363 231.458C423.502 227.763 431.369 182.968 436.033 167.512C436.968 164.416 437.799 161.767 438.507 159.634C439.795 155.807 440.694 151.86 441.19 147.852C441.447 145.681 442.005 144.441 442.897 144.061C443.517 143.797 444.243 143.976 445.064 144.595C449.374 144.382 453.563 146.143 457.443 148.082L460.936 149.825L464.856 219.244C464.745 223.675 456.015 226.802 452.207 227.002C446.092 227.323 435.112 228.319 430.274 231.383C429.957 231.603 429.584 231.729 429.198 231.743L429.197 231.744Z" fill="#2F2E41"/>
<path d="M407.361 218.719C407.303 218.719 407.245 218.719 407.186 218.713L399.269 218.226C398.875 218.202 398.49 218.096 398.139 217.915C397.788 217.734 397.478 217.482 397.23 217.175C396.982 216.867 396.8 216.512 396.697 216.131C396.593 215.749 396.57 215.351 396.629 214.96L400.212 191.217L406.956 157.904C407.122 157.083 407.459 156.306 407.944 155.624C408.43 154.942 409.053 154.37 409.774 153.944C410.494 153.518 411.297 153.249 412.128 153.153C412.96 153.057 413.802 153.138 414.601 153.388C415.966 153.824 417.13 154.734 417.884 155.953C418.637 157.172 418.93 158.621 418.71 160.037L413.352 193.418L410.18 216.264C410.082 216.944 409.744 217.566 409.226 218.016C408.708 218.467 408.046 218.716 407.36 218.719H407.361Z" fill="#2F2E41"/>
<path d="M434.408 192.731C434.891 191.945 435.54 191.274 436.31 190.766C437.08 190.259 437.952 189.926 438.864 189.792C439.777 189.657 440.708 189.725 441.591 189.989C442.475 190.254 443.29 190.709 443.978 191.322L456.96 185.05L462.695 192.011L444.238 200.612C443.131 201.701 441.663 202.346 440.112 202.424C438.561 202.503 437.035 202.01 435.824 201.039C434.612 200.067 433.799 198.685 433.538 197.154C433.277 195.623 433.586 194.049 434.408 192.731Z" fill="#FFD8D8"/>
<path d="M452.442 199.467C451.802 199.467 451.182 199.252 450.68 198.856C450.178 198.46 449.823 197.907 449.674 197.286L447.79 189.445C447.646 188.856 447.695 188.235 447.93 187.676C448.165 187.116 448.573 186.647 449.095 186.337L460.465 179.528L454.652 158.239C454.15 156.415 454.38 154.468 455.295 152.813C456.21 151.157 457.736 149.926 459.547 149.383C461.358 148.839 463.309 149.026 464.984 149.904C466.659 150.781 467.923 152.28 468.507 154.079L474.925 173.68C475.714 176.069 475.72 178.648 474.943 181.041C474.166 183.434 472.647 185.517 470.605 186.987L454.108 198.926C453.623 199.278 453.04 199.467 452.442 199.467Z" fill="#2F2E41"/>
<path d="M329.588 137.665H11.2223C8.24707 137.661 5.3947 136.478 3.29087 134.373C1.18705 132.269 0.00356105 129.415 0 126.439V92.1705C0.00356105 89.1944 1.18705 86.3412 3.29087 84.2367C5.3947 82.1322 8.24707 80.9484 11.2223 80.9448H329.588C332.563 80.9484 335.416 82.1322 337.52 84.2367C339.623 86.3412 340.807 89.1944 340.81 92.1705V126.439C340.807 129.415 339.623 132.269 337.52 134.373C335.416 136.478 332.563 137.661 329.588 137.665ZM11.2223 82.1266C8.56025 82.1297 6.00807 83.1888 4.12569 85.0718C2.24332 86.9547 1.18446 89.5077 1.18144 92.1705V126.439C1.18393 129.102 2.24254 131.656 4.12498 133.539C6.00741 135.423 8.5599 136.482 11.2223 136.485H329.588C332.25 136.482 334.803 135.423 336.685 133.54C338.568 131.657 339.627 129.104 339.63 126.441V92.1705C339.627 89.5077 338.568 86.9547 336.685 85.0718C334.803 83.1888 332.251 82.1297 329.589 82.1266H11.2223Z" fill="#F8F8FD"/>
<path d="M329.588 218.61H11.2223C8.24707 218.606 5.3947 217.422 3.29087 215.318C1.18705 213.213 0.00356105 210.36 0 207.384V173.115C0.00356105 170.139 1.18705 167.286 3.29087 165.182C5.3947 163.077 8.24707 161.893 11.2223 161.89H329.588C332.563 161.893 335.416 163.077 337.52 165.182C339.623 167.286 340.807 170.139 340.81 173.115V207.384C340.807 210.36 339.623 213.213 337.52 215.318C335.416 217.422 332.563 218.606 329.588 218.61ZM11.2223 163.069C8.56025 163.072 6.00807 164.131 4.12569 166.014C2.24332 167.897 1.18446 170.45 1.18144 173.113V207.381C1.18429 210.044 2.24306 212.598 4.12546 214.481C6.00785 216.364 8.56013 217.423 11.2223 217.426H329.588C332.25 217.423 334.803 216.364 336.685 214.481C338.568 212.598 339.627 210.045 339.63 207.382V173.115C339.627 170.452 338.569 167.898 336.686 166.015C334.803 164.131 332.251 163.072 329.588 163.069H11.2223Z" fill="#F8F8FD"/>
<path d="M54.2405 47.899C50.3773 47.899 46.6009 46.7531 43.3887 44.6062C40.1766 42.4592 37.673 39.4077 36.1946 35.8375C34.7162 32.2673 34.3294 28.3387 35.0831 24.5486C35.8368 20.7584 37.6971 17.277 40.4288 14.5445C43.1605 11.8119 46.6409 9.95106 50.4299 9.19716C54.2189 8.44325 58.1463 8.83018 61.7154 10.309C65.2846 11.7878 68.3352 14.2922 70.4815 17.5053C72.6277 20.7184 73.7733 24.496 73.7733 28.3604C73.7733 33.5423 71.7154 38.5121 68.0523 42.1763C64.3892 45.8405 59.421 47.899 54.2405 47.899Z" fill="#9CCBC3"/>
<path d="M300.749 44.3126H92.2479C90.9946 44.3126 89.7927 43.8146 88.9065 42.9281C88.0203 42.0416 87.5225 40.8394 87.5225 39.5857C87.5225 38.3321 88.0203 37.1298 88.9065 36.2433C89.7927 35.3569 90.9946 34.8589 92.2479 34.8589H300.749C302.002 34.8589 303.204 35.3569 304.091 36.2433C304.977 37.1298 305.475 38.3321 305.475 39.5857C305.475 40.8394 304.977 42.0416 304.091 42.9281C303.204 43.8146 302.002 44.3126 300.749 44.3126Z" fill="#E8E9F1"/>
<path d="M232.82 24.2241H92.2431C90.9899 24.2241 89.7879 23.7261 88.9017 22.8397C88.0156 21.9532 87.5177 20.7509 87.5177 19.4973C87.5177 18.2437 88.0156 17.0414 88.9017 16.1549C89.7879 15.2684 90.9899 14.7704 92.2431 14.7704H232.82C234.073 14.7704 235.275 15.2684 236.161 16.1549C237.047 17.0414 237.545 18.2437 237.545 19.4973C237.545 20.7509 237.047 21.9532 236.161 22.8397C235.275 23.7261 234.073 24.2241 232.82 24.2241Z" fill="#E8E9F1"/>
<path d="M54.2405 128.843C50.3773 128.843 46.6009 127.697 43.3887 125.55C40.1766 123.403 37.673 120.352 36.1946 116.782C34.7162 113.211 34.3294 109.283 35.0831 105.493C35.8368 101.703 37.6971 98.2212 40.4288 95.4887C43.1605 92.7561 46.6409 90.8953 50.4299 90.1414C54.2189 89.3875 58.1463 89.7744 61.7154 91.2532C65.2846 92.7321 68.3352 95.2364 70.4815 98.4495C72.6277 101.663 73.7733 105.44 73.7733 109.305C73.7733 114.487 71.7154 119.456 68.0523 123.12C64.3892 126.785 59.421 128.843 54.2405 128.843Z" fill="#F8F8FD"/>
<path d="M300.749 125.257H92.2479C90.9946 125.257 89.7927 124.759 88.9065 123.873C88.0203 122.987 87.5225 121.784 87.5225 120.531C87.5225 119.277 88.0203 118.075 88.9065 117.188C89.7927 116.302 90.9946 115.804 92.2479 115.804H300.749C302.002 115.804 303.204 116.302 304.091 117.188C304.977 118.075 305.475 119.277 305.475 120.531C305.475 121.784 304.977 122.987 304.091 123.873C303.204 124.759 302.002 125.257 300.749 125.257Z" fill="#F8F8FD"/>
<path d="M232.82 105.169H92.2431C90.9899 105.169 89.7879 104.671 88.9017 103.784C88.0156 102.898 87.5177 101.696 87.5177 100.442C87.5177 99.1885 88.0156 97.9862 88.9017 97.0997C89.7879 96.2133 90.9899 95.7153 92.2431 95.7153H232.82C234.073 95.7153 235.275 96.2133 236.161 97.0997C237.047 97.9862 237.545 99.1885 237.545 100.442C237.545 101.696 237.047 102.898 236.161 103.784C235.275 104.671 234.073 105.169 232.82 105.169Z" fill="#F8F8FD"/>
<path d="M54.2405 209.788C50.3773 209.788 46.6009 208.642 43.3887 206.495C40.1766 204.348 37.673 201.297 36.1946 197.727C34.7162 194.156 34.3294 190.228 35.0831 186.438C35.8368 182.647 37.6971 179.166 40.4288 176.433C43.1605 173.701 46.6409 171.84 50.4299 171.086C54.2189 170.332 58.1463 170.719 61.7154 172.198C65.2846 173.677 68.3352 176.181 70.4815 179.394C72.6277 182.607 73.7733 186.385 73.7733 190.249C73.7733 195.431 71.7154 200.401 68.0523 204.065C64.3892 207.73 59.421 209.788 54.2405 209.788Z" fill="#F8F8FD"/>
<path d="M300.749 206.202H92.2479C90.9946 206.202 89.7927 205.704 88.9065 204.818C88.0203 203.931 87.5225 202.729 87.5225 201.475C87.5225 200.222 88.0203 199.02 88.9065 198.133C89.7927 197.247 90.9946 196.749 92.2479 196.749H300.749C302.002 196.749 303.204 197.247 304.091 198.133C304.977 199.02 305.475 200.222 305.475 201.475C305.475 202.729 304.977 203.931 304.091 204.818C303.204 205.704 302.002 206.202 300.749 206.202Z" fill="#F8F8FD"/>
<path d="M232.82 186.114H92.2431C90.9899 186.114 89.7879 185.616 88.9017 184.729C88.0156 183.843 87.5177 182.641 87.5177 181.387C87.5177 180.133 88.0156 178.931 88.9017 178.045C89.7879 177.158 90.9899 176.66 92.2431 176.66H232.82C234.073 176.66 235.275 177.158 236.161 178.045C237.047 178.931 237.545 180.133 237.545 181.387C237.545 182.641 237.047 183.843 236.161 184.729C235.275 185.616 234.073 186.114 232.82 186.114Z" fill="#F8F8FD"/>
<path d="M53.2436 35.2331C52.7584 35.2342 52.2861 35.0773 51.898 34.7862L51.8737 34.768L46.8109 30.8942C46.5764 30.7144 46.3796 30.4902 46.2318 30.2343C46.0839 29.9784 45.9879 29.6959 45.9492 29.4029C45.9105 29.1099 45.9299 28.8121 46.0062 28.5266C46.0825 28.2411 46.2144 27.9734 46.3941 27.7388C46.5739 27.5043 46.798 27.3074 47.0539 27.1595C47.3097 27.0116 47.5921 26.9156 47.885 26.8769C48.1779 26.8382 48.4756 26.8575 48.761 26.9339C49.0464 27.0103 49.314 27.1421 49.5485 27.3219L52.8278 29.8376L60.5764 19.7251C60.9394 19.2517 61.4753 18.9419 62.0666 18.8638C62.6578 18.7857 63.2558 18.9456 63.7292 19.3085L63.6814 19.3758L63.7305 19.3085C64.2032 19.672 64.5124 20.2083 64.5904 20.7997C64.6683 21.391 64.5086 21.9891 64.1463 22.4628L55.0319 34.3521C54.8207 34.6256 54.5494 34.8467 54.2391 34.9984C53.9287 35.1501 53.5876 35.2284 53.2422 35.227L53.2436 35.2331Z" fill="white"/>
<path d="M502.327 354H369.112C368.934 354 368.763 353.929 368.637 353.803C368.511 353.677 368.44 353.505 368.44 353.327C368.44 353.149 368.511 352.977 368.637 352.851C368.763 352.725 368.934 352.654 369.112 352.654H502.327C502.506 352.654 502.677 352.725 502.803 352.851C502.929 352.977 503 353.149 503 353.327C503 353.505 502.929 353.677 502.803 353.803C502.677 353.929 502.506 354 502.327 354Z" fill="#020202"/>
<path d="M441.598 124.748C441.598 124.748 439.587 113.626 435.012 114.954C430.436 116.283 418.659 117.643 418.638 112.405C418.616 107.167 429.723 102.537 436.271 103.164C442.819 103.79 453.954 105.708 453.341 115.531C452.85 121.718 450.939 127.709 447.755 133.036L441.598 124.748Z" fill="#2F2E41"/>
</g>
<defs>
<clipPath id="clip0_22_94">
<rect width="503" height="354" fill="white"/>
</clipPath>
</defs>
</svg>
