<svg width="436" height="387" viewBox="0 0 436 387" fill="none" xmlns="http://www.w3.org/2000/svg">
<g clip-path="url(#clip0_18_115)">
<path d="M374.697 319.765C367.34 341.289 357.879 362.766 345.759 383.207C345.49 383.667 345.218 384.118 344.944 384.577L314.938 375.095C315.11 374.661 315.3 374.175 315.503 373.645C327.605 342.381 400.623 151.897 397.346 114.34C397.699 117.415 409.121 219.152 374.697 319.765Z" fill="#537487"/>
<path d="M351.548 385.036C351.14 385.453 350.722 385.866 350.3 386.27L327.791 379.156C328.095 378.789 328.449 378.355 328.857 377.866C335.523 369.733 355.343 345.384 374.697 319.765C395.495 292.234 415.759 263.24 418.599 251.326C418.029 254.035 400.267 336.506 351.548 385.036Z" fill="#537487"/>
<path d="M362.8 67.8714C362.791 67.8714 362.783 67.8739 362.775 67.8741V19.6754C362.775 14.4572 360.7 9.45266 357.006 5.7628C353.312 2.07294 348.302 0 343.078 0H192.012C186.788 0 181.778 2.07294 178.084 5.7628C174.39 9.45266 172.315 14.4572 172.315 19.6754V44.3846C171.898 44.3935 171.501 44.5651 171.209 44.8628C170.917 45.1604 170.753 45.5604 170.753 45.9771V58.2158C170.753 58.6325 170.917 59.0325 171.209 59.3301C171.501 59.6277 171.898 59.7993 172.315 59.808V72.6293H172.235C172.025 72.6292 171.817 72.6705 171.623 72.7507C171.429 72.8309 171.253 72.9485 171.105 73.0967C170.956 73.2449 170.839 73.4208 170.759 73.6145C170.678 73.8081 170.637 74.0156 170.637 74.2252V97.8919C170.637 98.1015 170.678 98.309 170.759 98.5026C170.839 98.6963 170.956 98.8722 171.105 99.0204C171.253 99.1686 171.429 99.2862 171.623 99.3664C171.817 99.4466 172.025 99.4879 172.235 99.4879H172.315V108.887H172.29C172.08 108.887 171.872 108.929 171.678 109.009C171.485 109.089 171.308 109.207 171.16 109.355C171.012 109.503 170.894 109.679 170.814 109.873C170.733 110.066 170.692 110.274 170.692 110.483V134.382C170.692 134.591 170.733 134.799 170.814 134.992C170.894 135.186 171.012 135.362 171.16 135.51C171.308 135.658 171.485 135.776 171.678 135.856C171.872 135.936 172.08 135.978 172.29 135.978H172.315V366.982C172.315 372.2 174.39 377.204 178.084 380.894C181.778 384.584 186.788 386.657 192.012 386.657H343.078C348.302 386.657 353.312 384.584 357.006 380.894C360.7 377.204 362.775 372.2 362.775 366.982V114.74C362.783 114.74 362.791 114.742 362.8 114.742C363.173 114.742 363.543 114.669 363.889 114.526C364.234 114.383 364.547 114.174 364.812 113.91C365.076 113.646 365.285 113.333 365.428 112.988C365.571 112.643 365.645 112.273 365.645 111.9V70.7135C365.645 69.9597 365.345 69.2369 364.812 68.7039C364.278 68.1709 363.554 67.8715 362.8 67.8714Z" fill="#020202"/>
<path d="M351.014 25.1829V361.469C351.013 365.475 349.418 369.317 346.581 372.15C343.744 374.983 339.898 376.574 335.886 376.574H199.203C195.192 376.574 191.345 374.983 188.508 372.15C185.672 369.317 184.077 365.475 184.076 361.469V25.1829C184.076 21.1753 185.669 17.3318 188.506 14.4979C191.343 11.6641 195.191 10.0721 199.203 10.0721H219.657V12.7238C219.658 16.0233 220.971 19.1873 223.307 21.5204C225.642 23.8535 228.81 25.1649 232.113 25.1664H301.652C304.951 25.1591 308.112 23.8449 310.442 21.5123C312.772 19.1796 314.081 16.019 314.081 12.7238V10.0996H335.886C339.894 10.0996 343.737 11.6879 346.574 14.5158C349.41 17.3436 351.007 21.18 351.014 25.1829Z" fill="white"/>
<path d="M129.371 188.696C128.563 188.383 127.696 188.251 126.831 188.31C125.966 188.368 125.125 188.615 124.366 189.033C123.607 189.452 122.949 190.031 122.439 190.731C121.928 191.431 121.578 192.234 121.411 193.083L72.7039 219.538L81.2678 229.166L126.501 200.169C127.949 200.353 129.414 200.001 130.619 199.178C131.823 198.355 132.684 197.12 133.038 195.706C133.392 194.291 133.214 192.797 132.538 191.505C131.862 190.213 130.735 189.213 129.371 188.696H129.371Z" fill="#FFD8D8"/>
<path d="M116.949 379.039L123.018 375.117L110.764 349.867L101.807 355.654L116.949 379.039Z" fill="#FFD8D8"/>
<path d="M138.369 373.184L119.294 385.509L114.527 378.147L126.507 370.406C128.389 369.19 130.677 368.771 132.868 369.24C135.059 369.71 136.973 371.029 138.191 372.909L138.369 373.184L138.369 373.184Z" fill="#2F2E41"/>
<path d="M48.8491 379.951H56.0773L59.5173 352.101H48.8491V379.951Z" fill="#FFD8D8"/>
<path d="M70.0179 386.656H47.3003V377.888H61.5688C62.6784 377.888 63.7771 378.106 64.8022 378.53C65.8273 378.955 66.7587 379.576 67.5433 380.36C68.3278 381.144 68.9502 382.074 69.3748 383.098C69.7994 384.122 70.0179 385.219 70.0179 386.328V386.656Z" fill="#2F2E41"/>
<path d="M214.689 54.5732H199.787C199.421 54.5732 199.07 54.428 198.812 54.1695C198.553 53.9111 198.408 53.5605 198.408 53.195C198.408 52.8295 198.553 52.4789 198.812 52.2204C199.07 51.962 199.421 51.8168 199.787 51.8168H214.689C215.055 51.8168 215.405 51.962 215.664 52.2204C215.923 52.4789 216.068 52.8295 216.068 53.195C216.068 53.5605 215.923 53.9111 215.664 54.1695C215.405 54.428 215.055 54.5732 214.689 54.5732Z" fill="#3A596D"/>
<path d="M214.689 58.4322H199.787C199.421 58.4322 199.07 58.287 198.812 58.0285C198.553 57.7701 198.408 57.4195 198.408 57.054C198.408 56.6885 198.553 56.3379 198.812 56.0794C199.07 55.821 199.421 55.6758 199.787 55.6758H214.689C215.055 55.6758 215.405 55.821 215.664 56.0794C215.923 56.3379 216.068 56.6885 216.068 57.054C216.068 57.4195 215.923 57.7701 215.664 58.0285C215.405 58.287 215.055 58.4322 214.689 58.4322Z" fill="#3A596D"/>
<path d="M214.689 62.2912H199.787C199.421 62.2912 199.07 62.146 198.812 61.8876C198.553 61.6291 198.408 61.2785 198.408 60.913C198.408 60.5475 198.553 60.1969 198.812 59.9385C199.07 59.68 199.421 59.5348 199.787 59.5348H214.689C215.055 59.5348 215.405 59.68 215.664 59.9385C215.923 60.1969 216.068 60.5475 216.068 60.913C216.068 61.2785 215.923 61.6291 215.664 61.8876C215.405 62.146 215.055 62.2912 214.689 62.2912Z" fill="#3A596D"/>
<path d="M330.196 58.4598H329.694L329.501 58.2999C330.135 57.5446 330.483 56.5901 330.483 55.6041C330.479 54.7929 330.234 54.0013 329.779 53.3292C329.324 52.6571 328.68 52.1349 327.928 51.8285C327.176 51.5221 326.35 51.4453 325.555 51.6078C324.759 51.7704 324.029 52.1649 323.458 52.7416C322.887 53.3183 322.5 54.0512 322.346 54.8477C322.192 55.6442 322.277 56.4684 322.592 57.2162C322.907 57.964 323.437 58.6017 324.114 59.0488C324.792 59.4958 325.587 59.7321 326.399 59.7278C327.384 59.7208 328.335 59.3741 329.093 58.7465L329.28 58.9063V59.4135L332.448 62.5834L333.397 61.6352L330.196 58.4598ZM326.399 58.4598C325.834 58.462 325.281 58.2966 324.809 57.9847C324.338 57.6727 323.97 57.2281 323.751 56.7072C323.533 56.1862 323.474 55.6122 323.582 55.0579C323.69 54.5035 323.961 53.9936 324.359 53.5927C324.757 53.1918 325.266 52.9179 325.82 52.8055C326.374 52.6932 326.949 52.7475 327.472 52.9616C327.995 53.1758 328.443 53.5401 328.759 54.0084C329.075 54.4768 329.245 55.0283 329.247 55.5931L329.247 55.6041C329.249 55.977 329.178 56.3466 329.037 56.6919C328.896 57.0372 328.689 57.3514 328.426 57.6165C328.164 57.8817 327.852 58.0926 327.508 58.2373C327.164 58.382 326.795 58.4576 326.421 58.4598C326.414 58.4598 326.407 58.4598 326.399 58.4598H326.399Z" fill="#3A596D"/>
<path d="M245.046 105.292H218.276C216.666 105.292 215.122 104.653 213.983 103.516C212.845 102.378 212.205 100.836 212.205 99.2276C212.205 97.6192 212.845 96.0768 213.983 94.9395C215.122 93.8023 216.666 93.1634 218.276 93.1634H245.046C246.656 93.1634 248.2 93.8023 249.339 94.9395C250.477 96.0768 251.117 97.6192 251.117 99.2276C251.117 100.836 250.477 102.378 249.339 103.516C248.2 104.653 246.656 105.292 245.046 105.292Z" fill="#9CCBC3"/>
<path d="M327 118.523H215.516C214.638 118.523 213.796 118.174 213.175 117.554C212.554 116.934 212.205 116.092 212.205 115.215C212.205 114.338 212.554 113.496 213.175 112.876C213.796 112.256 214.638 111.907 215.516 111.907H327C327.878 111.907 328.72 112.256 329.342 112.876C329.963 113.496 330.311 114.338 330.311 115.215C330.311 116.092 329.963 116.934 329.342 117.554C328.72 118.174 327.878 118.523 327 118.523Z" fill="#E8E9F1"/>
<path d="M256.467 131.754H215.516C214.638 131.754 213.796 131.405 213.175 130.785C212.554 130.164 212.205 129.323 212.205 128.446C212.205 127.569 212.554 126.727 213.175 126.107C213.796 125.487 214.638 125.138 215.516 125.138H256.467C257.346 125.138 258.188 125.487 258.809 126.107C259.43 126.727 259.779 127.569 259.779 128.446C259.779 129.323 259.43 130.164 258.809 130.785C258.188 131.405 257.346 131.754 256.467 131.754Z" fill="#E8E9F1"/>
<path d="M245.046 251.934H218.276C216.666 251.934 215.122 251.295 213.983 250.158C212.845 249.021 212.205 247.479 212.205 245.87C212.205 244.262 212.845 242.719 213.983 241.582C215.122 240.445 216.666 239.806 218.276 239.806H245.046C246.656 239.806 248.2 240.445 249.339 241.582C250.477 242.719 251.117 244.262 251.117 245.87C251.117 247.479 250.477 249.021 249.339 250.158C248.2 251.295 246.656 251.934 245.046 251.934Z" fill="#9CCBC3"/>
<path d="M327 265.165H215.516C214.638 265.165 213.796 264.817 213.175 264.196C212.554 263.576 212.205 262.735 212.205 261.858C212.205 260.98 212.554 260.139 213.175 259.519C213.796 258.898 214.638 258.55 215.516 258.55H327C327.878 258.55 328.72 258.898 329.342 259.519C329.963 260.139 330.311 260.98 330.311 261.858C330.311 262.735 329.963 263.576 329.342 264.196C328.72 264.817 327.878 265.165 327 265.165Z" fill="#E8E9F1"/>
<path d="M256.467 278.396H215.516C214.638 278.396 213.796 278.048 213.175 277.427C212.554 276.807 212.205 275.966 212.205 275.088C212.205 274.211 212.554 273.37 213.175 272.75C213.796 272.129 214.638 271.781 215.516 271.781H256.467C257.346 271.781 258.188 272.129 258.809 272.75C259.43 273.37 259.779 274.211 259.779 275.088C259.779 275.966 259.43 276.807 258.809 277.427C258.188 278.048 257.346 278.396 256.467 278.396Z" fill="#E8E9F1"/>
<path d="M245.046 319.743H218.276C216.666 319.743 215.122 319.104 213.983 317.967C212.845 316.829 212.205 315.287 212.205 313.679C212.205 312.07 212.845 310.528 213.983 309.391C215.122 308.253 216.666 307.615 218.276 307.615H245.046C246.656 307.615 248.2 308.253 249.339 309.391C250.477 310.528 251.117 312.07 251.117 313.679C251.117 315.287 250.477 316.829 249.339 317.967C248.2 319.104 246.656 319.743 245.046 319.743Z" fill="#9CCBC3"/>
<path d="M327 332.974H215.516C214.638 332.974 213.796 332.625 213.175 332.005C212.554 331.385 212.205 330.543 212.205 329.666C212.205 328.789 212.554 327.947 213.175 327.327C213.796 326.707 214.638 326.358 215.516 326.358H327C327.878 326.358 328.72 326.707 329.342 327.327C329.963 327.947 330.311 328.789 330.311 329.666C330.311 330.543 329.963 331.385 329.342 332.005C328.72 332.625 327.878 332.974 327 332.974Z" fill="#E8E9F1"/>
<path d="M256.467 346.205H215.516C214.638 346.205 213.796 345.856 213.175 345.236C212.554 344.616 212.205 343.774 212.205 342.897C212.205 342.02 212.554 341.178 213.175 340.558C213.796 339.938 214.638 339.589 215.516 339.589H256.467C257.346 339.589 258.188 339.938 258.809 340.558C259.43 341.178 259.779 342.02 259.779 342.897C259.779 343.774 259.43 344.616 258.809 345.236C258.188 345.856 257.346 346.205 256.467 346.205Z" fill="#E8E9F1"/>
<path d="M342.729 217.479H129.696C128.452 217.477 127.26 216.983 126.381 216.105C125.501 215.226 125.006 214.035 125.005 212.793V154.908C125.006 153.665 125.501 152.474 126.381 151.596C127.26 150.717 128.452 150.223 129.696 150.222H342.729C343.973 150.223 345.165 150.717 346.045 151.596C346.924 152.474 347.419 153.665 347.42 154.908V212.793C347.419 214.035 346.924 215.226 346.045 216.105C345.165 216.983 343.973 217.477 342.729 217.479Z" fill="#9CCBC3"/>
<path d="M53.1101 286.346C55.1466 300.619 44.3625 363.851 45.5601 363.846L61.0464 363.763C61.5983 362.705 68.7067 328.585 70.9364 323.111C74.0491 315.514 77.1894 307.824 78.4147 299.709C79.5681 292.09 78.9997 284.328 78.2491 276.66C78.284 276.432 78.264 276.198 78.191 275.979C78.1179 275.761 77.9937 275.562 77.8288 275.401C77.6638 275.239 77.4628 275.119 77.2422 275.05C77.0216 274.982 76.7879 274.966 76.5603 275.006L55.7813 273.936C51.4985 273.716 50.483 272.779 51.1343 276.979C51.5868 280.116 52.6575 283.17 53.1101 286.346Z" fill="#2F2E41"/>
<path d="M57.1941 251.642C52.9721 257.706 48.5459 264.686 49.9477 271.946C51.0129 277.459 55.2183 281.732 59.1865 285.728C75.0481 301.639 106.324 371.84 106.324 371.84C121.418 362.192 105.965 372.115 121.281 361.916C119.923 361.812 89.0773 251.052 86.522 250.903C76.185 250.22 67.2663 249.211 57.1941 251.642Z" fill="#2F2E41"/>
<path d="M73.8938 193.923C71.7493 192.013 56.6788 186.121 56.6788 186.121C56.4017 186.085 56.1205 186.093 55.8461 186.146C54.9885 186.362 54.5971 187.427 54.7803 188.288C54.9635 189.149 53.4606 203.296 53.0734 209.73C52.3948 220.958 59.0143 246.392 58.9561 247.17C58.7293 249.944 57.5134 252.544 55.5297 254.498C56.0453 255.137 88.7899 256.419 91.0172 257.176C91.4669 256.606 88.4818 216.263 88.3444 213.984C88.1154 210.524 76.7248 196.543 73.8938 193.923Z" fill="#E3F0EE"/>
<path d="M50.5389 281.461C51.3149 281.075 51.9968 280.524 52.5365 279.846C53.0763 279.169 53.4607 278.382 53.6629 277.54C53.865 276.698 53.8799 275.822 53.7064 274.973C53.533 274.125 53.1755 273.325 52.6591 272.63L66.4747 196.254L53.5823 196.085L43.9881 271.61C42.8762 272.554 42.1496 273.873 41.946 275.316C41.7424 276.76 42.0759 278.228 42.8834 279.442C43.6909 280.656 44.9162 281.532 46.3271 281.904C47.7381 282.276 49.2367 282.118 50.5389 281.461H50.5389Z" fill="#FFD8D8"/>
<path d="M50.4279 201.922C49.8902 201.961 49.3547 201.821 48.9046 201.525C48.1375 200.869 54.396 190.83 55.6323 190.681C59.6556 190.218 63.7949 190.063 67.6968 191.149C71.5987 192.235 75.2688 194.705 77.0128 198.36C77.7413 199.882 72.4597 207.539 70.0589 206.414C67.1835 205.069 54.2139 202.015 50.4279 201.922Z" fill="#E3F0EE"/>
<path d="M64.6284 185.298C72.6262 185.298 79.1096 178.822 79.1096 170.833C79.1096 162.844 72.6262 156.368 64.6284 156.368C56.6307 156.368 50.1473 162.844 50.1473 170.833C50.1473 178.822 56.6307 185.298 64.6284 185.298Z" fill="#FFD8D8"/>
<path d="M50.4049 194.75C52.4172 194.96 54.4502 194.663 56.3179 193.886C58.1856 193.109 59.8284 191.876 61.0959 190.3C62.3633 188.725 63.2151 186.857 63.5732 184.868C63.9313 182.879 63.7844 180.832 63.1458 178.914C62.5695 177.183 61.6062 175.597 61.0784 173.851C60.5507 172.105 60.5363 170.04 61.7068 168.641C63.997 165.902 68.4113 167.624 71.9419 167.08C75.704 166.5 78.5902 162.894 78.8913 159.104C79.1924 155.313 77.2144 151.562 74.27 149.152C71.3256 146.742 67.5282 145.555 63.7398 145.184C58.8744 144.706 53.968 145.488 49.4929 147.454C45.0177 149.419 41.1246 152.503 38.1884 156.407C35.2522 160.312 33.3718 164.906 32.7283 169.747C32.0848 174.587 32.6998 179.512 34.5142 184.047C36.0969 188.003 38.6822 191.687 42.3544 193.853C46.0265 196.02 50.8764 196.436 54.5363 194.249" fill="#2F2E41"/>
<path d="M205.459 176.684H168.452C166.102 176.684 164.19 173.963 164.19 170.619C164.19 167.276 166.102 164.555 168.452 164.555H205.459C207.809 164.555 209.722 167.276 209.722 170.619C209.722 173.963 207.809 176.684 205.459 176.684Z" fill="white"/>
<path d="M304.924 189.914H167.501C166.623 189.914 165.781 189.566 165.16 188.946C164.539 188.325 164.19 187.484 164.19 186.607C164.19 185.729 164.539 184.888 165.16 184.268C165.781 183.648 166.623 183.299 167.501 183.299H304.924C305.802 183.299 306.645 183.648 307.266 184.268C307.887 184.888 308.235 185.729 308.235 186.607C308.235 187.484 307.887 188.325 307.266 188.946C306.645 189.566 305.802 189.914 304.924 189.914Z" fill="#E8E9F1"/>
<path d="M234.392 203.145H167.501C166.623 203.145 165.781 202.797 165.16 202.177C164.539 201.556 164.19 200.715 164.19 199.838C164.19 198.96 164.539 198.119 165.16 197.499C165.781 196.878 166.623 196.53 167.501 196.53H234.392C235.27 196.53 236.112 196.878 236.733 197.499C237.354 198.119 237.703 198.96 237.703 199.838C237.703 200.715 237.354 201.556 236.733 202.177C236.112 202.797 235.27 203.145 234.392 203.145Z" fill="#E8E9F1"/>
<path d="M436 385.897H0V387H436V385.897Z" fill="#020202"/>
</g>
<defs>
<clipPath id="clip0_18_115">
<rect width="436" height="387" fill="white"/>
</clipPath>
</defs>
</svg>
