<svg width="15" height="15" viewBox="0 0 15 15" fill="none" xmlns="http://www.w3.org/2000/svg">
<path d="M10.0781 7.5L13.9844 3.59375C14.4922 3.125 14.4922 2.34375 13.9844 1.875L13.125 1.01562C12.6562 0.507812 11.875 0.507812 11.4062 1.01562L7.5 4.92188L3.55469 1.01562C3.08594 0.507812 2.30469 0.507812 1.83594 1.01562L0.976562 1.875C0.46875 2.34375 0.46875 3.125 0.976562 3.59375L4.88281 7.5L0.976562 11.4453C0.46875 11.9141 0.46875 12.6953 0.976562 13.1641L1.83594 14.0234C2.30469 14.5312 3.08594 14.5312 3.55469 14.0234L7.5 10.1172L11.4062 14.0234C11.875 14.5312 12.6562 14.5312 13.125 14.0234L13.9844 13.1641C14.4922 12.6953 14.4922 11.9141 13.9844 11.4453L10.0781 7.5Z" fill="#F34C41"/>
</svg>
