<svg width="59" height="59" viewBox="0 0 59 59" fill="none" xmlns="http://www.w3.org/2000/svg">
<path d="M58.807 41.8986C58.6691 41.1814 58.5312 40.4091 58.3106 39.6919C57.2904 36.2716 55.1948 33.5685 52.1065 31.5825C51.8307 31.417 51.7756 31.2791 51.7756 30.9757C51.7756 29.569 51.7756 28.1622 51.7756 26.7831V24.9626H53.3749C53.9539 24.9626 54.533 24.9626 55.0845 24.9626C56.9044 24.9074 58.3382 23.7765 58.8346 21.9836C58.8346 21.9009 58.8897 21.8181 58.9173 21.763L58.9724 21.5699V20.3011C58.6967 19.2529 58.0625 18.4254 57.4559 17.6807C55.6084 15.4741 53.7609 13.2398 51.9686 11.0056C51.8307 10.8125 51.7204 10.5367 51.7204 10.316C51.7204 8.30248 51.7204 6.28892 51.7204 4.27536V1.95839C51.7204 0.579243 51.1414 0 49.7627 0H9.20125C7.8777 0 7.27107 0.606826 7.27107 1.93081V3.75129C7.27107 5.95792 7.27107 8.16456 7.27107 10.3712C7.27107 10.5919 7.16077 10.8401 7.05047 11.0056C5.86479 12.4675 4.65153 13.9294 3.43827 15.3913C2.6662 16.3291 1.89413 17.2669 1.12205 18.2324C-0.146355 19.777 -0.339373 21.432 0.542997 23.0042C1.25992 24.2454 2.36288 24.9626 3.71401 24.9902C4.43094 25.0178 5.14786 25.0178 5.86479 24.9902H7.18834V31.7204C7.18834 40.1332 7.18834 48.5461 7.18834 56.9589C7.18834 57.7036 7.32621 58.6138 8.4016 59H8.5119H45.0475C45.4336 58.9173 45.8196 58.8621 46.2056 58.7793C47.0604 58.6414 47.9428 58.4759 48.7976 58.1725C54.2297 56.2417 57.5937 52.3801 58.7518 46.6704C58.807 46.367 58.8621 46.036 58.9173 45.7326L59 45.2085V42.864C58.9173 42.533 58.8621 42.202 58.807 41.8986ZM10.4145 9.65404V3.14446H48.5494V9.65404H10.4145ZM36.086 21.8457H31.0951V12.8813H34.2936L36.086 21.8457ZM45.406 21.8457H39.2845L37.4922 12.8537H38.1264C39.3948 12.8537 40.5805 12.8537 41.7386 12.8537C41.7386 12.8537 41.7938 12.8813 41.8214 12.8813C43.007 15.805 44.1652 18.7288 45.3508 21.7078L45.406 21.8457ZM45.1854 12.8537H45.7645C47.0053 12.8537 48.191 12.8537 49.3767 12.8537C49.4042 12.8537 49.5145 12.9088 49.5697 12.9916C51.0587 14.7845 52.5477 16.605 54.0642 18.3979L55.5532 20.2183C55.9117 20.6321 55.9944 20.9907 55.8014 21.3768C55.636 21.7354 55.3602 21.8733 54.7536 21.8733C53.9264 21.8733 53.1267 21.8733 52.2995 21.8733H48.8252L45.213 12.8537H45.1854ZM21.5269 12.8537L19.7345 21.8457H13.6131L14.9918 18.4254C15.7087 16.6601 16.3981 14.8948 17.0874 13.1019C17.1702 12.8537 17.2253 12.8261 17.4735 12.8261H17.501C18.5489 12.8261 19.6242 12.8261 20.6996 12.8261H21.5544L21.5269 12.8537ZM13.8061 12.9088L12.841 15.3086C11.9862 17.4049 11.159 19.5012 10.3318 21.6251C10.2491 21.8457 10.1939 21.9009 9.97332 21.8733C9.00823 21.8733 8.04314 21.8733 7.10562 21.8733C6.1681 21.8733 5.17544 21.8733 4.23792 21.8733C3.68644 21.8733 3.43827 21.7354 3.27283 21.4044C3.07981 21.0458 3.16253 20.6872 3.46585 20.3011C5.47875 17.8462 7.49166 15.4189 9.53214 12.964C9.58729 12.9088 9.67001 12.8537 9.69758 12.8537C10.8833 12.8537 12.0965 12.8537 13.3098 12.8537H13.8888C13.8888 12.8537 13.8888 12.8813 13.8888 12.9088H13.8061ZM27.8965 12.8813V21.8457H22.9056L24.6979 12.8813H27.8965ZM31.7844 35.7751C31.4259 36.3268 31.0951 36.5199 30.4057 36.4923C28.2274 36.4647 25.9939 36.4647 23.8431 36.4923H21.4166C20.0379 36.4923 19.4588 37.0715 19.4588 38.4507V55.9107H10.3869V25.0453H48.6322V29.9275L48.4667 29.8724C48.1358 29.7896 47.8049 29.7069 47.4465 29.6241C41.4353 28.1898 35.1484 30.6723 31.7568 35.8027L31.7844 35.7751ZM22.5747 39.6367H29.8266C28.1171 46.1187 29.8266 51.5802 34.9554 55.9107H22.5747V39.6367ZM32.2807 44.1328C32.3359 37.5404 37.4922 32.3548 44.0549 32.3273C50.7554 32.4376 55.9393 37.6508 55.8841 44.2155C55.829 50.6975 50.5899 55.9107 44.1652 55.9107H44.0824C40.8287 55.9107 37.8231 54.6419 35.6172 52.3801C33.4664 50.1734 32.2807 47.2497 32.3083 44.1328H32.2807Z" fill="#0D344F"/>
<path d="M45.7722 50.1652L53.4486 40.772C53.8128 40.3338 54.121 39.8409 53.9529 39.1837C53.7848 38.5812 53.3645 38.1704 52.7482 38.0335C51.7957 37.8418 51.2353 38.5264 51.0672 38.7455C49.7785 40.3338 48.4618 41.9222 47.173 43.5105L43.2508 48.303L41.0656 46.7146C39.9169 45.8657 38.7963 45.0441 37.6476 44.1952C36.8352 43.5927 35.8546 43.6749 35.3223 44.3869C35.0702 44.7155 34.9581 45.0989 35.0141 45.4823C35.0702 45.9205 35.3223 46.3039 35.7706 46.6325C38.0118 48.303 40.2531 49.9461 42.5224 51.5892C42.8866 51.8631 43.2508 52 43.615 52C44.0913 52 44.5115 51.7535 44.9318 51.288C45.2679 50.9046 45.5761 50.5212 45.8843 50.1378L45.7722 50.1652Z" fill="#0D344F"/>
</svg>
