<?xml version="1.0" encoding="UTF-8"?>
<svg id="a" data-name="Camada 1" xmlns="http://www.w3.org/2000/svg" xmlns:xlink="http://www.w3.org/1999/xlink" viewBox="0 0 135.5 48.68">
  <defs>
    <style>
      .g {
        fill: #fff;
      }

      .h {
        fill: #60a9e0;
      }

      .i {
        fill: url(#f);
      }

      .j {
        fill: url(#e);
      }

      .k {
        fill: url(#d);
      }

      .l {
        fill: url(#c);
      }
    </style>
    <linearGradient id="c" data-name="Gradiente sem nome 26" x1="-508.63" y1="739.92" x2="-518.38" y2="721.26" gradientTransform="translate(-496.77 -709.04) rotate(179.95) scale(1 -1)" gradientUnits="userSpaceOnUse">
      <stop offset="0" stop-color="#a6a8ab"/>
      <stop offset=".35" stop-color="#c1c2c5"/>
      <stop offset=".92" stop-color="#fff"/>
    </linearGradient>
    <linearGradient id="d" data-name="Gradiente sem nome 14" x1="38.08" y1="59.75" x2="8.63" y2="46.14" gradientTransform="translate(0 65.89) scale(1 -1)" gradientUnits="userSpaceOnUse">
      <stop offset="0" stop-color="#ebd658"/>
      <stop offset="1" stop-color="#e4bb57"/>
    </linearGradient>
    <linearGradient id="e" data-name="Gradiente sem nome 17" x1="-156.36" y1="61.52" x2="-156.4" y2="40.47" gradientTransform="translate(194.17 77.67) rotate(-.05) scale(1 -1)" gradientUnits="userSpaceOnUse">
      <stop offset="0" stop-color="#a6a8ab"/>
      <stop offset=".35" stop-color="#bfc1c3"/>
      <stop offset=".92" stop-color="#fff"/>
    </linearGradient>
    <linearGradient id="f" data-name="Gradiente sem nome 22" x1="-317.49" y1="736.51" x2="-349.77" y2="726.63" gradientTransform="translate(-302.6 -697.26) rotate(-180) scale(1 -1)" gradientUnits="userSpaceOnUse">
      <stop offset="0" stop-color="#5ea7de"/>
      <stop offset="1" stop-color="#407093"/>
    </linearGradient>
  </defs>
  <g>
    <g id="b" data-name="a">
      <g>
        <path class="l" d="m24.29,11.79c-1.07.65-3.18,2.14-4.59,4.89-1.93,3.77-1.32,7.73-.8,9.17.91,2.49,3.57,4.59,2.29,6.59-.91,1.41-3.1,1.25-4.78.73-3.08-.95-5.66-3.34-6.7-5.07-2.68-4.44-1.4-11.48,3.4-14.97,4.82-3.51,10.62-1.54,11.18-1.34Z"/>
        <path class="k" d="m38.89,10.33c1.5-3.92-5.73-6.46-12.24-6.44-8.76.03-14.51,6.2-14.93,6.7-1.06,1.27-5.34,6.38-4.09,12.71.47,2.4,1.58,4.18,2.39,5.25-.24-1.04-.44-2.56-.06-4.29,1.27-5.86,8.23-8.78,11.32-10.08,1.13-.48,2.21-.85,3.22-1.16,2.74-.83,5.59-1.24,8.45-1.31,3.97-.09,5.3.3,5.95-1.39h-.01Z"/>
      </g>
      <g>
        <path class="j" d="m29.76,36.88c1.07-.65,3.18-2.14,4.59-4.89,1.93-3.77,1.32-7.73.8-9.17-.91-2.49-3.57-4.59-2.29-6.59.91-1.41,3.1-1.25,4.78-.73,3.08.95,5.66,3.34,6.7,5.07,2.68,4.44,1.4,11.48-3.4,14.97-4.82,3.51-10.62,1.54-11.18,1.34Z"/>
        <path class="i" d="m15.15,38.34c-1.5,3.92,5.73,6.46,12.24,6.44,8.76-.03,14.51-6.2,14.93-6.7,1.06-1.27,5.34-6.38,4.09-12.71-.47-2.4-1.58-4.18-2.39-5.25.24,1.04.44,2.56.06,4.29-1.27,5.86-8.23,8.78-11.32,10.08-1.13.48-2.21.85-3.22,1.16-2.74.83-5.59,1.24-8.45,1.31-3.97.09-5.3-.3-5.95,1.39h.01Z"/>
      </g>
    </g>
    <g>
      <path class="g" d="m67.95,24.32c-.07-1.4-.08-2.21.03-3.21.12-1.08.3-2.15.88-3.4.94-2.01,2.6-3,4.72-3.23,1.45-.15,2.93-.15,4.4-.09.81.03,1.63.24,2.4.51,1.7.6,2.75,1.82,3.31,3.54.4,1.21.59,2.43.64,3.68.05,1.13.12,2.27.09,3.4-.05,1.71-.23,3.41-.82,5.02-.74,2.01-2.25,3.11-4.3,3.56-1.55.35-3.13.35-4.68.25-1-.06-2.01-.35-2.96-.69-1.83-.65-2.58-2.35-2.8-2.76-.58-1.05-.69-2.91-.89-6.6Zm4.31.19c.13,1.19.19,2.6.44,3.96.22,1.17.9,2.11,2.18,2.34.65.12,1.33.14,1.99.11,1.25-.05,2.25-.85,2.52-2.05.23-1,.43-2.01.47-3.03.08-1.94.11-3.88-.37-5.79-.21-.83-.61-1.57-1.44-1.94-1.07-.47-2.19-.47-3.31-.21-1.43.34-1.95,1.48-2.16,2.74-.2,1.2-.22,2.44-.34,3.87Z"/>
      <path class="g" d="m64.77,15.04c-.07.91-.14,1.77-.21,2.62-.03.35-.24.37-.53.36-1.6-.06-3.2-.11-4.8-.14-.67-.01-1.35.01-2.02.04-1.47.05-1.73,1-1.56,2.21.14.99.94,1.35,1.75,1.64,1.37.49,2.76.91,4.12,1.4,1.16.42,2.22,1.01,2.97,2.04.53.73.79,1.56.84,2.44.05.96.13,1.96-.03,2.9-.33,1.92-1.11,3.01-3.51,3.56-1.77.4-3.56.34-5.34.26-1.48-.06-2.95-.35-4.42-.56-.38-.05-.53-.24-.44-.7.13-.63.13-1.3.15-1.95.01-.37.11-.55.52-.53,1.05.05,2.11.09,3.16.1,1.26.01,2.53.03,3.79-.02.41-.01.83-.18,1.22-.32.62-.22.7-1.32.64-2.01-.09-.93-.71-1.33-1.5-1.59-1.43-.48-2.87-.92-4.27-1.47-1.46-.57-2.79-1.35-3.44-2.89-.22-.53-.43-1.1-.47-1.67-.07-1.17-.13-2.34.23-3.5.48-1.55,1.58-2.39,3.1-2.68,2.1-.39,4.22-.46,6.35-.15,1.1.16,2.2.32,3.3.48.12.02.24.07.38.11Z"/>
      <path class="g" d="m100.09,30.54c.05,1.12.1,2.17.15,3.26-.62.07-1.2.18-1.78.2-2.42.05-4.84.18-7.25.07-1.71-.08-3.29-1.16-3.52-3.4-.03-.29-.04-.58-.04-.86,0-4.89,0-9.78,0-14.68,0-.14,0-.28,0-.45h4.27c0,.19,0,.37,0,.56,0,4.62,0,9.24,0,13.86,0,.84.19,1.17.84,1.37.22.07.47.07.7.07,2.02,0,4.04,0,6.07,0,.17,0,.35,0,.56,0Z"/>
    </g>
  </g>
  <path class="h" d="m33.93,16.03c.09,0,.18,0,.27,0-.09,0-.18,0-.27,0Z"/>
  <g>
    <path class="g" d="m53.04,42.13c-.11,0-.23,0-.35,0s-.24-.02-.36-.03c-.12-.01-.24-.03-.35-.05-.11-.02-.21-.04-.3-.06v-.68c.12.01.25.02.4.03.15,0,.3.01.46.02.16,0,.31,0,.46,0s.28-.01.38-.04c.11-.03.19-.07.25-.13.06-.06.09-.15.09-.27v-.16c0-.13-.04-.23-.11-.29-.08-.07-.18-.1-.32-.1h-.37c-.41,0-.73-.09-.95-.27-.22-.18-.33-.49-.33-.92v-.21c0-.42.12-.73.36-.92.24-.2.59-.29,1.03-.29.16,0,.32,0,.48.02s.31.03.46.05c.15.02.27.04.38.07v.68c-.18-.01-.38-.02-.6-.04s-.42-.02-.61-.02c-.13,0-.25.01-.35.04-.1.03-.18.07-.24.14-.05.07-.08.17-.08.3v.12c0,.15.04.26.13.33.09.07.21.1.38.1h.43c.26,0,.48.05.65.14.17.09.3.23.38.39.08.17.12.36.12.57v.25c0,.34-.06.6-.19.78-.13.18-.3.3-.53.36s-.49.1-.79.1Z"/>
    <path class="g" d="m56.48,42.13c-.26,0-.48-.03-.66-.08-.18-.05-.33-.14-.45-.27-.11-.12-.2-.29-.25-.5s-.08-.46-.08-.76c0-.32.03-.58.08-.79.05-.21.14-.37.25-.49.12-.12.26-.2.45-.25.18-.05.4-.07.66-.07s.48.03.67.08c.18.05.33.14.45.25.12.12.2.28.25.49.05.21.08.47.08.79s-.03.57-.08.78-.13.37-.25.49c-.11.12-.26.21-.45.26-.19.05-.41.08-.67.08Zm0-.69c.11,0,.19,0,.27-.03.07-.02.13-.06.18-.12.04-.06.08-.15.1-.28s.04-.29.04-.49-.01-.37-.04-.49c-.02-.12-.06-.21-.1-.27-.04-.06-.1-.1-.18-.12s-.16-.03-.27-.03-.19,0-.26.03-.13.06-.18.12c-.05.06-.08.15-.1.27-.02.12-.03.29-.03.49s.01.37.03.49.06.22.1.28.11.1.18.12c.07.02.16.03.26.03Z"/>
    <path class="g" d="m59.48,42.11c-.22,0-.41-.04-.55-.11-.15-.07-.25-.18-.32-.33-.07-.15-.11-.34-.11-.58v-3.45h.86v3.32c0,.12.01.21.04.28s.06.12.11.15c.05.03.11.05.18.06l.24.04v.62h-.45Z"/>
    <path class="g" d="m61.21,42.13c-.28,0-.5-.08-.66-.25-.16-.17-.24-.4-.24-.7v-2.22h.86v1.96c0,.18.04.29.13.35s.19.09.33.09c.11,0,.22-.02.34-.06.11-.04.22-.1.31-.17v-2.18h.87v3.14h-.72l-.15-.32c-.14.09-.3.18-.49.25-.18.07-.38.11-.58.11Z"/>
    <path class="g" d="m65.02,42.13c-.19,0-.37-.03-.53-.08s-.3-.13-.42-.25c-.12-.12-.21-.28-.27-.48-.06-.2-.1-.46-.1-.77s.03-.58.09-.79c.06-.21.14-.38.26-.5.11-.12.26-.21.42-.26s.36-.08.57-.08c.19,0,.37.01.55.03s.36.06.55.11v.5h-.82c-.18,0-.32.03-.43.08-.11.05-.19.15-.24.29-.05.14-.07.35-.07.61s.02.46.07.59c.05.14.13.23.24.27.11.05.26.07.44.07h.86v.49c-.1.03-.21.06-.34.08-.13.03-.26.04-.41.06-.14.01-.28.02-.42.02Zm-.41,1.12v-.36l.1-.02c.08,0,.14-.03.18-.06.04-.03.06-.08.06-.14,0-.05-.02-.1-.05-.13-.04-.04-.11-.06-.22-.08l.34-.08c.14,0,.25.03.34.09.09.06.14.16.14.3s-.05.26-.15.34c-.1.08-.26.13-.47.13h-.28Zm.08-.78l.3-.47h.39l-.3.47h-.39Z"/>
    <path class="g" d="m67.32,42.13c-.24,0-.43-.07-.58-.21-.15-.14-.22-.33-.22-.58v-.28c0-.24.08-.43.25-.59.17-.15.43-.23.78-.23h.8v-.22c0-.1-.02-.18-.05-.24-.04-.06-.1-.11-.2-.14-.09-.03-.24-.04-.43-.04h-.94v-.5c.15-.05.33-.09.53-.12.2-.04.44-.05.73-.05.26,0,.48.03.67.09.19.06.33.17.42.32.09.15.14.36.14.63v2.13h-.68l-.14-.33s-.07.07-.14.11-.15.08-.24.12c-.1.04-.2.08-.32.1-.12.03-.24.04-.37.04Zm-.47-3.71c.01-.19.05-.34.1-.45.06-.11.13-.19.22-.24.09-.05.19-.07.29-.07.1,0,.18.01.26.04.08.03.15.06.21.1.07.04.13.07.19.1s.12.04.19.04.13-.03.18-.08.07-.13.07-.22h.43c-.01.26-.07.46-.17.59-.1.13-.25.2-.43.2-.1,0-.18-.01-.26-.04-.08-.03-.15-.06-.22-.1s-.13-.07-.2-.1c-.06-.03-.12-.04-.18-.04-.08,0-.14.03-.18.08s-.07.12-.08.2h-.43Zm.91,3.11s.08,0,.13-.01.1-.02.15-.04c.05-.01.1-.03.15-.04s.08-.03.11-.04c.03-.01.05-.02.05-.02v-.73l-.53.04c-.15.01-.26.05-.33.12-.07.07-.11.16-.11.27v.13c0,.08.02.14.05.19.03.05.08.09.13.11s.12.03.19.03Z"/>
    <path class="g" d="m71.21,42.13c-.26,0-.48-.03-.66-.08-.18-.05-.33-.14-.45-.27-.11-.12-.2-.29-.25-.5s-.08-.46-.08-.76c0-.32.03-.58.08-.79.05-.21.14-.37.25-.49.12-.12.26-.2.45-.25.18-.05.4-.07.66-.07s.48.03.67.08c.18.05.33.14.45.25.12.12.2.28.25.49.05.21.08.47.08.79s-.03.57-.08.78-.13.37-.25.49c-.11.12-.26.21-.45.26-.19.05-.41.08-.67.08Zm0-.69c.11,0,.19,0,.27-.03.07-.02.13-.06.18-.12.04-.06.08-.15.1-.28s.04-.29.04-.49-.01-.37-.04-.49c-.02-.12-.06-.21-.1-.27-.04-.06-.1-.1-.18-.12s-.16-.03-.27-.03-.19,0-.26.03-.13.06-.18.12c-.05.06-.08.15-.1.27-.02.12-.03.29-.03.49s.01.37.03.49.06.22.1.28.11.1.18.12c.07.02.16.03.26.03Z"/>
    <path class="g" d="m76.44,42.13c-.3,0-.55-.03-.78-.08-.22-.06-.41-.16-.56-.32-.15-.15-.26-.37-.34-.66s-.11-.66-.11-1.13.04-.84.11-1.13.19-.51.34-.67c.15-.16.33-.26.55-.32.22-.06.48-.09.78-.09s.55.03.78.09c.22.06.41.17.55.32.15.16.26.38.33.67s.11.67.11,1.13-.04.84-.11,1.13-.18.51-.33.66c-.15.15-.33.26-.55.32s-.48.08-.78.08Zm0-.78c.17,0,.32-.02.44-.06.12-.04.21-.11.28-.21.07-.1.12-.24.15-.43.03-.18.05-.42.05-.72,0-.31-.02-.56-.05-.75-.03-.19-.08-.33-.15-.43-.07-.1-.16-.17-.28-.2-.12-.04-.26-.05-.44-.05s-.31.02-.43.05c-.12.04-.21.1-.28.2-.07.1-.12.24-.16.43-.03.19-.05.44-.05.75s.01.54.04.72c.03.19.08.33.15.43.07.1.16.17.28.21.12.04.27.06.44.06Z"/>
    <path class="g" d="m78.82,42.1v-3.14h.71l.15.32c.12-.1.26-.18.44-.26.18-.08.36-.11.55-.11.26,0,.46.05.6.15.14.1.24.24.29.41.06.17.08.36.08.56v2.07h-.86v-1.96c0-.1-.02-.18-.06-.25s-.09-.12-.16-.15c-.07-.03-.15-.05-.24-.05-.08,0-.16,0-.24.03s-.15.05-.22.08c-.07.04-.13.08-.2.12v2.18h-.86Z"/>
    <path class="g" d="m83.27,42.11c-.22,0-.41-.04-.55-.11-.15-.07-.25-.18-.32-.33-.07-.15-.11-.34-.11-.58v-3.45h.86v3.32c0,.12.01.21.04.28s.06.12.11.15c.05.03.11.05.18.06l.24.04v.62h-.45Z"/>
    <path class="g" d="m84.22,38.5c-.08,0-.12-.04-.12-.12v-.57c0-.08.04-.12.12-.12h.67s.06.01.08.04.03.05.03.09v.57c0,.08-.04.12-.11.12h-.67Zm-.1,3.6v-3.14h.86v3.14h-.86Z"/>
    <path class="g" d="m85.65,42.1v-3.14h.71l.15.32c.12-.1.26-.18.44-.26.18-.08.36-.11.55-.11.26,0,.46.05.6.15.14.1.24.24.29.41.06.17.08.36.08.56v2.07h-.86v-1.96c0-.1-.02-.18-.06-.25s-.09-.12-.16-.15c-.07-.03-.15-.05-.24-.05-.08,0-.16,0-.24.03s-.15.05-.22.08c-.07.04-.13.08-.2.12v2.18h-.86Z"/>
    <path class="g" d="m90.44,42.13c-.35,0-.62-.05-.83-.14-.21-.09-.35-.25-.45-.49s-.14-.56-.14-.97.04-.75.13-.99.23-.4.43-.49c.2-.09.48-.14.82-.14.31,0,.56.03.75.09.19.06.32.17.41.33.08.16.13.38.13.66,0,.21-.04.38-.13.5-.08.12-.2.21-.35.26-.15.05-.33.08-.54.08h-.79c0,.16.03.29.07.38.04.1.12.16.23.2.11.04.27.06.48.06h.92v.51c-.15.03-.32.06-.5.09s-.4.04-.65.04Zm-.57-1.8h.71c.12,0,.2-.02.26-.07.05-.05.08-.13.08-.25,0-.11-.02-.2-.05-.27-.04-.07-.09-.12-.16-.15-.07-.03-.17-.04-.3-.04-.13,0-.24.02-.31.07-.08.04-.13.12-.17.24-.04.11-.05.27-.05.48Z"/>
    <path class="g" d="m94.79,42.13c-.25,0-.45-.05-.62-.16-.17-.1-.29-.27-.38-.5-.08-.23-.12-.54-.12-.91s.04-.71.11-.95c.07-.24.19-.42.36-.53.17-.11.41-.17.71-.17.14,0,.29.01.43.04.14.03.26.06.37.1v-1.42h.87v4.46h-.73l-.14-.3c-.07.06-.15.12-.24.17-.1.05-.2.09-.3.12-.11.03-.21.04-.32.04Zm.3-.7c.12,0,.22-.02.32-.06.09-.04.17-.08.24-.12v-1.58c-.08-.03-.16-.05-.25-.08-.09-.03-.18-.04-.27-.04-.14,0-.26.03-.35.08s-.15.14-.19.28c-.04.14-.06.34-.06.6,0,.24.02.43.06.56.04.13.1.23.18.28.08.05.19.08.33.08Z"/>
    <path class="g" d="m98.49,42.13c-.35,0-.62-.05-.83-.14-.21-.09-.35-.25-.45-.49s-.14-.56-.14-.97.04-.75.13-.99.23-.4.43-.49c.2-.09.48-.14.82-.14.31,0,.56.03.75.09.19.06.32.17.41.33.08.16.13.38.13.66,0,.21-.04.38-.13.5-.08.12-.2.21-.35.26-.15.05-.33.08-.54.08h-.79c0,.16.03.29.07.38.04.1.12.16.23.2.11.04.27.06.48.06h.92v.51c-.15.03-.32.06-.5.09s-.4.04-.65.04Zm-.57-1.8h.71c.12,0,.2-.02.26-.07.05-.05.08-.13.08-.25,0-.11-.02-.2-.05-.27-.04-.07-.09-.12-.16-.15-.07-.03-.17-.04-.3-.04-.13,0-.24.02-.31.07-.08.04-.13.12-.17.24-.04.11-.05.27-.05.48Z"/>
    <path class="g" d="m102.87,42.1c-.22,0-.41-.03-.56-.1-.15-.07-.27-.18-.34-.33-.08-.15-.11-.35-.11-.59v-3.3h.86v3.16c0,.09.02.17.05.23.03.06.08.1.14.12.06.02.12.03.2.03h1.37v.78h-1.59Z"/>
    <path class="g" d="m105.04,38.5c-.08,0-.12-.04-.12-.12v-.57c0-.08.04-.12.12-.12h.67s.06.01.08.04.03.05.03.09v.57c0,.08-.04.12-.11.12h-.67Zm-.11,3.6v-3.14h.86v3.14h-.86Z"/>
    <path class="g" d="m107.68,42.13c-.19,0-.37-.03-.53-.08s-.3-.13-.42-.25c-.12-.12-.21-.28-.27-.48-.06-.2-.1-.46-.1-.77s.03-.58.09-.79c.06-.21.14-.38.26-.5.11-.12.26-.21.42-.26s.36-.08.57-.08c.19,0,.37.01.55.03s.36.06.55.11v.5h-.82c-.18,0-.32.03-.43.08-.11.05-.19.15-.24.29-.05.14-.07.35-.07.61s.02.46.07.59c.05.14.13.23.24.27.11.05.26.07.44.07h.86v.49c-.1.03-.21.06-.34.08-.13.03-.26.04-.41.06-.14.01-.28.02-.42.02Z"/>
    <path class="g" d="m109.43,38.5c-.08,0-.12-.04-.12-.12v-.57c0-.08.04-.12.12-.12h.67s.06.01.08.04.03.05.03.09v.57c0,.08-.04.12-.11.12h-.67Zm-.11,3.6v-3.14h.86v3.14h-.86Z"/>
    <path class="g" d="m112.04,42.1c-.24,0-.44-.04-.59-.11-.15-.07-.26-.19-.32-.35-.07-.16-.1-.38-.09-.66l.03-1.33h-.49v-.55l.52-.14.12-.88h.68v.88h.74v.7h-.74v1.32c0,.09,0,.16.02.21.02.05.04.1.07.13.03.03.06.06.1.07s.08.03.12.03l.4.04v.64h-.57Z"/>
    <path class="g" d="m113.79,42.13c-.24,0-.43-.07-.58-.21-.15-.14-.22-.33-.22-.58v-.28c0-.24.08-.43.25-.59.17-.15.43-.23.78-.23h.8v-.22c0-.1-.02-.18-.05-.24-.04-.06-.1-.11-.2-.14-.09-.03-.24-.04-.43-.04h-.94v-.5c.15-.05.33-.09.53-.12.2-.04.44-.05.73-.05.26,0,.48.03.67.09.18.06.32.17.42.32.1.15.14.36.14.63v2.13h-.68l-.14-.33s-.07.07-.14.11-.15.08-.24.12c-.1.04-.2.08-.32.1-.12.03-.24.04-.37.04Zm.44-.6s.08,0,.13-.01.1-.02.15-.04c.05-.01.1-.03.15-.04s.08-.03.11-.04c.03-.01.05-.02.06-.02v-.73l-.53.04c-.15.01-.26.05-.33.12-.07.07-.11.16-.11.27v.13c0,.08.02.14.05.19.03.05.08.09.13.11s.12.03.19.03Z"/>
    <path class="g" d="m117.55,42.13c-.19,0-.37-.03-.53-.08-.16-.05-.3-.13-.42-.25-.12-.12-.21-.28-.27-.48s-.1-.46-.1-.77.03-.58.09-.79c.06-.21.14-.38.26-.5.11-.12.26-.21.42-.26.17-.05.36-.08.57-.08.19,0,.37.01.55.03.17.02.36.06.55.11v.5h-.82c-.18,0-.32.03-.43.08-.11.05-.19.15-.24.29-.05.14-.07.35-.07.61s.02.46.07.59c.05.14.13.23.24.27.11.05.26.07.44.07h.86v.49c-.1.03-.21.06-.34.08-.13.03-.26.04-.41.06-.14.01-.28.02-.42.02Zm-.41,1.12v-.36l.11-.02c.08,0,.14-.03.18-.06s.06-.08.06-.14c0-.05-.02-.1-.05-.13s-.11-.06-.22-.08l.34-.08c.14,0,.25.03.34.09.09.06.14.16.14.3s-.05.26-.16.34c-.1.08-.26.13-.47.13h-.28Zm.08-.78l.3-.47h.39l-.3.47h-.39Z"/>
    <path class="g" d="m120.54,42.13c-.26,0-.48-.03-.66-.08-.18-.05-.33-.14-.45-.27-.12-.12-.2-.29-.25-.5s-.08-.46-.08-.76c0-.32.03-.58.08-.79.05-.21.14-.37.25-.49.11-.12.26-.2.45-.25.19-.05.4-.07.66-.07s.48.03.67.08c.18.05.33.14.45.25.12.12.2.28.25.49.05.21.08.47.08.79s-.03.57-.08.78-.13.37-.25.49c-.11.12-.26.21-.45.26-.19.05-.41.08-.67.08Zm-1.04-3.7c.01-.19.05-.34.1-.45.06-.11.13-.19.22-.24.09-.05.19-.07.29-.07.1,0,.18.01.26.04.08.03.15.06.21.1.07.04.13.07.19.1s.12.04.19.04c.07,0,.13-.03.18-.08s.07-.13.07-.22h.43c-.01.26-.07.46-.17.59-.1.13-.25.2-.43.2-.1,0-.18-.01-.26-.04-.08-.03-.15-.06-.22-.1s-.13-.07-.2-.1c-.06-.03-.12-.04-.18-.04-.08,0-.14.03-.18.08s-.07.12-.08.2h-.43Zm1.04,3.01c.11,0,.19,0,.27-.03.07-.02.13-.06.17-.12.04-.06.08-.15.1-.28s.04-.29.04-.49-.01-.37-.04-.49c-.02-.12-.06-.21-.1-.27-.04-.06-.1-.1-.17-.12s-.16-.03-.27-.03-.19,0-.26.03-.13.06-.18.12c-.05.06-.08.15-.1.27-.02.12-.03.29-.03.49s.01.37.03.49.06.22.1.28c.05.06.11.1.18.12.07.02.16.03.26.03Z"/>
    <path class="g" d="m123.87,42.13c-.35,0-.62-.05-.83-.14-.21-.09-.36-.25-.45-.49-.09-.23-.14-.56-.14-.97s.04-.75.13-.99c.08-.23.23-.4.43-.49s.48-.14.82-.14c.31,0,.56.03.75.09.19.06.32.17.41.33s.13.38.13.66c0,.21-.04.38-.13.5-.08.12-.2.21-.35.26-.15.05-.33.08-.54.08h-.79c0,.16.03.29.07.38.04.1.12.16.23.2.11.04.27.06.48.06h.92v.51c-.15.03-.32.06-.5.09-.18.03-.4.04-.65.04Zm-.57-1.8h.71c.12,0,.2-.02.26-.07.05-.05.08-.13.08-.25,0-.11-.02-.2-.05-.27-.04-.07-.09-.12-.16-.15s-.17-.04-.3-.04c-.13,0-.24.02-.32.07-.08.04-.13.12-.17.24-.04.11-.05.27-.05.48Z"/>
    <path class="g" d="m126.83,42.13c-.1,0-.2,0-.32,0-.11,0-.23-.01-.34-.03s-.22-.03-.32-.04c-.1-.02-.18-.04-.25-.06v-.51h1.39c.08,0,.15,0,.2-.02.05-.01.09-.04.12-.08.03-.04.04-.09.04-.16v-.1c0-.08-.03-.14-.08-.18s-.14-.06-.28-.06h-.49c-.18,0-.34-.03-.48-.08-.14-.05-.26-.14-.34-.27-.08-.12-.13-.29-.13-.5v-.18c0-.2.04-.37.12-.5.08-.14.21-.24.39-.31.18-.07.43-.11.75-.11.13,0,.27,0,.41.02.15.01.28.03.42.05.13.02.23.05.31.07v.51h-1.31c-.11,0-.2.02-.26.06s-.09.11-.09.21v.09c0,.07.01.12.04.15.03.03.07.06.13.07s.13.02.21.02h.5c.32,0,.55.07.7.22.15.15.22.35.22.6v.28c0,.21-.05.38-.15.5-.1.12-.24.21-.43.26-.19.05-.42.08-.69.08Z"/>
  </g>
</svg>