<svg width="20" height="20" viewBox="0 0 20 20" fill="none" xmlns="http://www.w3.org/2000/svg">
<path fill-rule="evenodd" clip-rule="evenodd" d="M16.5154 11.4976L16.5562 11.4874C17.1128 11.3482 17.5033 10.848 17.5033 10.2742V9.72548C17.5033 9.15166 17.1128 8.65148 16.5561 8.51229L16.5153 8.50207C16.0909 8.39572 15.7419 8.09462 15.5746 7.69036C15.4073 7.28609 15.4414 6.82647 15.6665 6.4513L15.6837 6.42269C15.9827 5.92982 15.9067 5.29653 15.4996 4.88837L15.1116 4.50036C14.7059 4.0946 14.076 4.01706 13.584 4.31227L13.5479 4.33395C13.1728 4.55901 12.7132 4.59302 12.309 4.42561C11.9048 4.25819 11.6039 3.90917 11.4978 3.48477L11.4876 3.44403C11.3484 2.88736 10.8482 2.49686 10.2744 2.49686H9.72567C9.15186 2.49686 8.65167 2.88737 8.51248 3.44404L8.50226 3.48489C8.39593 3.9093 8.09483 4.25824 7.69056 4.42556C7.2863 4.59288 6.82667 4.5588 6.4515 4.33368L6.42287 4.31651C5.93001 4.01752 5.29672 4.09349 4.88856 4.50057L4.50055 4.88858C4.09478 5.29426 4.0172 5.92405 4.31239 6.41607L4.33374 6.45167C4.55887 6.82683 4.59296 7.28646 4.42564 7.69073C4.25833 8.095 3.90939 8.39611 3.48498 8.50245L3.44426 8.51264C2.88761 8.65182 2.49707 9.15197 2.49707 9.72577V10.2746C2.49707 10.8483 2.88739 11.3484 3.44396 11.4876L3.48441 11.4977C3.90887 11.6038 4.25798 11.9047 4.42554 12.3089C4.59309 12.713 4.55926 13.1727 4.33436 13.548L4.31274 13.584C4.01754 14.076 4.09507 14.7058 4.50079 15.1116L4.88883 15.4996C5.29443 15.9054 5.92413 15.983 6.41609 15.6878L6.45184 15.6664C6.827 15.4412 7.28664 15.4071 7.69091 15.5744C8.09518 15.7418 8.3963 16.0907 8.50264 16.5151L8.51283 16.5559C8.652 17.1125 9.15216 17.5031 9.72596 17.5031H10.2748C10.8485 17.5031 11.3486 17.1127 11.4878 16.5562L11.4979 16.5157C11.604 16.0913 11.9049 15.7421 12.309 15.5746C12.7132 15.407 13.1729 15.4409 13.5481 15.6658L13.5842 15.6874C14.0762 15.9826 14.706 15.9051 15.1118 15.4994L15.4998 15.1113C15.9056 14.7057 15.9831 14.076 15.688 13.5841L15.6666 13.5483C15.4415 13.1732 15.4074 12.7135 15.5747 12.3093C15.742 11.905 16.091 11.6039 16.5154 11.4976Z" stroke="white" stroke-width="1.5" stroke-linecap="round" stroke-linejoin="round"/>
<path d="M11.7036 8.93625L9.57491 11.0649L8.29883 9.78772" stroke="white" stroke-width="1.5" stroke-linecap="round" stroke-linejoin="round"/>
</svg>
