<svg width="20" height="20" viewBox="0 0 20 20" fill="none" xmlns="http://www.w3.org/2000/svg">
<path fill-rule="evenodd" clip-rule="evenodd" d="M14.167 17.5H5.83366C4.91283 17.5 4.16699 16.7542 4.16699 15.8333V9.16667C4.16699 8.24583 4.91283 7.5 5.83366 7.5H14.167C15.0878 7.5 15.8337 8.24583 15.8337 9.16667V15.8333C15.8337 16.7542 15.0878 17.5 14.167 17.5Z" stroke="white" stroke-width="1.5" stroke-linecap="round" stroke-linejoin="round"/>
<path d="M10.0007 14.2416V12.0833" stroke="white" stroke-width="1.5" stroke-linecap="round" stroke-linejoin="round"/>
<path d="M10.4419 11.0164C10.686 11.2605 10.686 11.6562 10.4419 11.9003C10.1979 12.1444 9.80214 12.1444 9.55806 11.9003C9.31398 11.6562 9.31398 11.2605 9.55806 11.0164C9.80214 10.7724 10.1979 10.7724 10.4419 11.0164" stroke="white" stroke-width="1.5" stroke-linecap="round" stroke-linejoin="round"/>
<path d="M6.66699 7.5V5.83333V5.83333C6.66699 3.9925 8.15949 2.5 10.0003 2.5V2.5C11.8412 2.5 13.3337 3.9925 13.3337 5.83333V5.83333V7.5" stroke="white" stroke-width="1.5" stroke-linecap="round" stroke-linejoin="round"/>
</svg>
