<svg width="20" height="20" viewBox="0 0 20 20" fill="none" xmlns="http://www.w3.org/2000/svg">
<path d="M13.3332 1.66699V5.00033" stroke="#ABB5BE" stroke-width="1.5" stroke-linecap="round" stroke-linejoin="round"/>
<path d="M6.66667 1.66699V5.00033" stroke="#ABB5BE" stroke-width="1.5" stroke-linecap="round" stroke-linejoin="round"/>
<path d="M2.5 7.49967H17.5" stroke="#ABB5BE" stroke-width="1.5" stroke-linecap="round" stroke-linejoin="round"/>
<path fill-rule="evenodd" clip-rule="evenodd" d="M15.8333 3.33301H4.16667C3.24583 3.33301 2.5 4.07884 2.5 4.99967V15.833C2.5 16.7538 3.24583 17.4997 4.16667 17.4997H15.8333C16.7542 17.4997 17.5 16.7538 17.5 15.833V4.99967C17.5 4.07884 16.7542 3.33301 15.8333 3.33301Z" stroke="#ABB5BE" stroke-width="1.5" stroke-linecap="round" stroke-linejoin="round"/>
<path d="M5.84406 10.6077C5.72906 10.6077 5.63573 10.7011 5.63656 10.8161C5.63656 10.9311 5.72989 11.0244 5.84489 11.0244C5.95989 11.0244 6.05322 10.9311 6.05322 10.8161C6.05322 10.7011 5.95989 10.6077 5.84406 10.6077" stroke="#ABB5BE" stroke-width="1.5" stroke-linecap="round" stroke-linejoin="round"/>
<path d="M10.0111 10.6077C9.89605 10.6077 9.80272 10.7011 9.80355 10.8161C9.80355 10.9311 9.89688 11.0244 10.0119 11.0244C10.1269 11.0244 10.2202 10.9311 10.2202 10.8161C10.2202 10.7011 10.1269 10.6077 10.0111 10.6077" stroke="#ABB5BE" stroke-width="1.5" stroke-linecap="round" stroke-linejoin="round"/>
<path d="M14.1776 10.6077C14.0626 10.6077 13.9692 10.7011 13.9701 10.8161C13.9701 10.9311 14.0634 11.0244 14.1784 11.0244C14.2934 11.0244 14.3867 10.9311 14.3867 10.8161C14.3867 10.7011 14.2934 10.6077 14.1776 10.6077" stroke="#ABB5BE" stroke-width="1.5" stroke-linecap="round" stroke-linejoin="round"/>
<path d="M5.84406 13.9408C5.72906 13.9408 5.63573 14.0341 5.63656 14.1491C5.63656 14.2641 5.72989 14.3574 5.84489 14.3574C5.95989 14.3574 6.05322 14.2641 6.05322 14.1491C6.05322 14.0341 5.95989 13.9408 5.84406 13.9408" stroke="#ABB5BE" stroke-width="1.5" stroke-linecap="round" stroke-linejoin="round"/>
<path d="M10.0111 13.9408C9.89605 13.9408 9.80272 14.0341 9.80355 14.1491C9.80355 14.2641 9.89688 14.3574 10.0119 14.3574C10.1269 14.3574 10.2202 14.2641 10.2202 14.1491C10.2202 14.0341 10.1269 13.9408 10.0111 13.9408" stroke="#ABB5BE" stroke-width="1.5" stroke-linecap="round" stroke-linejoin="round"/>
</svg>
