<svg width="25" height="24" viewBox="0 0 25 24" fill="none" xmlns="http://www.w3.org/2000/svg">
<path fill-rule="evenodd" clip-rule="evenodd" d="M18.1661 13.395C19.8891 11.978 21.0866 9.95301 21.3827 7.62401C21.4524 7.07701 21.0603 6.57701 20.5055 6.50801C19.9598 6.43401 19.4464 6.82701 19.3777 7.37501C18.9341 10.867 15.8893 13.5 12.2957 13.5C8.70214 13.5 5.65731 10.867 5.21367 7.37501C5.14495 6.82701 4.62957 6.43801 4.08487 6.50801C3.53108 6.57701 3.13898 7.07701 3.20871 7.62401C3.50481 9.95301 4.70233 11.978 6.42534 13.395L4.08891 15.707C3.69581 16.096 3.69581 16.732 4.08891 17.121C4.48101 17.51 5.12474 17.51 5.51785 17.121L8.14835 14.518C9.11243 15 10.1705 15.318 11.2851 15.439V19C11.2851 19.55 11.7399 20 12.2957 20C12.8515 20 13.3063 19.55 13.3063 19V15.439C14.4199 15.318 15.479 15 16.442 14.518L19.0736 17.121C19.4667 17.51 20.1094 17.51 20.5025 17.121C20.8956 16.732 20.8956 16.096 20.5025 15.707L18.1661 13.395Z" fill="#757D8A"/>
</svg>
