<svg width="25" height="26" viewBox="0 0 25 26" fill="none" xmlns="http://www.w3.org/2000/svg">
<path d="M19.3022 13.0002C19.3022 13.2765 19.0782 13.5004 18.802 13.5004C18.5257 13.5004 18.3018 13.2765 18.3018 13.0002C18.3018 12.724 18.5257 12.5 18.802 12.5C19.0782 12.5 19.3022 12.724 19.3022 13.0002" stroke="#008BA2" stroke-width="1.5" stroke-linecap="round" stroke-linejoin="round"/>
<path d="M13.3002 13.0002C13.3002 13.2765 13.0763 13.5004 12.8 13.5004C12.5238 13.5004 12.2998 13.2765 12.2998 13.0002C12.2998 12.724 12.5238 12.5 12.8 12.5C13.0763 12.5 13.3002 12.724 13.3002 13.0002" stroke="#008BA2" stroke-width="1.5" stroke-linecap="round" stroke-linejoin="round"/>
<path d="M7.29729 13.0002C7.29729 13.2765 7.07334 13.5004 6.79708 13.5004C6.52083 13.5004 6.29688 13.2765 6.29688 13.0002C6.29688 12.724 6.52083 12.5 6.79708 12.5C7.07334 12.5 7.29729 12.724 7.29729 13.0002" stroke="#008BA2" stroke-width="1.5" stroke-linecap="round" stroke-linejoin="round"/>
</svg>
