<svg width="20" height="20" viewBox="0 0 20 20" fill="none" xmlns="http://www.w3.org/2000/svg">
<path d="M14.167 5.83332H17.5003" stroke="white" stroke-width="1.5" stroke-linecap="round" stroke-linejoin="round"/>
<path d="M15.8337 7.49999V4.16666" stroke="white" stroke-width="1.5" stroke-linecap="round" stroke-linejoin="round"/>
<path d="M13.3337 15.8333V16.6667C13.3337 17.1267 12.9603 17.5 12.5003 17.5H2.50033C2.04033 17.5 1.66699 17.1267 1.66699 16.6667V15.8333V15.82C1.66699 13.2983 4.54866 11.66 7.50033 11.66C10.452 11.66 13.3337 13.2992 13.3337 15.82" stroke="white" stroke-width="1.5" stroke-linecap="round" stroke-linejoin="round"/>
<path d="M9.55752 4.18565C10.6939 5.32207 10.6939 7.16458 9.55752 8.30101C8.4211 9.43743 6.57859 9.43743 5.44216 8.30101C4.30574 7.16458 4.30574 5.32207 5.44216 4.18565C6.57859 3.04922 8.4211 3.04922 9.55752 4.18565" stroke="white" stroke-width="1.5" stroke-linecap="round" stroke-linejoin="round"/>
</svg>
