<svg width="20" height="21" viewBox="0 0 20 21" fill="none" xmlns="http://www.w3.org/2000/svg">
<path d="M13.3337 2.1665V5.49984" stroke="#ABB5BE" stroke-width="1.5" stroke-linecap="round" stroke-linejoin="round"/>
<path d="M6.66667 2.1665V5.49984" stroke="#ABB5BE" stroke-width="1.5" stroke-linecap="round" stroke-linejoin="round"/>
<path d="M2.5 8.00016H17.5" stroke="#ABB5BE" stroke-width="1.5" stroke-linecap="round" stroke-linejoin="round"/>
<path fill-rule="evenodd" clip-rule="evenodd" d="M15.8333 3.8335H4.16667C3.24583 3.8335 2.5 4.57933 2.5 5.50016V16.3335C2.5 17.2543 3.24583 18.0002 4.16667 18.0002H15.8333C16.7542 18.0002 17.5 17.2543 17.5 16.3335V5.50016C17.5 4.57933 16.7542 3.8335 15.8333 3.8335Z" stroke="#ABB5BE" stroke-width="1.5" stroke-linecap="round" stroke-linejoin="round"/>
<path d="M5.84455 11.1073C5.72955 11.1073 5.63621 11.2006 5.63705 11.3156C5.63705 11.4306 5.73038 11.5239 5.84538 11.5239C5.96038 11.5239 6.05371 11.4306 6.05371 11.3156C6.05371 11.2006 5.96038 11.1073 5.84455 11.1073" stroke="#ABB5BE" stroke-width="1.5" stroke-linecap="round" stroke-linejoin="round"/>
<path d="M10.0106 11.1073C9.89556 11.1073 9.80223 11.2006 9.80306 11.3156C9.80306 11.4306 9.8964 11.5239 10.0114 11.5239C10.1264 11.5239 10.2197 11.4306 10.2197 11.3156C10.2197 11.2006 10.1264 11.1073 10.0106 11.1073" stroke="#ABB5BE" stroke-width="1.5" stroke-linecap="round" stroke-linejoin="round"/>
<path d="M14.1776 11.1073C14.0626 11.1073 13.9692 11.2006 13.9701 11.3156C13.9701 11.4306 14.0634 11.5239 14.1784 11.5239C14.2934 11.5239 14.3867 11.4306 14.3867 11.3156C14.3867 11.2006 14.2934 11.1073 14.1776 11.1073" stroke="#ABB5BE" stroke-width="1.5" stroke-linecap="round" stroke-linejoin="round"/>
<path d="M5.84455 14.4408C5.72955 14.4408 5.63621 14.5341 5.63705 14.6491C5.63705 14.7641 5.73038 14.8574 5.84538 14.8574C5.96038 14.8574 6.05371 14.7641 6.05371 14.6491C6.05371 14.5341 5.96038 14.4408 5.84455 14.4408" stroke="#ABB5BE" stroke-width="1.5" stroke-linecap="round" stroke-linejoin="round"/>
<path d="M10.0106 14.4408C9.89556 14.4408 9.80223 14.5341 9.80306 14.6491C9.80306 14.7641 9.8964 14.8574 10.0114 14.8574C10.1264 14.8574 10.2197 14.7641 10.2197 14.6491C10.2197 14.5341 10.1264 14.4408 10.0106 14.4408" stroke="#ABB5BE" stroke-width="1.5" stroke-linecap="round" stroke-linejoin="round"/>
</svg>
