<svg width="17" height="15" viewBox="0 0 17 15" fill="none" xmlns="http://www.w3.org/2000/svg">
<path d="M16.1136 12.8086L9.55109 1.40625C9.05891 0.558594 7.77375 0.53125 7.28156 1.40625L0.719062 12.8086C0.226875 13.6562 0.855781 14.75 1.8675 14.75H14.9652C15.9769 14.75 16.6058 13.6836 16.1136 12.8086ZM8.43 10.4297C9.11359 10.4297 9.68781 11.0039 9.68781 11.6875C9.68781 12.3984 9.11359 12.9453 8.43 12.9453C7.71906 12.9453 7.17219 12.3984 7.17219 11.6875C7.17219 11.0039 7.71906 10.4297 8.43 10.4297ZM7.22687 5.91797C7.19953 5.72656 7.36359 5.5625 7.555 5.5625H9.27766C9.46906 5.5625 9.63312 5.72656 9.60578 5.91797L9.41437 9.63672C9.38703 9.82812 9.25031 9.9375 9.08625 9.9375H7.74641C7.58234 9.9375 7.44562 9.82812 7.41828 9.63672L7.22687 5.91797Z" fill="#F34C41"/>
</svg>
