<svg width="17" height="18" viewBox="0 0 17 18" fill="none" xmlns="http://www.w3.org/2000/svg">
<path fill-rule="evenodd" clip-rule="evenodd" d="M9.4852 9.93342L15.5564 9.93342C16.1094 9.93342 16.5563 9.46542 16.5563 8.88635C16.5563 8.30728 16.1094 7.83929 15.5564 7.83929L9.4852 7.83929L9.4852 1.48137C9.4852 0.902298 9.03831 0.434302 8.48535 0.434302C7.93239 0.434302 7.4855 0.902298 7.4855 1.48137L7.4855 7.83929L1.41429 7.83929C0.861336 7.83929 0.414446 8.30728 0.414446 8.88635C0.414446 9.17515 0.526168 9.43728 0.707188 9.62685C0.888207 9.81642 1.13852 9.93342 1.41429 9.93342L7.4855 9.93342L7.4855 16.2913C7.4855 16.5801 7.59723 16.8423 7.77825 17.0318C7.95926 17.2214 8.20958 17.3384 8.48535 17.3384C9.03831 17.3384 9.4852 16.8704 9.4852 16.2913L9.4852 9.93342Z" fill="#757D8A"/>
</svg>
