<svg width="25" height="24" viewBox="0 0 25 24" fill="none" xmlns="http://www.w3.org/2000/svg">
<g id=" Outline / eye">
<path id="Union" fill-rule="evenodd" clip-rule="evenodd" d="M12.2956 13.5C11.4599 13.5 10.7798 12.827 10.7798 12C10.7798 11.173 11.4599 10.5 12.2956 10.5C13.1314 10.5 13.8115 11.173 13.8115 12C13.8115 12.827 13.1314 13.5 12.2956 13.5M12.2956 8.49999C10.3452 8.49999 8.75865 10.07 8.75865 12C8.75865 13.93 10.3452 15.5 12.2956 15.5C14.246 15.5 15.8326 13.93 15.8326 12C15.8326 10.07 14.246 8.49999 12.2956 8.49999M12.5176 16.9976C8.16616 17.0976 5.32749 13.4146 4.38564 11.9956C5.42248 10.3906 8.03378 7.10459 12.074 7.00259C16.4083 6.89359 19.2632 10.5856 20.205 12.0046C19.1692 13.6096 16.5569 16.8956 12.5176 16.9976M22.2676 11.5026C21.6228 10.3906 18.0616 4.81659 12.0225 5.00359C6.43608 5.14359 3.18711 10.0136 2.32409 11.5026C2.14522 11.8106 2.14522 12.1896 2.32409 12.4976C2.95974 13.5946 6.39565 18.9996 12.3206 18.9996C12.4035 18.9996 12.4863 18.9986 12.5692 18.9966C18.1546 18.8556 21.4045 13.9866 22.2676 12.4976C22.4454 12.1896 22.4454 11.8106 22.2676 11.5026" fill="#757D8A"/>
</g>
</svg>
