<svg width="20" height="20" viewBox="0 0 20 20" fill="none" xmlns="http://www.w3.org/2000/svg">
<path fill-rule="evenodd" clip-rule="evenodd" d="M17.1875 4.29083C17.1875 3.47417 16.5258 2.8125 15.7092 2.8125H4.29083C3.47417 2.8125 2.8125 3.47417 2.8125 4.29083V15.7092C2.8125 16.5258 3.47417 17.1875 4.29083 17.1875H15.7092C16.5258 17.1875 17.1875 16.5258 17.1875 15.7092V4.29083V4.29083Z" stroke="white" stroke-width="1.5" stroke-linecap="round" stroke-linejoin="round"/>
<path d="M14.0747 10H9.69141" stroke="white" stroke-width="1.5" stroke-linecap="round" stroke-linejoin="round"/>
<path d="M6.39699 9.85267C6.47835 9.93403 6.47835 10.0659 6.39699 10.1473C6.31563 10.2287 6.18372 10.2287 6.10236 10.1473C6.021 10.0659 6.021 9.93402 6.10236 9.85267C6.18372 9.77131 6.31563 9.77131 6.39699 9.85267" stroke="white" stroke-width="1.5" stroke-linecap="round" stroke-linejoin="round"/>
<path d="M14.0747 6.25001H9.69141" stroke="white" stroke-width="1.5" stroke-linecap="round" stroke-linejoin="round"/>
<path d="M6.39699 6.10517C6.47835 6.18653 6.47835 6.31844 6.39699 6.3998C6.31563 6.48115 6.18372 6.48115 6.10236 6.3998C6.021 6.31844 6.021 6.18653 6.10236 6.10517C6.18372 6.02381 6.31563 6.02381 6.39699 6.10517" stroke="white" stroke-width="1.5" stroke-linecap="round" stroke-linejoin="round"/>
<path d="M14.1499 13.75H9.7666" stroke="white" stroke-width="1.5" stroke-linecap="round" stroke-linejoin="round"/>
<path d="M6.47023 13.606C6.55159 13.6874 6.55159 13.8193 6.47023 13.9006C6.38887 13.982 6.25696 13.982 6.1756 13.9006C6.09424 13.8193 6.09424 13.6874 6.1756 13.606C6.25696 13.5246 6.38887 13.5246 6.47023 13.606" stroke="white" stroke-width="1.5" stroke-linecap="round" stroke-linejoin="round"/>
</svg>
