<svg width="172" height="172" viewBox="0 0 172 172" fill="none" xmlns="http://www.w3.org/2000/svg">
<circle cx="5.5" cy="5.5" r="5.5" fill="#005667"/>
<circle cx="28.5" cy="5.5" r="5.5" fill="#005667"/>
<circle cx="51.5" cy="5.5" r="5.5" fill="#005667"/>
<circle cx="74.5" cy="5.5" r="5.5" fill="#005667"/>
<circle cx="97.5" cy="5.5" r="5.5" fill="#005667"/>
<circle cx="120.5" cy="5.5" r="5.5" fill="#005667"/>
<circle cx="143.5" cy="5.5" r="5.5" fill="#005667"/>
<circle cx="166.5" cy="5.5" r="5.5" fill="#005667"/>
<circle cx="5.5" cy="28.5" r="5.5" fill="#005667"/>
<circle cx="28.5" cy="28.5" r="5.5" fill="#005667"/>
<circle cx="51.5" cy="28.5" r="5.5" fill="#005667"/>
<circle cx="74.5" cy="28.5" r="5.5" fill="#005667"/>
<circle cx="97.5" cy="28.5" r="5.5" fill="#005667"/>
<circle cx="120.5" cy="28.5" r="5.5" fill="#005667"/>
<circle cx="143.5" cy="28.5" r="5.5" fill="#005667"/>
<circle cx="166.5" cy="28.5" r="5.5" fill="#005667"/>
<circle cx="5.5" cy="51.5" r="5.5" fill="#005667"/>
<circle cx="28.5" cy="51.5" r="5.5" fill="#005667"/>
<circle cx="51.5" cy="51.5" r="5.5" fill="#005667"/>
<circle cx="74.5" cy="51.5" r="5.5" fill="#005667"/>
<circle cx="97.5" cy="51.5" r="5.5" fill="#005667"/>
<circle cx="120.5" cy="51.5" r="5.5" fill="#005667"/>
<circle cx="143.5" cy="51.5" r="5.5" fill="#005667"/>
<circle cx="166.5" cy="51.5" r="5.5" fill="#005667"/>
<circle cx="5.5" cy="74.5" r="5.5" fill="#005667"/>
<circle cx="28.5" cy="74.5" r="5.5" fill="#005667"/>
<circle cx="51.5" cy="74.5" r="5.5" fill="#005667"/>
<circle cx="74.5" cy="74.5" r="5.5" fill="#005667"/>
<circle cx="97.5" cy="74.5" r="5.5" fill="#005667"/>
<circle cx="120.5" cy="74.5" r="5.5" fill="#005667"/>
<circle cx="143.5" cy="74.5" r="5.5" fill="#005667"/>
<circle cx="166.5" cy="74.5" r="5.5" fill="#005667"/>
<circle cx="5.5" cy="97.5" r="5.5" fill="#005667"/>
<circle cx="28.5" cy="97.5" r="5.5" fill="#005667"/>
<circle cx="51.5" cy="97.5" r="5.5" fill="#005667"/>
<circle cx="74.5" cy="97.5" r="5.5" fill="#005667"/>
<circle cx="97.5" cy="97.5" r="5.5" fill="#005667"/>
<circle cx="120.5" cy="97.5" r="5.5" fill="#005667"/>
<circle cx="143.5" cy="97.5" r="5.5" fill="#005667"/>
<circle cx="166.5" cy="97.5" r="5.5" fill="#005667"/>
<circle cx="5.5" cy="120.5" r="5.5" fill="#005667"/>
<circle cx="28.5" cy="120.5" r="5.5" fill="#005667"/>
<circle cx="51.5" cy="120.5" r="5.5" fill="#005667"/>
<circle cx="74.5" cy="120.5" r="5.5" fill="#005667"/>
<circle cx="97.5" cy="120.5" r="5.5" fill="#005667"/>
<circle cx="120.5" cy="120.5" r="5.5" fill="#005667"/>
<circle cx="143.5" cy="120.5" r="5.5" fill="#005667"/>
<circle cx="166.5" cy="120.5" r="5.5" fill="#005667"/>
<circle cx="5.5" cy="143.5" r="5.5" fill="#005667"/>
<circle cx="28.5" cy="143.5" r="5.5" fill="#005667"/>
<circle cx="51.5" cy="143.5" r="5.5" fill="#005667"/>
<circle cx="74.5" cy="143.5" r="5.5" fill="#005667"/>
<circle cx="97.5" cy="143.5" r="5.5" fill="#005667"/>
<circle cx="120.5" cy="143.5" r="5.5" fill="#005667"/>
<circle cx="143.5" cy="143.5" r="5.5" fill="#005667"/>
<circle cx="166.5" cy="143.5" r="5.5" fill="#005667"/>
<circle cx="5.5" cy="166.5" r="5.5" fill="#005667"/>
<circle cx="28.5" cy="166.5" r="5.5" fill="#005667"/>
<circle cx="51.5" cy="166.5" r="5.5" fill="#005667"/>
<circle cx="74.5" cy="166.5" r="5.5" fill="#005667"/>
<circle cx="97.5" cy="166.5" r="5.5" fill="#005667"/>
<circle cx="120.5" cy="166.5" r="5.5" fill="#005667"/>
<circle cx="143.5" cy="166.5" r="5.5" fill="#005667"/>
<circle cx="166.5" cy="166.5" r="5.5" fill="#005667"/>
</svg>
