<svg width="67" height="52" viewBox="0 0 67 52" fill="none" xmlns="http://www.w3.org/2000/svg">
<path d="M67 2.58848C66.4719 3.74569 65.5711 4.17202 64.2975 4.14157C61.0359 4.08066 57.8053 4.14157 54.5437 4.11112C53.9845 4.11112 53.7982 4.29384 53.6428 4.78108C50.4433 14.9218 47.2128 25.0321 43.9822 35.1728C43.5473 36.5432 42.9261 37 41.4661 37C30.5629 37 19.6598 37 8.7566 37C7.26557 37 6.61325 36.5128 6.24049 35.0815C4.19032 27.1029 2.17122 19.1243 0.121048 11.1761C-0.344899 9.34898 0.555932 8.25268 2.45078 8.25268C11.3348 8.25268 20.2189 8.25268 29.0719 8.25268C30.6872 8.25268 31.7433 9.59259 31.2463 10.9934C30.9357 11.8156 30.3144 12.2724 29.4447 12.3638C29.2272 12.3638 29.0098 12.3638 28.7923 12.3638C21.0576 12.3638 13.3539 12.3638 5.61922 12.3638H4.74946C6.48899 19.2156 8.22853 26.037 9.96807 32.8889H10.6825C20.3121 32.8889 29.9727 32.8889 39.6023 32.8889C40.1925 32.8889 40.3789 32.7062 40.5342 32.1885C43.7337 22.0477 46.9643 11.9374 50.1948 1.79671C50.6297 0.456791 51.251 0 52.6799 0C56.5317 0 60.4146 0.0304527 64.2664 0C65.54 0 66.4409 0.395891 66.9689 1.55309V2.58848H67Z" fill="#0D344F"/>
<path d="M14.4678 51.9998C10.8962 51.9998 7.96809 49.2672 8.00026 45.9703C8.00026 42.6734 10.9605 39.9705 14.5322 40.0002C18.1038 40.0002 21.0319 42.7328 20.9997 46.0297C20.9997 49.3266 18.0395 52.0295 14.4678 51.9998ZM16.6559 46C16.6559 44.901 15.6905 44.01 14.5 44.01C13.3416 44.01 12.3441 44.901 12.312 45.9703C12.312 47.0693 13.3095 48.0197 14.5 47.99C15.6905 47.99 16.6559 47.0693 16.6559 46Z" fill="#0D344F"/>
<path d="M42 45.9852C42 49.2741 39.079 51.9704 35.516 52C31.9531 52 29.0321 49.3037 29 46.0148C29 42.7259 31.921 40.0296 35.484 40C39.0469 40 41.9679 42.6963 42 45.9852ZM35.5481 44C34.3926 44 33.3654 44.8889 33.3654 45.9556C33.3654 47.0518 34.2963 47.9704 35.4519 48C36.6395 48.0296 37.6667 47.1111 37.6667 46.0148C37.6667 44.9185 36.7037 44.0296 35.5481 44Z" fill="#0D344F"/>
</svg>
