<svg width="112" height="44" viewBox="0 0 112 44" fill="none" xmlns="http://www.w3.org/2000/svg">
<path d="M16.7863 9.92135C15.7226 10.5731 13.6252 12.0671 12.2235 14.8245C10.305 18.6046 10.9114 22.5753 11.4283 24.0192C12.3329 26.5159 14.9771 28.6215 13.7047 30.6269C12.8001 32.0407 10.6231 31.8802 8.9531 31.3588C5.8914 30.4063 3.32673 28.0099 2.29291 26.2752C-0.371159 21.8233 0.901236 14.7643 5.67271 11.265C10.4641 7.74551 16.2296 9.72081 16.7863 9.92135Z" fill="url(#paint0_linear_36_1562)"/>
<path d="M31.2995 8.45744C32.7906 4.52689 25.6036 1.98006 19.1322 2.00012C10.4243 2.0302 4.70848 8.21679 4.29097 8.71813C3.23727 9.99155 -1.01729 15.1153 0.225277 21.4623C0.692484 23.8688 1.79589 25.6536 2.60107 26.7264C2.3625 25.6836 2.16369 24.1595 2.54143 22.4249C3.80388 16.5491 10.7225 13.6213 13.7942 12.3178C14.9174 11.8365 15.991 11.4655 16.995 11.1547C19.7187 10.3224 22.5518 9.91133 25.3948 9.84115C29.3412 9.7509 30.6633 10.142 31.3095 8.44741L31.2995 8.45744Z" fill="url(#paint1_linear_36_1562)"/>
<path d="M22.2235 35.0786C23.2871 34.4268 25.3846 32.9328 26.7862 30.1754C28.7047 26.3953 28.0984 22.4246 27.5814 20.9808C26.6768 18.4841 24.0327 16.3784 25.305 14.373C26.2096 12.9593 28.3866 13.1197 30.0566 13.6411C33.1183 14.5936 35.683 16.9901 36.7168 18.7247C39.3809 23.1767 38.1085 30.2356 33.337 33.735C28.5457 37.2544 22.7801 35.2791 22.2235 35.0786Z" fill="url(#paint2_linear_36_1562)"/>
<path d="M7.70049 36.5424C6.2094 40.473 13.3964 43.0198 19.8677 42.9998C28.5757 42.9697 34.2915 36.7831 34.709 36.2817C35.7627 35.0083 40.0173 29.8846 38.7747 23.5376C38.3075 21.1311 37.2041 19.3463 36.3989 18.2735C36.6375 19.3162 36.8363 20.8403 36.4586 22.575C35.1961 28.4507 28.2775 31.3786 25.2058 32.6821C24.0826 33.1634 23.009 33.5344 22.005 33.8452C19.2813 34.6774 16.4482 35.0885 13.6052 35.1587C9.65878 35.249 8.33668 34.8579 7.69055 36.5525L7.70049 36.5424Z" fill="url(#paint3_linear_36_1562)"/>
<path d="M48.4941 25.7216L52.8887 25.2943C53.1532 26.7693 53.6872 27.8527 54.4908 28.5444C55.3046 29.2362 56.3982 29.582 57.7715 29.582C59.2262 29.582 60.3197 29.2769 61.0521 28.6665C61.7947 28.046 62.166 27.3237 62.166 26.4998C62.166 25.9708 62.0083 25.5232 61.693 25.157C61.3878 24.7806 60.8487 24.4551 60.0756 24.1804C59.5466 23.9973 58.3411 23.6718 56.4592 23.2039C54.0382 22.6037 52.3394 21.8662 51.3628 20.9913C49.9895 19.7605 49.3029 18.26 49.3029 16.49C49.3029 15.3507 49.6233 14.2876 50.2642 13.3009C50.9152 12.304 51.846 11.5461 53.0565 11.0273C54.2772 10.5085 55.7472 10.2491 57.4663 10.2491C60.2739 10.2491 62.3847 10.8646 63.7987 12.0955C65.2229 13.3263 65.9705 14.9692 66.0417 17.024L61.5251 17.2224C61.3319 16.0729 60.9148 15.2489 60.2739 14.7505C59.6432 14.2419 58.6921 13.9875 57.4205 13.9875C56.1083 13.9875 55.0809 14.2571 54.3383 14.7963C53.8601 15.1421 53.6211 15.605 53.6211 16.1848C53.6211 16.7138 53.8449 17.1665 54.2925 17.5428C54.8621 18.021 56.2456 18.5194 58.4429 19.0382C60.6401 19.557 62.2627 20.0962 63.3104 20.6556C64.3684 21.205 65.1923 21.9628 65.7823 22.9292C66.3825 23.8854 66.6826 25.0705 66.6826 26.4845C66.6826 27.7662 66.3266 28.9666 65.6145 30.0856C64.9024 31.2045 63.8953 32.0387 62.5933 32.588C61.2912 33.1272 59.6687 33.3967 57.7257 33.3967C54.8977 33.3967 52.7259 32.7457 51.2102 31.4436C49.6945 30.1313 48.7891 28.224 48.4941 25.7216ZM69.5665 21.9526C69.5665 19.674 69.9073 17.7616 70.5889 16.2153C71.0975 15.076 71.7892 14.0537 72.6641 13.1483C73.5491 12.243 74.5155 11.5716 75.5632 11.1342C76.9569 10.5441 78.5641 10.2491 80.385 10.2491C83.6809 10.2491 86.3156 11.2715 88.2891 13.3162C90.2727 15.3608 91.2645 18.2041 91.2645 21.8458C91.2645 25.4571 90.2829 28.285 88.3196 30.3297C86.3563 32.3642 83.7318 33.3815 80.446 33.3815C77.1196 33.3815 74.4748 32.3693 72.5115 30.345C70.5482 28.3105 69.5665 25.513 69.5665 21.9526ZM74.2205 21.8C74.2205 24.333 74.8054 26.2556 75.9752 27.5679C77.1451 28.87 78.6302 29.521 80.4308 29.521C82.2313 29.521 83.7063 28.875 84.8558 27.5831C86.0155 26.281 86.5953 24.333 86.5953 21.739C86.5953 19.1755 86.0308 17.2631 84.9016 16.0017C83.7826 14.7403 82.2924 14.1096 80.4308 14.1096C78.5692 14.1096 77.0688 14.7505 75.9294 16.0322C74.7901 17.3038 74.2205 19.2264 74.2205 21.8ZM94.9266 33V10.8137H99.4432V29.2311H110.674V33H94.9266Z" fill="white"/>
<defs>
<linearGradient id="paint0_linear_36_1562" x1="5.07693" y1="28.6167" x2="14.885" y2="9.96753" gradientUnits="userSpaceOnUse">
<stop stop-color="#97C9C0"/>
<stop offset="0.35" stop-color="#BBDBD6"/>
<stop offset="0.92" stop-color="white"/>
</linearGradient>
<linearGradient id="paint1_linear_36_1562" x1="31.558" y1="7.55502" x2="-0.577395" y2="17.3061" gradientUnits="userSpaceOnUse">
<stop stop-color="#4D6F82"/>
<stop offset="1" stop-color="#304855"/>
</linearGradient>
<linearGradient id="paint2_linear_36_1562" x1="33.9187" y1="16.3961" x2="24.1107" y2="35.0452" gradientUnits="userSpaceOnUse">
<stop stop-color="#97C9C0"/>
<stop offset="0.35" stop-color="#BBDBD6"/>
<stop offset="0.92" stop-color="white"/>
</linearGradient>
<linearGradient id="paint3_linear_36_1562" x1="7.44203" y1="37.4449" x2="39.5774" y2="27.6938" gradientUnits="userSpaceOnUse">
<stop stop-color="#4D6F82"/>
<stop offset="1" stop-color="#304855"/>
</linearGradient>
</defs>
</svg>
