<svg width="174" height="48" viewBox="0 0 174 48" fill="none" xmlns="http://www.w3.org/2000/svg">
<path d="M64.988 13.792H70.504L73.836 25.244C74.06 26.028 74.3587 27.3067 74.732 29.08H74.872C75.208 27.1947 75.4693 25.916 75.656 25.244L79.016 13.792H84.336V33H80.752V20.596C80.752 20.1293 80.7987 19.0467 80.892 17.348H80.724C80.5747 17.9827 80.388 18.692 80.164 19.476L76.216 33H72.912L68.992 19.476C68.8613 19.0467 68.7307 18.5613 68.6 18.02L68.432 17.348H68.292C68.3667 19.028 68.404 20.1107 68.404 20.596V33H64.988V13.792ZM92.9602 33.336C89.7869 33.336 88.2002 31.628 88.2002 28.212V18.272H91.5602V27.624C91.5602 28.632 91.7842 29.3507 92.2322 29.78C92.6989 30.2093 93.3802 30.424 94.2762 30.424C95.2096 30.424 95.9936 30.088 96.6282 29.416C97.2629 28.744 97.5802 27.8853 97.5802 26.84V18.272H100.94V33H98.1682L97.8882 31.04H97.6922C97.1509 31.768 96.4789 32.3373 95.6762 32.748C94.8922 33.14 93.9869 33.336 92.9602 33.336ZM110.427 33.336C108.392 33.336 106.815 32.916 105.695 32.076C104.593 31.236 104.043 30.144 104.043 28.8C104.043 28.632 104.043 28.52 104.043 28.464C104.061 28.408 104.071 28.3707 104.071 28.352H107.347V28.576C107.365 29.304 107.673 29.8453 108.271 30.2C108.887 30.536 109.652 30.704 110.567 30.704C111.388 30.704 112.088 30.5733 112.667 30.312C113.245 30.032 113.535 29.6213 113.535 29.08C113.535 28.6507 113.376 28.3053 113.059 28.044C112.741 27.764 112.349 27.5493 111.883 27.4C111.416 27.232 110.753 27.0453 109.895 26.84C108.737 26.56 107.785 26.28 107.039 26C106.311 25.72 105.685 25.2813 105.163 24.684C104.64 24.0867 104.379 23.3027 104.379 22.332C104.379 20.932 104.957 19.8493 106.115 19.084C107.272 18.3187 108.775 17.936 110.623 17.936C111.761 17.936 112.779 18.104 113.675 18.44C114.571 18.776 115.261 19.252 115.747 19.868C116.251 20.4653 116.503 21.156 116.503 21.94L116.475 22.556H113.199V22.444C113.199 21.8653 112.956 21.4173 112.471 21.1C112.004 20.764 111.323 20.596 110.427 20.596C109.549 20.596 108.887 20.736 108.439 21.016C107.991 21.2773 107.767 21.6227 107.767 22.052C107.767 22.5747 108.037 22.9667 108.579 23.228C109.139 23.4707 109.988 23.7133 111.127 23.956C112.359 24.236 113.348 24.5253 114.095 24.824C114.86 25.104 115.523 25.552 116.083 26.168C116.643 26.784 116.923 27.6147 116.923 28.66C116.923 30.284 116.335 31.4693 115.159 32.216C114.001 32.9627 112.424 33.336 110.427 33.336ZM123.618 33.336C122.367 33.336 121.462 32.9907 120.902 32.3C120.36 31.5907 120.09 30.7133 120.09 29.668V21.016H118.298V18.272H120.146L120.762 14.156H123.45V18.272H125.97V21.016H123.45V29.332C123.45 30.172 123.851 30.592 124.654 30.592H125.97V32.888C125.671 33 125.298 33.1027 124.85 33.196C124.402 33.2893 123.991 33.336 123.618 33.336Z" fill="white"/>
<path d="M134.606 33.336C132.292 33.336 130.574 32.7107 129.454 31.46C128.334 30.2093 127.774 28.268 127.774 25.636C127.774 23.004 128.334 21.0627 129.454 19.812C130.593 18.5613 132.31 17.936 134.606 17.936C136.604 17.936 138.144 18.4307 139.226 19.42C140.309 20.4093 140.85 21.8653 140.85 23.788H137.434C137.434 22.7427 137.201 21.9587 136.734 21.436C136.268 20.9133 135.54 20.652 134.55 20.652C133.393 20.652 132.544 21.0533 132.002 21.856C131.461 22.64 131.19 23.8533 131.19 25.496V25.832C131.19 27.4747 131.461 28.688 132.002 29.472C132.562 30.2373 133.458 30.62 134.69 30.62C135.642 30.62 136.361 30.3493 136.846 29.808C137.35 29.2667 137.602 28.492 137.602 27.484H140.85C140.85 29.332 140.3 30.7693 139.198 31.796C138.116 32.8227 136.585 33.336 134.606 33.336ZM150.065 33.336C147.639 33.336 145.819 32.7107 144.605 31.46C143.411 30.2093 142.813 28.268 142.813 25.636C142.813 23.004 143.411 21.0627 144.605 19.812C145.819 18.5613 147.639 17.936 150.065 17.936C152.492 17.936 154.303 18.5613 155.497 19.812C156.711 21.0627 157.317 23.004 157.317 25.636C157.317 28.268 156.711 30.2093 155.497 31.46C154.303 32.7107 152.492 33.336 150.065 33.336ZM150.065 30.592C151.391 30.592 152.352 30.2093 152.949 29.444C153.547 28.66 153.845 27.456 153.845 25.832V25.44C153.845 23.816 153.547 22.6213 152.949 21.856C152.352 21.072 151.391 20.68 150.065 20.68C148.721 20.68 147.751 21.072 147.153 21.856C146.575 22.6213 146.285 23.816 146.285 25.44V25.832C146.285 27.456 146.575 28.66 147.153 29.444C147.751 30.2093 148.721 30.592 150.065 30.592ZM159.524 32.048C159.524 31.0027 159.766 30.06 160.252 29.22C160.737 28.3613 161.325 27.6147 162.016 26.98C162.725 26.3453 163.649 25.608 164.788 24.768C165.758 24.04 166.524 23.4333 167.084 22.948C167.662 22.444 168.148 21.912 168.54 21.352C169.062 20.6053 169.324 19.7747 169.324 18.86C169.324 18.1507 169.081 17.544 168.596 17.04C168.129 16.5173 167.392 16.256 166.384 16.256C165.301 16.256 164.489 16.5173 163.948 17.04C163.425 17.544 163.164 18.2813 163.164 19.252V20.4H159.832C159.757 20.0827 159.72 19.7093 159.72 19.28C159.72 17.3387 160.364 15.8827 161.652 14.912C162.94 13.9413 164.573 13.456 166.552 13.456C168.082 13.456 169.305 13.7453 170.22 14.324C171.153 14.9027 171.806 15.6213 172.18 16.48C172.553 17.32 172.74 18.188 172.74 19.084C172.74 20.26 172.45 21.3333 171.872 22.304C171.312 23.256 170.64 24.068 169.856 24.74C169.072 25.412 168.064 26.196 166.832 27.092C166.346 27.428 165.87 27.7733 165.404 28.128C164.937 28.4827 164.564 28.8 164.284 29.08C163.966 29.3973 163.742 29.6867 163.612 29.948H172.852V33H159.524V32.048Z" fill="#00AAC5"/>
<path d="M18.4492 5.69799L25.8318 1L32.8787 5.69799" stroke="#00AAC5" stroke-width="2" stroke-linecap="round" stroke-linejoin="round"/>
<path d="M32.8799 41.9396L25.4973 46.6376L18.4504 41.9396" stroke="#00AAC5" stroke-width="2" stroke-linecap="round" stroke-linejoin="round"/>
<path d="M8.71812 13.7517L1 19.4564V28.5168L8.71812 33.8859" stroke="#00AAC5" stroke-width="2" stroke-linecap="round" stroke-linejoin="round"/>
<path d="M43.2819 33.8859L51 28.1812L51 19.1208L43.2819 13.7516" stroke="#00AAC5" stroke-width="2" stroke-linecap="round" stroke-linejoin="round"/>
<g clip-path="url(#clip0)">
<path d="M25.9999 26.1523C29.3394 26.1523 32.0466 23.4451 32.0466 20.1056C32.0466 16.7661 29.3394 14.0588 25.9999 14.0588C22.6603 14.0588 19.9531 16.7661 19.9531 20.1056C19.9531 23.4451 22.6603 26.1523 25.9999 26.1523Z" stroke="#00AAC5" stroke-width="1.5" stroke-linecap="round" stroke-linejoin="round"/>
<path d="M22.7259 25.1936L21.6807 33.063L25.9998 30.4715L30.3189 33.063L29.2737 25.1849" stroke="#00AAC5" stroke-width="1.5" stroke-linecap="round" stroke-linejoin="round"/>
</g>
<defs>
<clipPath id="clip0">
<rect width="20.7317" height="20.7317" fill="white" transform="translate(15.6338 13.1951)"/>
</clipPath>
</defs>
</svg>
