<?xml version="1.0" encoding="UTF-8"?>
<svg id="a" data-name="Camada 1" xmlns="http://www.w3.org/2000/svg" xmlns:xlink="http://www.w3.org/1999/xlink" viewBox="0 0 50.75 64.89">
  <defs>
    <style>
      .g {
        fill: url(#f);
      }

      .h {
        fill: #5b5b5d;
      }

      .i {
        fill: url(#e);
      }

      .j {
        fill: url(#d);
      }

      .k {
        fill: url(#c);
      }
    </style>
    <linearGradient id="c" data-name="Gradiente sem nome 26" x1="-401.59" y1="739.68" x2="-411.34" y2="721.02" gradientTransform="translate(-389.77 -709.08) rotate(179.95) scale(1 -1)" gradientUnits="userSpaceOnUse">
      <stop offset="0" stop-color="#a6a8ab"/>
      <stop offset=".35" stop-color="#c1c2c5"/>
      <stop offset=".92" stop-color="#fff"/>
    </linearGradient>
    <linearGradient id="d" data-name="Gradiente sem nome 14" x1="38.04" y1="59.94" x2="8.59" y2="46.33" gradientTransform="translate(0 65.89) scale(1 -1)" gradientUnits="userSpaceOnUse">
      <stop offset="0" stop-color="#ebd658"/>
      <stop offset="1" stop-color="#e4bb57"/>
    </linearGradient>
    <linearGradient id="e" data-name="Gradiente sem nome 17" x1="-156.4" y1="61.76" x2="-156.44" y2="40.71" gradientTransform="translate(194.17 77.71) rotate(-.05) scale(1 -1)" gradientUnits="userSpaceOnUse">
      <stop offset="0" stop-color="#a6a8ab"/>
      <stop offset=".35" stop-color="#bfc1c3"/>
      <stop offset=".92" stop-color="#fff"/>
    </linearGradient>
    <linearGradient id="f" data-name="Gradiente sem nome 22" x1="-210.45" y1="736.31" x2="-242.73" y2="726.43" gradientTransform="translate(-195.6 -697.26) rotate(-180) scale(1 -1)" gradientUnits="userSpaceOnUse">
      <stop offset="0" stop-color="#5ea7de"/>
      <stop offset="1" stop-color="#407093"/>
    </linearGradient>
  </defs>
  <g id="b" data-name="a">
    <g>
      <path class="k" d="m24.25,11.6c-1.07.65-3.18,2.14-4.59,4.89-1.93,3.77-1.32,7.73-.8,9.17.91,2.49,3.57,4.59,2.29,6.59-.91,1.41-3.1,1.25-4.78.73-3.08-.95-5.66-3.34-6.7-5.07-2.68-4.44-1.4-11.48,3.4-14.97,4.82-3.51,10.62-1.54,11.18-1.34Z"/>
      <path class="j" d="m38.85,10.14c1.5-3.92-5.73-6.46-12.24-6.44-8.76.03-14.51,6.2-14.93,6.7-1.06,1.27-5.34,6.38-4.09,12.71.47,2.4,1.58,4.18,2.39,5.25-.24-1.04-.44-2.56-.06-4.29,1.27-5.86,8.23-8.78,11.32-10.08,1.13-.48,2.21-.85,3.22-1.16,2.74-.83,5.59-1.24,8.45-1.31,3.97-.09,5.3.3,5.95-1.39h-.01Z"/>
    </g>
    <g>
      <path class="i" d="m29.72,36.69c1.07-.65,3.18-2.14,4.59-4.89,1.93-3.77,1.32-7.73.8-9.17-.91-2.49-3.57-4.59-2.29-6.59.91-1.41,3.1-1.25,4.78-.73,3.08.95,5.66,3.34,6.7,5.07,2.68,4.44,1.4,11.48-3.4,14.97-4.82,3.51-10.62,1.54-11.18,1.34Z"/>
      <path class="g" d="m15.11,38.15c-1.5,3.92,5.73,6.46,12.24,6.44,8.76-.03,14.51-6.2,14.93-6.7,1.06-1.27,5.34-6.38,4.09-12.71-.47-2.4-1.58-4.18-2.39-5.25.24,1.04.44,2.56.06,4.29-1.27,5.86-8.23,8.78-11.32,10.08-1.13.48-2.21.85-3.22,1.16-2.74.83-5.59,1.24-8.45,1.31-3.97.09-5.3-.3-5.95,1.39h.01Z"/>
    </g>
  </g>
  <g>
    <path class="h" d="m19.98,55.3c-.05-.96-.06-1.52.02-2.2.08-.74.2-1.48.61-2.34.65-1.38,1.79-2.06,3.24-2.22,1-.1,2.02-.1,3.02-.06.56.02,1.12.16,1.65.35,1.17.41,1.89,1.25,2.28,2.43.27.83.4,1.67.44,2.53.03.78.08,1.56.06,2.34-.03,1.17-.16,2.34-.57,3.45-.51,1.38-1.54,2.13-2.96,2.45-1.07.24-2.15.24-3.22.17-.69-.04-1.38-.24-2.04-.48-1.26-.44-1.77-1.62-1.93-1.89-.4-.72-.48-2-.61-4.53Zm2.96.13c.09.82.13,1.78.31,2.72.15.8.62,1.45,1.5,1.61.45.08.91.09,1.37.08.86-.03,1.55-.58,1.73-1.41.16-.68.3-1.38.33-2.08.05-1.33.07-2.67-.25-3.98-.14-.57-.42-1.08-.99-1.33-.73-.32-1.5-.33-2.27-.14-.98.23-1.34,1.01-1.49,1.88-.14.83-.15,1.67-.23,2.66Z"/>
    <path class="h" d="m17.8,48.93c-.05.63-.1,1.21-.14,1.8-.02.24-.17.26-.36.25-1.1-.04-2.2-.07-3.3-.1-.46,0-.93,0-1.39.03-1.01.04-1.19.69-1.07,1.52.1.68.65.93,1.2,1.12.94.33,1.89.63,2.83.96.8.29,1.52.69,2.04,1.4.36.5.54,1.07.58,1.67.03.66.09,1.34-.02,1.99-.23,1.32-.76,2.07-2.41,2.45-1.21.28-2.45.23-3.67.18-1.02-.04-2.02-.24-3.03-.39-.26-.04-.37-.16-.3-.48.09-.43.09-.89.1-1.34,0-.25.07-.38.36-.36.72.04,1.45.06,2.17.07.87.01,1.74.02,2.61-.01.28,0,.57-.12.84-.22.43-.15.48-.91.44-1.38-.06-.64-.49-.91-1.03-1.09-.98-.33-1.97-.64-2.94-1.01-1-.39-1.92-.93-2.36-1.98-.15-.36-.3-.76-.32-1.15-.05-.8-.09-1.61.16-2.4.33-1.07,1.08-1.64,2.13-1.84,1.44-.27,2.9-.32,4.36-.1.75.11,1.51.22,2.27.33.09.01.17.05.26.08Z"/>
    <path class="h" d="m42.06,59.58c.03.77.07,1.49.1,2.24-.43.05-.82.13-1.22.13-1.66.04-3.32.12-4.98.05-1.18-.06-2.26-.79-2.42-2.34-.02-.2-.03-.4-.03-.59,0-3.36,0-6.72,0-10.08,0-.1,0-.19,0-.31h2.93c0,.13,0,.26,0,.38,0,3.17,0,6.35,0,9.52,0,.58.13.8.57.94.15.05.32.05.48.05,1.39,0,2.78,0,4.17,0,.12,0,.24,0,.38,0Z"/>
  </g>
</svg>