<svg width="1002" height="88" viewBox="0 0 1002 88" fill="none" xmlns="http://www.w3.org/2000/svg">
<path d="M127.76 46.7338C127.204 44.4643 125.903 42.447 124.065 41.0047C122.226 39.5624 119.957 38.7786 117.62 38.7786C115.284 38.7786 113.015 39.5624 111.176 41.0047C109.338 42.447 108.037 44.4643 107.48 46.7338H127.76Z" stroke="#A6A8A9" stroke-width="1.20355" stroke-linecap="round" stroke-linejoin="round"/>
<path d="M230.21 46.7338C229.596 44.1498 228.201 41.8174 226.215 40.0535C224.229 38.2895 221.749 37.1794 219.11 36.8738C219.448 35.0397 219.619 33.1787 219.62 31.3138C219.611 23.7348 216.767 16.4335 211.646 10.8457C206.526 5.25793 199.5 1.78813 191.951 1.11869C184.402 0.449249 176.875 2.62862 170.851 7.22819C164.828 11.8278 160.743 18.5147 159.4 25.9738C156.165 23.4411 152.209 22.002 148.103 21.8643C143.997 21.7265 139.953 22.8973 136.556 25.2074C133.158 27.5176 130.583 30.8477 129.202 34.7169C127.82 38.5862 127.704 42.7943 128.87 46.7338H230.21Z" stroke="#A6A8A9" stroke-width="1.20355" stroke-linecap="round" stroke-linejoin="round"/>
<path d="M11.3 71.0838C11.0194 69.9295 10.3592 68.903 9.42524 68.1689C8.49132 67.4348 7.33788 67.0358 6.15 67.0358C4.96212 67.0358 3.80868 67.4348 2.87476 68.1689C1.94085 68.903 1.28061 69.9295 1 71.0838H11.3Z" stroke="#A6A8A9" stroke-width="1.20355" stroke-linecap="round" stroke-linejoin="round"/>
<path d="M63.31 71.0838C62.9953 69.773 62.2856 68.5905 61.2769 67.6963C60.2682 66.802 59.0091 66.2392 57.67 66.0838C58.0896 64.071 58.1021 61.9945 57.7068 59.9767C57.3115 57.9589 56.5164 56.0406 55.3683 54.3349C54.2203 52.6291 52.7424 51.1703 51.0219 50.0445C49.3013 48.9187 47.3729 48.1486 45.3502 47.7795C43.3274 47.4105 41.2512 47.45 39.244 47.8957C37.2367 48.3414 35.339 49.1843 33.6625 50.3747C31.986 51.5651 30.5647 53.079 29.4823 54.8272C28.3999 56.5754 27.6783 58.5225 27.36 60.5538C25.7175 59.2686 23.7091 58.5384 21.6247 58.4688C19.5402 58.3991 17.4876 58.9936 15.7629 60.1663C14.0383 61.3391 12.7309 63.0295 12.0294 64.9936C11.3279 66.9577 11.2686 69.0939 11.86 71.0938L63.31 71.0838Z" stroke="#A6A8A9" stroke-width="1.20355" stroke-linecap="round" stroke-linejoin="round"/>
<path d="M58.0703 87.3638C57.8891 86.639 57.4709 85.9955 56.882 85.5357C56.2931 85.0759 55.5674 84.8262 54.8203 84.8262C54.0732 84.8262 53.3475 85.0759 52.7587 85.5357C52.1698 85.9955 51.7515 86.639 51.5703 87.3638H58.0703Z" stroke="#A6A8A9" stroke-width="1.20355" stroke-linecap="round" stroke-linejoin="round"/>
<path d="M90.9002 87.3638C90.7001 86.5368 90.2517 85.7908 89.6154 85.226C88.979 84.6611 88.1851 84.3044 87.3402 84.2038C87.4498 83.6169 87.5033 83.0209 87.5002 82.4238C87.5024 79.993 86.5937 77.6495 84.9533 75.8555C83.3129 74.0616 81.0598 72.9475 78.6385 72.7328C76.2171 72.5182 73.8032 73.2186 71.8728 74.696C69.9424 76.1734 68.6356 78.3205 68.2102 80.7138C67.1724 79.9068 65.9057 79.4494 64.5918 79.4071C63.2779 79.3649 61.9843 79.74 60.8969 80.4787C59.8094 81.2173 58.984 82.2816 58.539 83.5186C58.0941 84.7556 58.0525 86.1017 58.4202 87.3638H90.9002Z" stroke="#A6A8A9" stroke-width="1.20355" stroke-linecap="round" stroke-linejoin="round"/>
<path d="M874.24 27.8445C874.796 25.575 876.097 23.5577 877.935 22.1154C879.774 20.6732 882.043 19.8893 884.38 19.8893C886.716 19.8893 888.985 20.6732 890.824 22.1154C892.662 23.5577 893.963 25.575 894.52 27.8445H874.24Z" stroke="#A6A8A9" stroke-width="1.20355" stroke-linecap="round" stroke-linejoin="round"/>
<path d="M990.7 52.1945C990.981 51.0402 991.641 50.0137 992.575 49.2796C993.509 48.5455 994.662 48.1465 995.85 48.1465C997.038 48.1465 998.191 48.5455 999.125 49.2796C1000.06 50.0137 1000.72 51.0402 1001 52.1945H990.7Z" stroke="#A6A8A9" stroke-width="1.20355" stroke-linecap="round" stroke-linejoin="round"/>
<path d="M938.69 52.1946C939.005 50.8838 939.714 49.7013 940.723 48.807C941.732 47.9127 942.991 47.3499 944.33 47.1946C943.91 45.1817 943.898 43.1052 944.293 41.0874C944.688 39.0696 945.484 37.1514 946.632 35.4456C947.78 33.7398 949.258 32.2811 950.978 31.1552C952.699 30.0294 954.627 29.2593 956.65 28.8903C958.673 28.5212 960.749 28.5607 962.756 29.0064C964.763 29.4521 966.661 30.295 968.338 31.4854C970.014 32.6758 971.435 34.1897 972.518 35.9379C973.6 37.6861 974.322 39.6332 974.64 41.6646C976.282 40.3793 978.291 39.6491 980.375 39.5795C982.46 39.5098 984.512 40.1043 986.237 41.277C987.962 42.4498 989.269 44.1402 989.971 46.1043C990.672 48.0684 990.731 50.2046 990.14 52.2046L938.69 52.1946Z" stroke="#A6A8A9" stroke-width="1.20355" stroke-linecap="round" stroke-linejoin="round"/>
<path d="M943.93 68.4745C944.111 67.7497 944.529 67.1062 945.118 66.6464C945.707 66.1866 946.433 65.9369 947.18 65.9369C947.927 65.9369 948.652 66.1866 949.241 66.6464C949.83 67.1062 950.249 67.7497 950.43 68.4745H943.93Z" stroke="#A6A8A9" stroke-width="1.20355" stroke-linecap="round" stroke-linejoin="round"/>
<path d="M911.1 68.4746C911.3 67.6475 911.748 66.9015 912.385 66.3367C913.021 65.7718 913.815 65.4152 914.66 65.3146C914.55 64.7276 914.497 64.1316 914.5 63.5346C914.498 61.1037 915.406 58.7602 917.047 56.9663C918.687 55.1723 920.94 54.0582 923.362 53.8435C925.783 53.6289 928.197 54.3293 930.127 55.8067C932.058 57.2841 933.364 59.4312 933.79 61.8246C934.828 61.0176 936.094 60.5601 937.408 60.5179C938.722 60.4756 940.016 60.8507 941.103 61.5894C942.191 62.3281 943.016 63.3923 943.461 64.6293C943.906 65.8663 943.948 67.2124 943.58 68.4746H911.1Z" stroke="#A6A8A9" stroke-width="1.20355" stroke-linecap="round" stroke-linejoin="round"/>
</svg>
