<svg width="224" height="29" viewBox="0 0 224 29" fill="none" xmlns="http://www.w3.org/2000/svg">
<path d="M45.889 16.5345V17.5005H40.331V16.5345H42.529V8.96049L40.485 10.2625V9.15649L43.033 7.53249H43.691V16.5345H45.889ZM48.2555 13.2725H52.2175V14.2105H48.2555V13.2725ZM59.2475 12.3765C59.9008 12.5538 60.4048 12.8618 60.7595 13.3005C61.1235 13.7298 61.3055 14.2478 61.3055 14.8545C61.3055 15.7038 60.9835 16.3758 60.3395 16.8705C59.6955 17.3558 58.8275 17.5985 57.7355 17.5985C56.6435 17.5985 55.7755 17.3558 55.1315 16.8705C54.4875 16.3758 54.1655 15.7038 54.1655 14.8545C54.1655 14.2478 54.3475 13.7252 54.7115 13.2865C55.0848 12.8478 55.5935 12.5445 56.2375 12.3765C55.6402 12.1992 55.1828 11.9098 54.8655 11.5085C54.5482 11.0978 54.3895 10.6172 54.3895 10.0665C54.3895 9.53449 54.5295 9.07249 54.8095 8.68049C55.0895 8.27915 55.4815 7.97115 55.9855 7.75649C56.4988 7.53249 57.0822 7.42049 57.7355 7.42049C58.3888 7.42049 58.9675 7.53249 59.4715 7.75649C59.9848 7.97115 60.3815 8.27915 60.6615 8.68049C60.9415 9.07249 61.0815 9.53449 61.0815 10.0665C61.0815 10.6172 60.9182 11.0978 60.5915 11.5085C60.2742 11.9098 59.8262 12.1992 59.2475 12.3765ZM55.5375 10.1505C55.5375 10.6825 55.7335 11.1165 56.1255 11.4525C56.5268 11.7792 57.0635 11.9798 57.7355 12.0545C58.4075 11.9798 58.9395 11.7792 59.3315 11.4525C59.7328 11.1165 59.9335 10.6825 59.9335 10.1505C59.9335 9.59982 59.7375 9.16582 59.3455 8.84849C58.9628 8.53115 58.4262 8.37249 57.7355 8.37249C57.0448 8.37249 56.5035 8.53115 56.1115 8.84849C55.7288 9.16582 55.5375 9.59982 55.5375 10.1505ZM57.7355 16.6465C58.5195 16.6465 59.1215 16.4878 59.5415 16.1705C59.9615 15.8532 60.1715 15.3912 60.1715 14.7845C60.1715 14.2338 59.9475 13.7952 59.4995 13.4685C59.0608 13.1325 58.4728 12.9272 57.7355 12.8525C56.9982 12.9272 56.4055 13.1325 55.9575 13.4685C55.5188 13.7952 55.2995 14.2338 55.2995 14.7845C55.2995 15.3912 55.5095 15.8532 55.9295 16.1705C56.3495 16.4878 56.9515 16.6465 57.7355 16.6465ZM73.4744 7.19649V17.5005H72.3544V16.2265C72.1491 16.6652 71.8364 17.0058 71.4164 17.2485C71.0057 17.4818 70.5251 17.5985 69.9744 17.5985C69.3584 17.5985 68.8124 17.4445 68.3364 17.1365C67.8697 16.8285 67.5057 16.3992 67.2444 15.8485C66.9831 15.2885 66.8524 14.6445 66.8524 13.9165C66.8524 13.1885 66.9784 12.5538 67.2304 12.0125C67.4917 11.4618 67.8604 11.0372 68.3364 10.7385C68.8124 10.4398 69.3584 10.2905 69.9744 10.2905C70.5251 10.2905 71.0057 10.4118 71.4164 10.6545C71.8271 10.8878 72.1351 11.2192 72.3404 11.6485V7.19649H73.4744ZM70.1984 16.6605C70.8891 16.6605 71.4211 16.4272 71.7944 15.9605C72.1677 15.4845 72.3544 14.8125 72.3544 13.9445C72.3544 13.0858 72.1677 12.4232 71.7944 11.9565C71.4211 11.4805 70.8891 11.2425 70.1984 11.2425C69.5077 11.2425 68.9664 11.4758 68.5744 11.9425C68.1917 12.4092 68.0004 13.0672 68.0004 13.9165C68.0004 14.7845 68.1917 15.4612 68.5744 15.9465C68.9664 16.4225 69.5077 16.6605 70.1984 16.6605ZM81.8609 13.9445H76.6949C76.7043 14.8405 76.9096 15.5172 77.3109 15.9745C77.7216 16.4318 78.3143 16.6605 79.0889 16.6605C79.9103 16.6605 80.6663 16.3852 81.3569 15.8345L81.7349 16.6605C81.4269 16.9498 81.0303 17.1785 80.5449 17.3465C80.0689 17.5145 79.5789 17.5985 79.0749 17.5985C77.9736 17.5985 77.1103 17.2765 76.4849 16.6325C75.8596 15.9792 75.5469 15.0878 75.5469 13.9585C75.5469 13.2398 75.6869 12.6052 75.9669 12.0545C76.2469 11.4945 76.6389 11.0605 77.1429 10.7525C77.6469 10.4445 78.2209 10.2905 78.8649 10.2905C79.7983 10.2905 80.5309 10.5985 81.0629 11.2145C81.5949 11.8212 81.8609 12.6612 81.8609 13.7345V13.9445ZM78.8789 11.1725C78.2909 11.1725 77.8103 11.3498 77.4369 11.7045C77.0729 12.0592 76.8396 12.5585 76.7369 13.2025H80.8389C80.7829 12.5398 80.5869 12.0358 80.2509 11.6905C79.9243 11.3452 79.4669 11.1725 78.8789 11.1725ZM94.0906 16.5345V17.5005H88.5326V16.5345H90.7306V8.96049L88.6866 10.2625V9.15649L91.2346 7.53249H91.8926V16.5345H94.0906ZM103.009 16.5345V17.5005H96.5971V16.6325L100.083 12.7685C100.55 12.2458 100.89 11.7745 101.105 11.3545C101.32 10.9345 101.427 10.5145 101.427 10.0945C101.427 9.54382 101.268 9.12382 100.951 8.83449C100.634 8.53582 100.181 8.38649 99.5931 8.38649C98.6411 8.38649 97.6984 8.76915 96.7651 9.53449L96.3311 8.65249C96.7231 8.27915 97.2178 7.98049 97.8151 7.75649C98.4124 7.53249 99.0144 7.42049 99.6211 7.42049C100.536 7.42049 101.259 7.65849 101.791 8.13449C102.323 8.60115 102.589 9.23582 102.589 10.0385C102.589 10.6078 102.458 11.1585 102.197 11.6905C101.945 12.2132 101.52 12.8012 100.923 13.4545L98.0811 16.5345H103.009ZM112.068 15.3305H110.556V17.5005H109.408V15.3305H104.816V14.4625L109.618 7.53249H110.556V14.3785H112.068V15.3305ZM109.408 14.3785V9.47849L106.006 14.3785H109.408ZM117.024 17.6125C115.885 17.6125 115.017 17.1832 114.42 16.3245C113.832 15.4565 113.538 14.1872 113.538 12.5165C113.538 10.8458 113.832 9.58115 114.42 8.72249C115.017 7.85449 115.885 7.42049 117.024 7.42049C118.163 7.42049 119.026 7.85449 119.614 8.72249C120.211 9.58115 120.51 10.8412 120.51 12.5025C120.51 14.1732 120.211 15.4425 119.614 16.3105C119.026 17.1785 118.163 17.6125 117.024 17.6125ZM117.024 16.6465C117.817 16.6465 118.401 16.3105 118.774 15.6385C119.157 14.9665 119.348 13.9212 119.348 12.5025C119.348 11.0932 119.161 10.0572 118.788 9.39449C118.415 8.73182 117.827 8.40049 117.024 8.40049C116.231 8.40049 115.643 8.73182 115.26 9.39449C114.887 10.0572 114.7 11.0932 114.7 12.5025C114.7 13.9118 114.887 14.9572 115.26 15.6385C115.643 16.3105 116.231 16.6465 117.024 16.6465Z" fill="#A6A8A9"/>
<path d="M168.911 21.0034L161.695 14.0744C161.654 14.0351 161.654 13.9695 161.695 13.9302L168.911 7.00122" stroke="#A6A8A9" stroke-width="2" stroke-linecap="round"/>
<path d="M205.366 21.0034L212.582 14.0744C212.623 14.0351 212.623 13.9695 212.582 13.9302L205.366 7.00122" stroke="#A6A8A9" stroke-width="2" stroke-linecap="round"/>
</svg>
