<svg width="501" height="373" viewBox="0 0 501 373" fill="none" xmlns="http://www.w3.org/2000/svg">
<path d="M500.5 327.4H0.5V327.65H500.5V327.4Z" fill="#EBEBEB"/>
<path d="M450.4 343.49H428.72V343.74H450.4V343.49Z" fill="#EBEBEB"/>
<path d="M345.17 338.31H311.06V338.56H345.17V338.31Z" fill="#EBEBEB"/>
<path d="M441.62 334.21H397.09V334.46H441.62V334.21Z" fill="#EBEBEB"/>
<path d="M173.52 339.25H162.38V339.5H173.52V339.25Z" fill="#EBEBEB"/>
<path d="M153.47 339.25H115.08V339.5H153.47V339.25Z" fill="#EBEBEB"/>
<path d="M94.5096 335.03H66.8096V335.28H94.5096V335.03Z" fill="#EBEBEB"/>
<path d="M237.5 282.8H44.41C42.8973 282.797 41.4475 282.195 40.3788 281.124C39.3102 280.053 38.71 278.603 38.71 277.09V5.66C38.7231 4.15602 39.3292 2.71798 40.3964 1.65822C41.4637 0.598458 42.9059 0.00257639 44.41 0H237.5C239.014 0 240.467 0.601588 241.538 1.67242C242.608 2.74325 243.21 4.19561 243.21 5.71V277.09C243.21 278.604 242.608 280.057 241.538 281.128C240.467 282.198 239.014 282.8 237.5 282.8ZM44.41 0.200001C42.9636 0.20265 41.5774 0.779065 40.5556 1.80273C39.5338 2.82639 38.96 4.21365 38.96 5.66V277.09C38.96 278.536 39.5338 279.924 40.5556 280.947C41.5774 281.971 42.9636 282.547 44.41 282.55H237.5C238.947 282.547 240.334 281.971 241.358 280.948C242.381 279.924 242.957 278.537 242.96 277.09V5.66C242.957 4.21273 242.381 2.82549 241.358 1.80212C240.334 0.77874 238.947 0.202644 237.5 0.200001H44.41Z" fill="#EBEBEB"/>
<path d="M453.81 282.8H260.71C259.196 282.797 257.746 282.195 256.675 281.125C255.605 280.054 255.003 278.604 255 277.09V5.66C255.016 4.15511 255.624 2.71708 256.693 1.65759C257.762 0.598109 259.205 0.00254829 260.71 0H453.81C455.312 0.0052045 456.752 0.602249 457.817 1.66173C458.882 2.72121 459.487 4.15775 459.5 5.66V277.09C459.5 278.601 458.901 280.05 457.835 281.121C456.768 282.191 455.321 282.795 453.81 282.8ZM260.71 0.200001C259.263 0.202644 257.875 0.77874 256.852 1.80212C255.829 2.82549 255.253 4.21273 255.25 5.66V277.09C255.253 278.537 255.829 279.924 256.852 280.948C257.875 281.971 259.263 282.547 260.71 282.55H453.81C455.257 282.547 456.645 281.971 457.668 280.948C458.691 279.924 459.267 278.537 459.27 277.09V5.66C459.267 4.21273 458.691 2.82549 457.668 1.80212C456.645 0.77874 455.257 0.202644 453.81 0.200001H260.71Z" fill="#EBEBEB"/>
<path d="M216.57 145.88L217.02 132.74L208.96 130.1C208.613 125.647 207.891 121.231 206.8 116.9L213.64 111.9L209 99.56L200.54 100.24C198.534 96.2642 196.192 92.4671 193.54 88.89L197.92 81.58L188.92 71.97L181.36 75.84C177.96 72.9342 174.328 70.312 170.5 68L171.72 59.6L159.72 54.16L154.22 60.6C149.977 59.2428 145.629 58.2393 141.22 57.6L139.22 49.37L126.04 48.92L123.44 56.99C118.991 57.3398 114.579 58.0589 110.25 59.14L105.17 52.34L92.8298 56.95L93.5098 65.41C89.5361 67.4464 85.7396 69.8113 82.1598 72.48L74.7998 68L65.1498 77L69.0198 84.6001C66.1132 87.9826 63.5035 91.6093 61.2198 95.44L52.8298 94.18L47.3498 106.18L53.8298 111.67C52.4629 115.91 51.4593 120.259 50.8298 124.67L42.4998 126.76L42.0498 139.9L50.1498 142.54C50.4849 146.99 51.2042 151.404 52.2998 155.73L45.4598 160.73L50.1098 173.08L58.5698 172.4C60.5705 176.379 62.9126 180.176 65.5698 183.75L61.1798 191.06L70.1798 200.67L77.7398 196.8C81.1304 199.705 84.7562 202.324 88.5798 204.63L87.3198 213.02L99.3198 218.47L104.85 212.03C109.093 213.4 113.441 214.42 117.85 215.08L119.85 223.31L133.03 223.76L135.63 215.69C140.081 215.336 144.496 214.617 148.83 213.54L153.83 220.34L166.17 215.73L165.53 207.27C169.496 205.221 173.292 202.857 176.88 200.2L184.15 204.58L193.8 195.58L189.93 187.98C192.837 184.598 195.447 180.971 197.73 177.14L206.12 178.4L211.6 166.4L205.12 160.9C206.51 156.663 207.53 152.313 208.17 147.9L216.57 145.88ZM127.78 188.45C117.468 188.102 107.491 184.703 99.1106 178.683C90.7305 172.664 84.324 164.294 80.7014 154.633C77.0788 144.972 76.4029 134.453 78.7592 124.408C81.1155 114.363 86.3981 105.242 93.9388 98.1995C101.48 91.1569 110.94 86.509 121.122 84.8437C131.305 83.1783 141.753 84.5704 151.144 88.8438C160.535 93.1172 168.448 100.08 173.882 108.851C179.316 117.622 182.026 127.808 181.67 138.12C181.195 151.94 175.252 165.005 165.146 174.443C155.04 183.881 141.6 188.92 127.78 188.45Z" fill="#EBEBEB"/>
<path d="M441.5 102.42L444.81 99.33L443.5 96.72C444.499 95.5505 445.399 94.2994 446.19 92.98L449.09 93.41L450.96 89.27L448.74 87.38C449.218 85.9162 449.569 84.414 449.79 82.89L452.64 82.18L452.78 77.64L450 76.74C449.878 75.2024 449.63 73.6773 449.26 72.18L451.61 70.43L450.01 66.18L447.1 66.41C446.398 65.0393 445.585 63.7282 444.67 62.49L446.18 59.99L443.07 56.67L440.47 58C439.299 57.003 438.048 56.1033 436.73 55.31L437.15 52.41L433.02 50.52L431.12 52.75C429.653 52.2933 428.152 51.9589 426.63 51.75L425.92 48.91L421.38 48.74L420.47 51.54C418.938 51.6571 417.419 51.9046 415.93 52.28L414.19 49.93L409.93 51.52L410.17 54.44C408.795 55.1349 407.484 55.9479 406.25 56.87L403.73 55.36L400.41 58.45L401.7 61C400.693 62.1661 399.79 63.4175 399 64.74L396.11 64.31L394.23 68.45L396.46 70.35C395.998 71.8116 395.663 73.3105 395.46 74.83L392.6 75.54L392.46 80.08L395.25 80.98C395.364 82.5179 395.608 84.0434 395.98 85.54L393.62 87.28L395.22 91.53L398.14 91.31C398.842 92.6807 399.654 93.9917 400.57 95.23L399.06 97.73L402.17 101.05L404.77 99.72C405.939 100.72 407.19 101.62 408.51 102.41L408.08 105.3L412.22 107.19L414.12 104.97C415.588 105.422 417.089 105.756 418.61 105.97L419.32 108.81L423.86 108.98L424.77 106.18C426.302 106.064 427.821 105.816 429.31 105.44L431.05 107.79L435.31 106.2L435.08 103.28C436.451 102.584 437.759 101.771 438.99 100.85L441.5 102.42ZM417.88 83.29C417.007 82.3543 416.431 81.1806 416.225 79.9174C416.018 78.6541 416.192 77.3582 416.722 76.1934C417.253 75.0287 418.117 74.0475 419.205 73.374C420.294 72.7004 421.557 72.3648 422.837 72.4096C424.116 72.4544 425.353 72.8775 426.391 73.6255C427.43 74.3735 428.223 75.4128 428.671 76.6118C429.119 77.8108 429.201 79.1157 428.907 80.3614C428.613 81.6071 427.957 82.7376 427.02 83.61C426.398 84.196 425.667 84.653 424.867 84.9544C424.068 85.2558 423.217 85.3957 422.363 85.3659C421.509 85.3362 420.67 85.1374 419.894 84.781C419.117 84.4247 418.419 83.9179 417.84 83.29H417.88Z" fill="#EBEBEB"/>
<path d="M320.5 237.34L310.16 230.19C309.146 226.467 307.752 222.858 306 219.42L308.65 209.02L293.65 192.96L283.09 194.89C279.777 192.905 276.269 191.267 272.62 190L266.2 179.19L244.2 178.44L237.06 188.78C233.341 189.793 229.736 191.183 226.3 192.93L215.9 190.28L199.84 205.28L201.77 215.82C199.787 219.14 198.152 222.655 196.89 226.31L186.08 232.73L185.33 254.73L195.68 261.87C196.677 265.613 198.068 269.24 199.83 272.69L197.15 283L212.15 299.06L222.64 297.14C225.978 299.127 229.509 300.769 233.18 302.04L239.59 312.83L261.59 313.59L268.72 303.25C272.472 302.237 276.111 300.843 279.58 299.09L289.92 301.73L305.99 286.73L304.06 276.19C306.049 272.87 307.685 269.351 308.94 265.69L319.75 259.27L320.5 237.34ZM252.05 270.73C247.166 270.563 242.441 268.952 238.473 266.1C234.505 263.248 231.471 259.283 229.756 254.707C228.041 250.131 227.721 245.149 228.837 240.392C229.953 235.634 232.455 231.314 236.026 227.978C239.597 224.642 244.076 222.44 248.899 221.649C253.721 220.859 258.67 221.517 263.119 223.539C267.568 225.561 271.317 228.857 273.893 233.01C276.469 237.163 277.755 241.986 277.59 246.87C277.361 253.42 274.541 259.612 269.751 264.085C264.961 268.559 258.591 270.949 252.04 270.73H252.05Z" fill="#EBEBEB"/>
<path d="M344.05 175H343.98L326.66 174.41C326.31 174.404 325.966 174.309 325.662 174.134C325.358 173.959 325.102 173.71 324.92 173.41L320.25 165.56C317.733 164.639 315.298 163.509 312.97 162.18L305.5 163.47C305.152 163.534 304.794 163.508 304.458 163.397C304.123 163.285 303.821 163.09 303.58 162.83L291.75 150.17C291.502 149.908 291.326 149.586 291.238 149.236C291.15 148.885 291.155 148.518 291.25 148.17L293.14 140.76C291.969 138.359 291.012 135.859 290.28 133.29L282.75 128.09C282.458 127.889 282.222 127.618 282.063 127.302C281.904 126.985 281.827 126.634 281.84 126.28L282.43 108.96C282.442 108.61 282.539 108.269 282.714 107.965C282.888 107.662 283.134 107.406 283.43 107.22L291.3 102.55C292.208 100.039 293.336 97.6126 294.67 95.3L293.29 87.77C293.226 87.4204 293.251 87.0602 293.363 86.7228C293.474 86.3854 293.67 86.0817 293.93 85.84L306.59 74.02C306.852 73.7708 307.174 73.593 307.524 73.5037C307.874 73.4144 308.241 73.4166 308.59 73.51L316.03 75.41C318.425 74.2384 320.918 73.2781 323.48 72.54L328.68 65.01C328.874 64.7109 329.143 64.4688 329.462 64.3088C329.78 64.1488 330.135 64.0767 330.49 64.1L347.8 64.7C348.152 64.7074 348.497 64.8028 348.802 64.9775C349.108 65.1522 349.365 65.4005 349.55 65.7L354.22 73.56C356.719 74.4775 359.135 75.6083 361.44 76.94L369 75.55C369.348 75.4853 369.707 75.5101 370.043 75.6221C370.379 75.734 370.681 75.9294 370.92 76.19L382.75 88.85C382.997 89.1132 383.172 89.4351 383.26 89.7851C383.347 90.1351 383.344 90.5016 383.25 90.85L381.35 98.28C382.522 100.676 383.485 103.169 384.23 105.73L391.75 110.93C392.042 111.13 392.279 111.402 392.438 111.718C392.597 112.034 392.674 112.386 392.66 112.74L392.07 130.05C392.059 130.401 391.961 130.744 391.787 131.049C391.613 131.354 391.367 131.612 391.07 131.8L383.2 136.47C382.287 138.975 381.159 141.398 379.83 143.71L381.21 151.25C381.275 151.598 381.25 151.957 381.138 152.293C381.026 152.628 380.831 152.93 380.57 153.17L367.83 165C367.568 165.248 367.246 165.425 366.896 165.512C366.546 165.6 366.179 165.596 365.83 165.5L358.43 163.61C356.019 164.776 353.513 165.736 350.94 166.48L345.79 174C345.605 174.297 345.349 174.543 345.046 174.718C344.742 174.892 344.4 174.989 344.05 175ZM327.96 170.23L342.96 170.74L347.96 163.55C348.237 163.13 348.662 162.83 349.15 162.71C351.964 161.94 354.695 160.892 357.3 159.58C357.755 159.361 358.271 159.308 358.76 159.43L365.76 161.22L376.76 150.97L375.5 143.74C375.403 143.235 375.496 142.711 375.76 142.27C377.246 139.794 378.469 137.17 379.41 134.44C379.569 133.945 379.904 133.525 380.35 133.26L387.88 128.8L388.39 113.8L381.19 108.8C380.811 108.541 380.527 108.165 380.38 107.73C380.38 107.68 380.38 107.62 380.38 107.56C379.61 104.796 378.565 102.116 377.26 99.56C377.029 99.1024 376.972 98.5763 377.1 98.08L378.9 91L368.65 80L361.46 81.32C360.958 81.411 360.44 81.3187 360 81.06C357.519 79.5717 354.892 78.342 352.16 77.39C352.004 77.3397 351.853 77.2727 351.71 77.19C351.422 77.0101 351.182 76.763 351.01 76.47L346.5 68.92L331.5 68.4L326.5 75.61C326.202 76.0326 325.762 76.3343 325.26 76.46C322.475 77.221 319.775 78.263 317.2 79.57C316.746 79.8015 316.223 79.8585 315.73 79.73L308.65 77.93L297.65 88.18L298.97 95.35C299.049 95.8022 298.982 96.2677 298.78 96.68L298.68 96.85C297.193 99.3356 295.97 101.97 295.03 104.71C294.865 105.18 294.539 105.576 294.11 105.83L286.58 110.3L286.07 125.3L293.28 130.3C293.691 130.581 293.989 130.999 294.12 131.48C294.87 134.288 295.912 137.01 297.23 139.6C297.302 139.747 297.359 139.902 297.4 140.06C297.476 140.389 297.476 140.731 297.4 141.06L295.6 148.06L305.85 159.06L312.99 157.75C313.489 157.659 314.004 157.751 314.44 158.01C316.94 159.495 319.584 160.725 322.33 161.68C322.826 161.827 323.245 162.16 323.5 162.61L327.96 170.23ZM337.23 151.26C336.86 151.26 336.49 151.26 336.12 151.26C327.807 151.114 319.889 147.69 314.088 141.734C308.287 135.778 305.073 127.771 305.147 119.457C305.22 111.143 308.574 103.195 314.479 97.3419C320.383 91.4888 328.361 88.2048 336.675 88.2048C344.99 88.2048 352.967 91.4888 358.872 97.3419C364.777 103.195 368.131 111.143 368.204 119.457C368.277 127.771 365.064 135.778 359.263 141.734C353.462 147.69 345.543 151.114 337.23 151.26ZM337.23 92.17C329.966 92.2952 323.045 95.2851 317.974 100.489C312.904 105.692 310.094 112.688 310.156 119.953C310.219 127.219 313.149 134.165 318.309 139.28C323.468 144.396 330.44 147.266 337.705 147.266C344.971 147.266 351.942 144.396 357.102 139.28C362.262 134.165 365.192 127.219 365.254 119.953C365.317 112.688 362.507 105.692 357.436 100.489C352.366 95.2851 345.445 92.2952 338.18 92.17H337.23Z" fill="#EBEBEB"/>
<path d="M383.94 50.32L376.76 48.4L374.84 41.22L377.65 38.42L380.61 44.55L386.75 47.52L383.94 50.32Z" fill="#E0E0E0"/>
<path d="M384.38 45.5201C384.691 45.2095 384.937 44.8408 385.105 44.435C385.273 44.0292 385.36 43.5943 385.36 43.1551C385.36 42.7158 385.273 42.2809 385.105 41.8751C384.937 41.4693 384.691 41.1006 384.38 40.7901C384.07 40.4795 383.701 40.2331 383.295 40.065C382.89 39.897 382.455 39.8104 382.015 39.8104C381.576 39.8104 381.141 39.897 380.735 40.065C380.33 40.2331 379.961 40.4795 379.65 40.7901L383.22 35.4301L388 37.8501L389.05 42.8501L384.38 45.5201Z" fill="#E0E0E0"/>
<path d="M377.08 39L382.34 33.74L389.5 35.65L391.43 42.82L386.17 48.08L379 46.15L377.08 39ZM386.63 43.3C387.098 42.8314 387.417 42.2344 387.546 41.5847C387.675 40.9349 387.608 40.2615 387.355 39.6496C387.101 39.0377 386.672 38.5147 386.121 38.1467C385.57 37.7788 384.923 37.5824 384.26 37.5824C383.598 37.5824 382.95 37.7788 382.399 38.1467C381.848 38.5147 381.419 39.0377 381.165 39.6496C380.912 40.2615 380.845 40.9349 380.974 41.5847C381.103 42.2344 381.422 42.8314 381.89 43.3C382.524 43.9215 383.377 44.2679 384.264 44.2642C385.152 44.2604 386.002 43.9068 386.63 43.28V43.3Z" fill="#F0F0F0"/>
<path d="M90.72 241.71L94.57 240.67L95.6 236.82L94.1 235.32L92.51 238.61L89.21 240.2L90.72 241.71Z" fill="#E0E0E0"/>
<path d="M90.5004 239.13C90.1995 238.786 90.0406 238.341 90.0557 237.885C90.0708 237.428 90.2589 236.994 90.5819 236.671C90.9049 236.348 91.3386 236.16 91.7951 236.145C92.2516 236.13 92.6968 236.289 93.0404 236.59L91.1304 233.72L88.5004 235L87.9404 237.7L90.5004 239.13Z" fill="#E0E0E0"/>
<path d="M94.4005 235.62L91.5805 232.8L87.7305 233.8L86.7305 237.65L89.5005 240.5L93.3505 239.5L94.4005 235.62ZM89.2805 237.93C89.0951 237.768 88.945 237.569 88.8395 237.346C88.734 237.124 88.6754 236.882 88.6672 236.635C88.659 236.389 88.7015 236.144 88.792 235.915C88.8826 235.685 89.0192 235.477 89.1934 235.303C89.3677 235.129 89.5758 234.992 89.805 234.902C90.0342 234.811 90.2795 234.769 90.5258 234.777C90.7721 234.785 91.0141 234.844 91.2368 234.949C91.4595 235.055 91.6581 235.205 91.8205 235.39C92.1214 235.734 92.2803 236.179 92.2652 236.635C92.2501 237.092 92.062 237.526 91.739 237.849C91.416 238.172 90.9823 238.36 90.5258 238.375C90.0693 238.39 89.6241 238.231 89.2805 237.93Z" fill="#F0F0F0"/>
<path d="M76.8597 30.66L80.0597 33.86C80.4599 34.2533 80.9986 34.4737 81.5597 34.4737C82.1208 34.4737 82.6595 34.2533 83.0597 33.86C83.4506 33.4586 83.6694 32.9204 83.6694 32.36C83.6694 31.7997 83.4506 31.2615 83.0597 30.86L79.8697 27.67C79.4682 27.2791 78.93 27.0603 78.3697 27.0603C77.8093 27.0603 77.2711 27.2791 76.8697 27.67C76.478 28.0685 76.2577 28.6043 76.2559 29.163C76.254 29.7217 76.4707 30.259 76.8597 30.66Z" fill="#F0F0F0"/>
<path d="M74.6102 22.71C75.4452 22.4778 76.3299 22.4945 77.1556 22.7581C77.9812 23.0216 78.712 23.5206 79.258 24.1936C79.8041 24.8666 80.1418 25.6845 80.2295 26.5467C80.3173 27.409 80.1514 28.2781 79.7521 29.0474C79.3528 29.8166 78.7376 30.4526 77.982 30.8771C77.2263 31.3016 76.3632 31.4962 75.4985 31.437C74.6338 31.3778 73.8052 31.0674 73.1145 30.5439C72.4238 30.0204 71.9009 29.3065 71.6102 28.49C71.4256 27.9136 71.3569 27.3064 71.408 26.7032C71.459 26.1001 71.6288 25.5131 71.9077 24.9759C72.1865 24.4387 72.5688 23.9619 73.0326 23.573C73.4965 23.1842 74.0326 22.8909 74.6102 22.71Z" fill="#E0E0E0"/>
<path d="M71.1296 27.9546L71.5928 29.2439L81.0981 25.8293L80.6349 24.5399L71.1296 27.9546Z" fill="#F0F0F0"/>
<path d="M250.499 372.56C357.582 372.56 444.389 367.492 444.389 361.24C444.389 354.988 357.582 349.92 250.499 349.92C143.417 349.92 56.6094 354.988 56.6094 361.24C56.6094 367.492 143.417 372.56 250.499 372.56Z" fill="#F5F5F5"/>
<path d="M87.2202 65.6498C86.2202 61.2398 86.6602 57.5398 88.5602 54.5198C90.4602 51.4998 93.5602 49.5198 97.9702 48.5198C102.38 47.5198 106.19 47.9198 109.17 49.7798C112.15 51.6398 114.17 54.7798 115.17 59.0798C115.876 61.7338 115.934 64.5186 115.34 67.1998C114.759 69.4266 113.53 71.431 111.81 72.9598C109.767 74.68 107.315 75.8442 104.69 76.3398C102.117 77.0229 99.4236 77.1152 96.8102 76.6098C94.5385 76.0577 92.4838 74.8388 90.9102 73.1098C89.0302 71.0012 87.7553 68.4237 87.2202 65.6498ZM95.5602 63.7898C96.1802 66.5098 97.1302 68.3498 98.4102 69.3098C99.0709 69.7504 99.8139 70.0528 100.595 70.1989C101.375 70.3449 102.177 70.3316 102.953 70.1597C103.728 69.9878 104.46 69.6609 105.106 69.1987C105.752 68.7364 106.298 68.1484 106.71 67.4698C107.43 66.0798 107.44 63.8698 106.76 60.8598C106.18 58.3198 105.244 56.5798 103.95 55.6398C103.299 55.1725 102.551 54.8571 101.762 54.7169C100.973 54.5767 100.162 54.6153 99.3902 54.8298C98.6172 54.9746 97.8872 55.2928 97.255 55.7604C96.6227 56.2281 96.1048 56.8331 95.7402 57.5298C95.0002 58.9998 94.9302 60.9998 95.5602 63.7898Z" fill="#013943"/>
<path d="M119.09 62.3498C118.735 60.987 118.671 59.5646 118.904 58.1756C119.137 56.7866 119.66 55.4625 120.44 54.2898C121.314 53.044 122.426 51.983 123.711 51.1679C124.997 50.3528 126.43 49.7995 127.93 49.5398C131.843 48.6531 135.057 49.1165 137.57 50.9298C139.685 52.5695 141.123 54.93 141.61 57.5616C142.097 60.1932 141.598 62.9119 140.21 65.1998C138.65 67.5798 136.11 69.1665 132.59 69.9598C129.878 70.7179 126.985 70.4839 124.43 69.2998C123.064 68.6321 121.871 67.6572 120.944 66.4515C120.018 65.2457 119.383 63.8418 119.09 62.3498ZM126.6 60.6198C126.802 62.0172 127.485 63.3006 128.53 64.2498C128.944 64.5634 129.422 64.7831 129.93 64.8935C130.438 65.0039 130.963 65.0024 131.471 64.8892C131.978 64.776 132.454 64.5537 132.867 64.2378C133.279 63.9218 133.618 63.5199 133.86 63.0598C134.384 61.7166 134.433 60.2349 134 58.8598C133.79 57.4952 133.115 56.2449 132.09 55.3198C131.692 54.9973 131.225 54.7709 130.726 54.6582C130.226 54.5454 129.708 54.5494 129.21 54.6698C128.691 54.7773 128.203 55.0016 127.784 55.3256C127.365 55.6496 127.025 56.0648 126.79 56.5398C126.251 57.8357 126.184 59.2794 126.6 60.6198Z" fill="#013943"/>
<path d="M149.08 73.5699L142.95 46.5698L149.95 44.9699L150.61 47.8598C151.104 46.7073 151.821 45.6639 152.72 44.7898C153.707 43.9524 154.885 43.3719 156.15 43.0998C157.319 42.7818 158.55 42.7636 159.728 43.0467C160.906 43.3298 161.993 43.9053 162.89 44.7198C164.867 46.5674 166.207 48.9934 166.72 51.6498C167.46 54.8998 167.24 57.5599 166.08 59.6499C165.528 60.6491 164.766 61.5164 163.846 62.1916C162.925 62.8668 161.869 63.3336 160.75 63.5598C159.672 63.8154 158.555 63.8596 157.46 63.6899C156.41 63.5059 155.409 63.1076 154.52 62.5198L156.64 71.8498L149.08 73.5699ZM152.69 54.7098C152.874 55.9588 153.498 57.1009 154.45 57.9298C154.832 58.2222 155.275 58.4244 155.746 58.5214C156.217 58.6183 156.704 58.6076 157.17 58.4898C157.603 58.403 158.01 58.2157 158.357 57.943C158.705 57.6703 158.983 57.3199 159.17 56.9198C159.595 55.6683 159.595 54.3114 159.17 53.0598C158.987 51.8046 158.385 50.6484 157.46 49.7798C157.117 49.495 156.714 49.2928 156.28 49.1888C155.847 49.0848 155.395 49.0817 154.96 49.1798C154.501 49.279 154.07 49.4807 153.699 49.7699C153.329 50.0591 153.028 50.4283 152.82 50.8498C152.331 52.0825 152.285 53.447 152.69 54.7098Z" fill="#013943"/>
<path d="M169.93 55.2998L177.21 52.9098C177.597 53.6136 178.2 54.1744 178.93 54.5098C179.716 54.7373 180.547 54.7554 181.342 54.5625C182.136 54.3695 182.867 53.9722 183.46 53.4098C183.626 53.2333 183.747 53.0191 183.811 52.7856C183.876 52.5521 183.882 52.3064 183.83 52.0698C183.77 51.7991 183.63 51.5525 183.429 51.3618C183.228 51.1712 182.974 51.0451 182.7 50.9998C181.57 50.8758 180.43 50.8758 179.3 50.9998C177.404 51.1611 175.497 51.1611 173.6 50.9998C172.49 50.8387 171.449 50.3633 170.6 49.6298C169.695 48.846 169.069 47.7886 168.818 46.6176C168.568 45.4465 168.705 44.2257 169.21 43.1398C169.793 41.9779 170.7 41.009 171.82 40.3498C173.415 39.4436 175.148 38.8051 176.95 38.4598C178.67 37.993 180.449 37.7774 182.23 37.8198C183.349 37.8918 184.434 38.235 185.39 38.8198C186.41 39.5074 187.275 40.3997 187.93 41.4398L180.93 43.7498C180.669 43.2288 180.234 42.8151 179.7 42.5798C178.971 42.3189 178.18 42.284 177.43 42.4798C176.768 42.5721 176.154 42.8775 175.68 43.3498C175.53 43.5108 175.421 43.7061 175.364 43.9188C175.306 44.1315 175.302 44.355 175.35 44.5698C175.404 44.8063 175.529 45.0207 175.708 45.185C175.886 45.3492 176.11 45.4555 176.35 45.4898C177.468 45.6196 178.599 45.596 179.71 45.4198C181.639 45.1403 183.595 45.1135 185.53 45.3398C186.748 45.5117 187.888 46.0367 188.81 46.8498C189.644 47.606 190.224 48.6014 190.47 49.6998C190.726 50.8776 190.633 52.1046 190.2 53.2298C189.672 54.5619 188.751 55.7021 187.56 56.4998C185.806 57.6464 183.841 58.4317 181.78 58.8098C178.214 59.6231 175.547 59.6931 173.78 59.0198C172.059 58.3324 170.676 56.9965 169.93 55.2998Z" fill="#013943"/>
<path d="M194.351 30.5698H202.561V36.8698L201.051 49.5398H195.971L194.351 36.8898V30.5698ZM194.751 51.4498H202.411V58.2298H194.751V51.4498Z" fill="#013943"/>
<path d="M129.179 116.58H128.999C124.499 114.83 121.809 113.13 120.409 111.08C119.313 111.288 118.18 111.133 117.179 110.64C116.007 110.066 115.035 109.153 114.389 108.02C114.05 108.28 113.65 108.451 113.227 108.516C112.804 108.58 112.371 108.537 111.969 108.39C110.737 107.929 109.685 107.084 108.969 105.98C108.521 106.313 107.965 106.467 107.409 106.41C104.409 106.17 100.409 100.25 100.119 93.9499C100.116 93.8169 100.164 93.6879 100.254 93.5893C100.343 93.4907 100.467 93.4301 100.599 93.4199C100.665 93.4172 100.73 93.4275 100.792 93.4502C100.854 93.4729 100.91 93.5075 100.959 93.5521C101.007 93.5967 101.046 93.6503 101.074 93.71C101.101 93.7697 101.117 93.8342 101.119 93.8999C101.399 99.8999 105.229 105.23 107.499 105.41C107.664 105.428 107.832 105.414 107.991 105.368C108.151 105.321 108.3 105.244 108.429 105.14C107.647 103.714 107.156 102.147 106.984 100.53C106.813 98.9131 106.964 97.278 107.429 95.7199C108.289 92.7199 109.049 91.5399 109.969 91.7199C111.689 92.1499 111.459 98.7199 110.549 103.01C110.411 103.784 110.126 104.524 109.709 105.19C110.299 106.178 111.189 106.953 112.249 107.4C112.532 107.508 112.84 107.532 113.136 107.47C113.432 107.408 113.704 107.262 113.919 107.05C113.139 105.12 112.919 102.48 114.039 99.1199C115.439 94.6899 116.039 94.5699 116.349 94.4899C116.466 94.4654 116.587 94.4729 116.7 94.5116C116.812 94.5504 116.912 94.6189 116.989 94.7099C117.919 95.7599 116.809 102.64 115.649 106.04C115.513 106.449 115.325 106.839 115.089 107.2C115.626 108.281 116.5 109.159 117.579 109.7C118.287 110.044 119.075 110.193 119.859 110.13C119.769 109.94 119.689 109.75 119.609 109.55C118.819 107.4 119.209 104.93 120.799 101.97C121.849 100.02 122.709 99.0999 123.509 99.0999C123.722 99.1027 123.929 99.1664 124.106 99.2834C124.283 99.4004 124.423 99.5657 124.509 99.7599C125.379 101.37 124.749 106.68 123.029 109.32C122.627 109.925 122.066 110.409 121.409 110.72C122.749 112.48 125.299 114.03 129.409 115.61C129.471 115.632 129.527 115.666 129.576 115.711C129.624 115.755 129.662 115.809 129.689 115.869C129.716 115.928 129.731 115.993 129.733 116.058C129.735 116.124 129.723 116.189 129.699 116.25C129.66 116.354 129.589 116.443 129.495 116.502C129.401 116.562 129.29 116.589 129.179 116.58ZM123.499 100.11C123.499 100.11 122.929 100.11 121.669 102.46C120.219 105.14 119.849 107.35 120.539 109.21C120.623 109.44 120.723 109.664 120.839 109.88C121.381 109.656 121.841 109.272 122.159 108.78C123.559 106.64 124.229 102.24 123.709 100.52C123.639 100.17 123.499 100.11 123.499 100.11ZM116.319 95.8999C115.778 97.0384 115.33 98.2189 114.979 99.4299C114.212 101.529 114.08 103.807 114.599 105.98L114.689 105.72C115.739 102.55 116.299 99.2386 116.349 95.8999H116.319ZM109.739 92.7499C109.569 92.8999 109.079 93.5299 108.389 95.9699C107.573 98.7082 107.831 101.655 109.109 104.21C109.314 103.763 109.466 103.293 109.559 102.81C110.629 97.8999 110.329 93.4599 109.769 92.7499H109.739Z" fill="#013943"/>
<path d="M167.2 169C165.601 169.015 164.027 168.605 162.64 167.81C162.526 167.741 162.443 167.631 162.409 167.502C162.375 167.373 162.394 167.236 162.46 167.12C162.493 167.064 162.537 167.014 162.589 166.975C162.641 166.936 162.701 166.908 162.764 166.892C162.827 166.876 162.893 166.873 162.958 166.883C163.022 166.893 163.084 166.916 163.14 166.95C166.71 169.04 171.32 167.58 172.27 166.05C172.338 165.954 172.387 165.845 172.413 165.73C172.439 165.615 172.441 165.496 172.42 165.38C170.594 165.485 168.787 164.97 167.29 163.92C164.74 162.33 164.54 161.85 164.56 161.47C164.565 161.361 164.599 161.255 164.659 161.163C164.718 161.072 164.802 160.998 164.9 160.95C165.9 160.45 170.41 162.52 172.29 163.76C172.515 163.91 172.723 164.084 172.91 164.28C173.648 164.112 174.314 163.713 174.81 163.14C175.089 162.812 175.29 162.426 175.4 162.01H175.2C173.6 162.17 172 161.48 170.29 159.9C169.11 158.82 168.66 158.07 168.81 157.48C168.855 157.314 168.947 157.165 169.075 157.05C169.202 156.934 169.36 156.858 169.53 156.83C170.91 156.48 174.33 157.94 175.72 159.47C176.03 159.803 176.25 160.209 176.36 160.65C177.67 160.04 179.05 158.65 180.68 156.38C180.718 156.326 180.766 156.28 180.822 156.244C180.877 156.209 180.94 156.185 181.005 156.174C181.07 156.163 181.136 156.165 181.201 156.179C181.265 156.194 181.326 156.222 181.38 156.26C181.487 156.338 181.559 156.455 181.582 156.586C181.604 156.716 181.575 156.851 181.5 156.96C179.61 159.6 178.03 161.1 176.45 161.71C176.368 162.449 176.065 163.146 175.58 163.71C175.004 164.38 174.247 164.869 173.4 165.12C173.447 165.359 173.447 165.604 173.399 165.843C173.351 166.082 173.256 166.308 173.12 166.51C172.28 167.94 169.86 169 167.2 169ZM166.31 162.06C166.65 162.31 167.13 162.64 167.82 163.06C168.895 163.785 170.13 164.238 171.42 164.38C169.81 163.415 168.096 162.636 166.31 162.06ZM169.8 157.81C170.087 158.351 170.486 158.825 170.97 159.2C172.45 160.57 173.8 161.2 175.1 161.04H175.42C175.349 160.729 175.197 160.443 174.98 160.21C173.58 158.63 170.5 157.65 169.8 157.81Z" fill="#013943"/>
<path d="M305.929 87.9999C305.456 83.1456 304.381 78.369 302.729 73.7799C301.03 69.3841 298.669 65.2734 295.729 61.5899C292.249 57.3046 287.926 53.7786 283.029 51.2299C277.696 48.3033 270.622 46.2666 261.809 45.1199C243.509 42.7333 229.249 45.9799 219.029 54.8599C208.809 63.7399 202.076 80.7399 198.829 105.86C197.533 115.248 197.198 124.744 197.829 134.2C198.496 142.867 200.089 149.843 202.609 155.13C205.816 162.259 210.875 168.399 217.259 172.91C223.572 177.343 232.239 180.273 243.259 181.7C262.846 184.253 277.369 180.49 286.829 170.41C296.289 160.33 302.556 143.297 305.629 119.31C306.995 108.924 307.096 98.4103 305.929 87.9999Z" fill="#008BA2"/>
<path d="M252.269 171.43C249.859 171.35 247.269 171.13 244.659 170.79C235.499 169.6 228.419 167.28 223.599 163.9C218.792 160.506 214.992 155.876 212.599 150.5L212.549 150.39C210.629 146.39 209.369 140.64 208.819 133.39C208.237 124.681 208.545 115.936 209.739 107.29C213.309 79.5699 220.679 67.9999 226.229 63.1799C232.709 57.5599 241.459 55.0199 252.959 55.4199C255.319 55.4999 257.819 55.7099 260.389 56.0399C267.769 57.0399 273.619 58.6399 277.759 60.8999C281.336 62.7422 284.503 65.2901 287.069 68.3899C289.314 71.1896 291.118 74.3156 292.419 77.6599C293.748 81.389 294.608 85.2687 294.979 89.2099C296.046 98.7597 295.948 108.404 294.689 117.93C291.919 139.47 286.559 154.61 278.769 162.93C272.989 169.09 264.319 171.93 252.259 171.47L252.269 171.43Z" fill="#013943"/>
<path d="M271.839 88.2899L271.969 84.4999L269.639 83.74C269.54 82.4581 269.332 81.1869 269.019 79.9399L271.019 78.4799L269.679 74.9199L267.239 75.1199C266.665 73.9758 265.996 72.8819 265.239 71.8499L266.499 69.7399L263.899 66.9699L261.719 68.0899C260.743 67.2513 259.7 66.4954 258.599 65.8299L258.949 63.41L255.489 61.8399L253.909 63.6999C252.685 63.3034 251.431 63.0091 250.159 62.8199L249.569 60.4499L245.769 60.3199L245.019 62.6399C243.737 62.7425 242.466 62.9499 241.219 63.2599L239.749 61.2599L236.189 62.5899L236.389 65.0299C235.245 65.6042 234.151 66.2732 233.119 67.0299L231.019 65.7599L228.239 68.3499L229.359 70.5399C228.518 71.5147 227.765 72.5622 227.109 73.6699L224.689 73.2999L223.109 76.7599L224.979 78.3399C224.573 79.5642 224.278 80.8227 224.099 82.1L221.719 82.6999L221.589 86.4799L223.919 87.24C224.016 88.5253 224.224 89.8 224.539 91.0499L222.539 92.4999L223.879 96.0599L226.319 95.8599C226.887 97.0073 227.556 98.1016 228.319 99.13L227.049 101.24L229.649 104.01L231.829 102.9C232.805 103.735 233.848 104.488 234.949 105.15L234.589 107.57L238.049 109.14L239.639 107.29C240.866 107.684 242.123 107.975 243.399 108.16L243.989 110.54L247.779 110.67L248.529 108.34C249.814 108.242 251.089 108.035 252.339 107.72L253.789 109.72L257.349 108.39L257.159 105.96C258.299 105.378 259.392 104.71 260.429 103.96L262.529 105.22L265.309 102.63L264.199 100.44C265.037 99.4685 265.786 98.4244 266.439 97.32L268.859 97.6799L270.439 94.2199L268.579 92.6399C268.977 91.4175 269.268 90.1628 269.449 88.8899L271.839 88.2899ZM246.239 100.56C243.277 100.452 240.414 99.4685 238.01 97.7344C235.606 96.0002 233.771 93.5929 232.734 90.8162C231.697 88.0396 231.507 85.0181 232.186 82.1331C232.865 79.2481 234.383 76.629 236.55 74.6062C238.716 72.5835 241.433 71.2479 244.358 70.7679C247.282 70.288 250.284 70.6852 252.983 71.9095C255.682 73.1338 257.958 75.1303 259.523 77.6469C261.089 80.1636 261.874 83.0876 261.779 86.0499C261.716 88.0245 261.263 89.967 260.447 91.7661C259.631 93.5652 258.468 95.1854 257.024 96.5337C255.58 97.8819 253.884 98.9316 252.033 99.6226C250.182 100.314 248.213 100.632 246.239 100.56Z" fill="#008BA2"/>
<path opacity="0.3" d="M287.619 157.87L287.899 155.31L286.359 154.69C286.356 153.819 286.283 152.949 286.139 152.09L287.529 151.2L286.819 148.73H285.159C284.831 147.927 284.432 147.154 283.969 146.42L284.909 145.06L283.309 143.06L281.779 143.7C281.159 143.087 280.49 142.525 279.779 142.02L280.149 140.4L277.899 139.16L276.719 140.35C275.915 140.019 275.086 139.755 274.239 139.56L273.959 137.93L271.409 137.64L270.779 139.18C269.91 139.184 269.043 139.264 268.189 139.42L267.299 138L264.829 138.73V140.39C264.025 140.722 263.252 141.123 262.519 141.59L261.159 140.59L259.159 142.19L259.799 143.72C259.189 144.34 258.631 145.009 258.129 145.72L256.509 145.36L255.279 147.61L256.459 148.78C256.124 149.585 255.859 150.419 255.669 151.27L254.029 151.54L253.759 154.09L255.289 154.73C255.29 155.595 255.367 156.458 255.519 157.31L254.109 158.2L254.829 160.67H256.499C256.833 161.469 257.234 162.239 257.699 162.97L256.699 164.33L258.299 166.33L259.849 165.68C260.464 166.295 261.134 166.854 261.849 167.35L261.499 169L263.749 170.23L264.919 169.06C265.723 169.383 266.553 169.64 267.399 169.83L267.689 171.47L270.239 171.75L270.859 170.22C271.743 170.219 272.626 170.145 273.499 170L274.389 171.41L276.849 170.69V169.03C277.653 168.692 278.429 168.291 279.169 167.83L280.509 168.83L282.509 167.22L281.859 165.69C282.475 165.07 283.04 164.401 283.549 163.69L285.159 164.05L286.399 161.8L285.219 160.64C285.54 159.835 285.798 159.006 285.989 158.16L287.619 157.87ZM274.749 156.87C274.326 157.644 273.682 158.275 272.9 158.684C272.118 159.093 271.233 159.26 270.355 159.165C269.478 159.07 268.649 158.717 267.972 158.151C267.296 157.584 266.802 156.83 266.555 155.983C266.307 155.136 266.316 154.235 266.58 153.393C266.845 152.552 267.353 151.807 268.041 151.255C268.729 150.702 269.565 150.366 270.444 150.288C271.323 150.211 272.205 150.396 272.979 150.82C274.013 151.39 274.78 152.346 275.112 153.48C275.443 154.613 275.313 155.832 274.749 156.87Z" fill="#008BA2"/>
<path d="M301.789 114.65L298.789 112.59C298.494 111.519 298.092 110.48 297.589 109.49L298.349 106.49L294.029 101.86L291.029 102.42C290.077 101.853 289.072 101.381 288.029 101.01L286.179 97.8899L279.849 97.6799L277.789 100.68C276.717 100.971 275.678 101.373 274.689 101.88L271.689 101.11L267.059 105.44L267.619 108.44C267.044 109.387 266.572 110.393 266.209 111.44L263.099 113.29L262.879 119.62L265.879 121.68C266.17 122.759 266.572 123.804 267.079 124.8L266.319 127.8L270.639 132.43L273.639 131.88C274.591 132.446 275.596 132.918 276.639 133.29L278.479 136.4L284.819 136.62L286.869 133.62C287.95 133.327 288.999 132.924 289.999 132.42L292.999 133.18L297.629 128.86L297.079 125.86C297.647 124.909 298.12 123.904 298.489 122.86L301.599 121.01L301.789 114.65ZM282.059 124.27C280.651 124.222 279.29 123.757 278.147 122.935C277.003 122.113 276.129 120.97 275.635 119.651C275.141 118.332 275.05 116.897 275.372 115.526C275.694 114.155 276.415 112.91 277.445 111.949C278.474 110.988 279.766 110.354 281.155 110.127C282.545 109.9 283.971 110.09 285.253 110.674C286.535 111.257 287.615 112.208 288.356 113.405C289.098 114.602 289.468 115.993 289.419 117.4C289.351 119.286 288.538 121.068 287.159 122.356C285.779 123.644 283.945 124.332 282.059 124.27Z" fill="white"/>
<path d="M323.499 64.12L324.019 62.87C324.373 62.6707 324.708 62.4398 325.019 62.18H326.179L327.539 60.18L327.099 59.11C327.268 58.7536 327.402 58.3819 327.499 58L328.499 57.08L328.079 54.73L326.819 54.21C326.622 53.8554 326.391 53.5205 326.129 53.21V52.05L324.179 50.69L323.099 51.14C322.705 51.0009 322.295 50.907 321.879 50.86L320.959 49.86L318.619 50.28L318.089 51.54C317.718 51.7324 317.367 51.9601 317.039 52.22H315.889L314.529 54.22L314.969 55.29C314.835 55.6861 314.741 56.0949 314.689 56.51L313.689 57.44L314.109 59.78L315.369 60.3C315.56 60.6564 315.788 60.9916 316.049 61.3V62.45L318.049 63.81L319.119 63.37C319.52 63.5 319.932 63.5904 320.349 63.64L321.269 64.64L323.499 64.12ZM318.499 57.64C318.405 57.1182 318.467 56.5801 318.679 56.0938C318.89 55.6075 319.241 55.1948 319.687 54.908C320.133 54.6211 320.654 54.473 321.184 54.4825C321.714 54.4919 322.23 54.6584 322.665 54.9609C323.101 55.2634 323.437 55.6883 323.631 56.1818C323.825 56.6753 323.868 57.2153 323.755 57.7334C323.642 58.2514 323.378 58.7243 322.996 59.0922C322.614 59.4601 322.131 59.7064 321.609 59.8C320.911 59.9225 320.192 59.7644 319.61 59.3599C319.028 58.9554 318.628 58.3372 318.499 57.64Z" fill="#008BA2"/>
<path d="M296.109 57.49L295.339 56.84C296.989 54.7933 299.028 53.0939 301.339 51.84L301.809 52.72C299.611 53.9164 297.674 55.5378 296.109 57.49Z" fill="#008BA2"/>
<path d="M304.089 51.7999L303.699 50.8799C307.392 49.2752 311.43 48.6285 315.439 48.9999L315.339 49.9999C311.497 49.6378 307.626 50.2572 304.089 51.7999Z" fill="#008BA2"/>
<path d="M302.199 58.7199L301.379 58.1599C303.788 54.9065 307.294 52.6364 311.249 51.7699L311.439 52.7699C307.743 53.5769 304.463 55.6895 302.199 58.7199Z" fill="#008BA2"/>
<path d="M394.63 224.74H394.5C394.37 224.716 394.255 224.641 394.18 224.532C394.105 224.424 394.076 224.29 394.1 224.16L417.5 96.2199C417.526 96.0914 417.602 95.9781 417.71 95.9036C417.818 95.8291 417.95 95.7991 418.08 95.8199C418.209 95.8442 418.324 95.9188 418.399 96.0275C418.474 96.1361 418.503 96.27 418.48 96.3999L395.13 224.33C395.107 224.445 395.044 224.549 394.953 224.624C394.862 224.699 394.748 224.74 394.63 224.74Z" fill="#013943"/>
<path d="M415.329 98.3699C415.321 98.5874 415.227 98.7928 415.068 98.941C414.908 99.0891 414.697 99.1679 414.479 99.16C414.262 99.152 414.056 99.058 413.908 98.8986C413.76 98.7392 413.681 98.5274 413.689 98.31C413.697 98.0925 413.791 97.8871 413.95 97.7389C414.11 97.5908 414.322 97.512 414.539 97.52C414.757 97.5279 414.962 97.6219 415.11 97.7813C415.258 97.9407 415.337 98.1525 415.329 98.3699Z" fill="#013943"/>
<path d="M411.999 115.67C411.993 115.832 411.939 115.989 411.844 116.12C411.749 116.251 411.617 116.352 411.465 116.408C411.313 116.465 411.148 116.475 410.99 116.437C410.832 116.4 410.689 116.316 410.579 116.198C410.468 116.079 410.396 115.93 410.37 115.77C410.344 115.61 410.366 115.446 410.434 115.298C410.501 115.151 410.611 115.027 410.749 114.942C410.887 114.857 411.047 114.814 411.209 114.82C411.317 114.824 411.422 114.849 411.52 114.894C411.618 114.939 411.707 115.002 411.78 115.081C411.853 115.16 411.91 115.253 411.948 115.354C411.986 115.455 412.003 115.562 411.999 115.67Z" fill="#013943"/>
<path d="M408.669 133C408.665 133.108 408.64 133.214 408.595 133.312C408.55 133.41 408.487 133.498 408.408 133.571C408.329 133.645 408.236 133.702 408.135 133.739C408.034 133.777 407.927 133.794 407.819 133.79C407.712 133.787 407.606 133.764 407.508 133.72C407.41 133.676 407.322 133.613 407.248 133.535C407.175 133.457 407.118 133.365 407.08 133.265C407.042 133.164 407.025 133.057 407.029 132.95C407.031 132.841 407.056 132.734 407.1 132.635C407.144 132.536 407.208 132.447 407.287 132.372C407.366 132.298 407.459 132.24 407.56 132.202C407.662 132.164 407.77 132.146 407.879 132.15C408.096 132.16 408.299 132.255 408.447 132.414C408.595 132.573 408.674 132.783 408.669 133Z" fill="#013943"/>
<path d="M402.11 151C402.087 151.2 401.992 151.386 401.842 151.52C401.691 151.655 401.496 151.729 401.295 151.729C401.093 151.729 400.898 151.655 400.748 151.52C400.597 151.386 400.502 151.2 400.48 151C400.467 150.885 400.478 150.769 400.514 150.659C400.549 150.55 400.607 150.448 400.684 150.363C400.761 150.277 400.855 150.208 400.96 150.161C401.065 150.114 401.179 150.089 401.295 150.089C401.41 150.089 401.524 150.114 401.629 150.161C401.734 150.208 401.829 150.277 401.906 150.363C401.982 150.448 402.04 150.55 402.076 150.659C402.111 150.769 402.122 150.885 402.11 151Z" fill="#013943"/>
<path d="M401.999 167.57C401.996 167.678 401.972 167.785 401.928 167.883C401.883 167.982 401.82 168.071 401.741 168.144C401.661 168.218 401.568 168.275 401.467 168.312C401.365 168.349 401.257 168.365 401.149 168.36C400.987 168.354 400.83 168.3 400.699 168.205C400.567 168.11 400.467 167.978 400.411 167.826C400.354 167.674 400.344 167.509 400.382 167.351C400.419 167.193 400.502 167.05 400.621 166.94C400.74 166.829 400.889 166.757 401.049 166.731C401.209 166.705 401.373 166.727 401.52 166.795C401.668 166.862 401.792 166.972 401.877 167.11C401.962 167.248 402.005 167.408 401.999 167.57Z" fill="#013943"/>
<path d="M398.669 184.87C398.665 185.032 398.613 185.19 398.519 185.323C398.425 185.456 398.294 185.557 398.142 185.615C397.99 185.673 397.824 185.685 397.666 185.649C397.507 185.612 397.363 185.53 397.252 185.411C397.141 185.293 397.067 185.144 397.04 184.984C397.014 184.823 397.035 184.658 397.103 184.51C397.17 184.362 397.28 184.238 397.418 184.152C397.556 184.067 397.717 184.024 397.879 184.03C398.095 184.038 398.299 184.13 398.447 184.288C398.595 184.445 398.674 184.654 398.669 184.87Z" fill="#013943"/>
<path d="M395.339 202.17C395.331 202.388 395.237 202.595 395.078 202.745C394.919 202.894 394.707 202.975 394.489 202.97C394.381 202.966 394.275 202.941 394.177 202.896C394.079 202.851 393.991 202.788 393.918 202.709C393.844 202.63 393.787 202.537 393.75 202.436C393.712 202.335 393.695 202.228 393.699 202.12C393.702 202.012 393.727 201.906 393.771 201.808C393.815 201.71 393.878 201.621 393.957 201.547C394.035 201.474 394.127 201.416 394.228 201.378C394.329 201.34 394.436 201.322 394.544 201.325C394.651 201.328 394.757 201.353 394.856 201.397C394.954 201.441 395.042 201.504 395.116 201.583C395.19 201.661 395.248 201.754 395.286 201.854C395.324 201.955 395.342 202.062 395.339 202.17Z" fill="#013943"/>
<path d="M391.999 219.48C391.993 219.642 391.939 219.799 391.844 219.93C391.749 220.061 391.617 220.162 391.465 220.218C391.313 220.275 391.148 220.285 390.99 220.247C390.832 220.21 390.689 220.126 390.579 220.008C390.468 219.889 390.396 219.74 390.37 219.58C390.344 219.42 390.366 219.256 390.434 219.108C390.501 218.961 390.611 218.837 390.749 218.752C390.887 218.666 391.047 218.624 391.209 218.63C391.317 218.632 391.423 218.657 391.522 218.701C391.621 218.745 391.709 218.809 391.783 218.888C391.857 218.967 391.914 219.061 391.951 219.162C391.988 219.264 392.004 219.372 391.999 219.48Z" fill="#013943"/>
<path d="M401.29 151.45C401.177 151.45 401.068 151.411 400.98 151.34C400.893 151.269 400.832 151.17 400.809 151.06C400.795 150.996 400.793 150.929 400.804 150.864C400.815 150.799 400.839 150.737 400.874 150.681C400.91 150.625 400.956 150.577 401.01 150.539C401.064 150.501 401.125 150.474 401.189 150.46L403.67 149.93C403.735 149.915 403.802 149.914 403.868 149.926C403.933 149.937 403.996 149.962 404.052 149.999C404.108 150.035 404.156 150.082 404.193 150.137C404.23 150.192 404.256 150.255 404.269 150.32C404.283 150.384 404.283 150.451 404.27 150.515C404.258 150.58 404.233 150.641 404.197 150.696C404.161 150.75 404.114 150.798 404.059 150.834C404.005 150.871 403.944 150.897 403.88 150.91L401.399 151.44L401.29 151.45Z" fill="#013943"/>
<path d="M409.579 142.24C408.399 145.3 407.398 148.425 406.579 151.6C405.829 155.13 405.789 163.03 405.789 163.03" fill="#013943"/>
<path d="M405.789 163.53C405.656 163.525 405.531 163.469 405.438 163.374C405.345 163.279 405.292 163.153 405.289 163.02C405.289 162.7 405.349 155.02 406.099 151.5C406.913 148.297 407.915 145.145 409.099 142.06C409.119 141.994 409.152 141.933 409.197 141.881C409.242 141.828 409.297 141.786 409.359 141.756C409.42 141.726 409.488 141.709 409.556 141.706C409.625 141.703 409.694 141.714 409.758 141.739C409.822 141.764 409.88 141.802 409.929 141.85C409.978 141.898 410.017 141.956 410.042 142.02C410.067 142.084 410.079 142.153 410.077 142.221C410.075 142.29 410.059 142.358 410.029 142.42C408.851 145.456 407.849 148.558 407.029 151.71C406.299 155.15 406.249 162.95 406.239 163.03C406.24 163.154 406.194 163.274 406.111 163.367C406.028 163.459 405.913 163.517 405.789 163.53Z" fill="#013943"/>
<path d="M222.95 249.84C224.34 227.44 221.79 186.71 263.9 192.11C309.03 197.88 296.12 250.66 296.12 250.66L222.95 249.84Z" fill="#013943"/>
<path d="M252.01 236.38C262.161 236.38 270.39 228.151 270.39 218C270.39 207.849 262.161 199.62 252.01 199.62C241.859 199.62 233.63 207.849 233.63 218C233.63 228.151 241.859 236.38 252.01 236.38Z" fill="white"/>
<path d="M254.43 199.65C245.72 198.17 236.43 204.58 235.5 211.08L270.01 214.26C268.79 206.85 261.33 200.83 254.43 199.65Z" fill="#013943"/>
<path d="M266.08 217.54C265.83 222.35 263.21 226.12 260.23 225.96C257.25 225.8 255.03 221.79 255.23 216.96C255.43 212.13 258.1 208.38 261.08 208.54C264.06 208.7 266.32 212.74 266.08 217.54Z" fill="#013943"/>
<path d="M252.01 237.38C248.177 237.38 244.43 236.243 241.243 234.114C238.056 231.984 235.572 228.958 234.105 225.416C232.638 221.875 232.254 217.978 233.002 214.219C233.75 210.46 235.596 207.007 238.306 204.296C241.017 201.586 244.47 199.74 248.229 198.992C251.988 198.245 255.885 198.628 259.426 200.095C262.968 201.562 265.994 204.046 268.124 207.233C270.253 210.42 271.39 214.167 271.39 218C271.385 223.138 269.341 228.065 265.708 231.698C262.074 235.331 257.148 237.375 252.01 237.38ZM252.01 200.63C248.572 200.63 245.211 201.65 242.353 203.56C239.495 205.47 237.267 208.185 235.952 211.361C234.637 214.538 234.293 218.033 234.965 221.404C235.636 224.776 237.292 227.873 239.724 230.303C242.156 232.733 245.253 234.388 248.625 235.057C251.997 235.727 255.492 235.381 258.668 234.064C261.843 232.747 264.557 230.518 266.466 227.659C268.374 224.799 269.392 221.438 269.39 218C269.385 213.393 267.551 208.977 264.293 205.72C261.034 202.463 256.617 200.633 252.01 200.63Z" fill="#008BA2"/>
<path opacity="0.3" d="M290.99 249.28H290.87C290.805 249.266 290.745 249.239 290.691 249.201C290.637 249.163 290.592 249.114 290.557 249.058C290.523 249.002 290.5 248.94 290.49 248.875C290.48 248.81 290.483 248.744 290.5 248.68C290.5 248.55 293.72 234.99 290.41 221.28C290.378 221.147 290.4 221.008 290.471 220.891C290.543 220.775 290.657 220.692 290.79 220.66C290.922 220.628 291.062 220.65 291.178 220.722C291.295 220.793 291.378 220.907 291.41 221.04C294.78 235.04 291.53 248.78 291.5 248.91C291.47 249.021 291.403 249.118 291.31 249.185C291.217 249.253 291.104 249.286 290.99 249.28Z" fill="white"/>
<path opacity="0.3" d="M288.2 213.76C288.104 213.759 288.01 213.731 287.929 213.68C287.848 213.629 287.783 213.556 287.74 213.47C286.497 210.723 284.904 208.148 283 205.81C282.917 205.708 282.878 205.577 282.891 205.446C282.904 205.315 282.969 205.194 283.07 205.11C283.121 205.067 283.18 205.035 283.243 205.016C283.307 204.996 283.374 204.99 283.44 204.996C283.506 205.003 283.57 205.022 283.628 205.054C283.687 205.085 283.738 205.128 283.78 205.18C285.731 207.586 287.368 210.23 288.65 213.05C288.679 213.109 288.695 213.173 288.698 213.238C288.702 213.304 288.692 213.369 288.669 213.431C288.647 213.492 288.613 213.549 288.568 213.597C288.523 213.645 288.47 213.683 288.41 213.71C288.344 213.741 288.273 213.758 288.2 213.76Z" fill="white"/>
<path d="M129.23 354.92H128.86C127.534 354.883 126.277 354.32 125.365 353.356C124.454 352.393 123.963 351.106 124 349.78C124.037 348.454 124.6 347.197 125.563 346.285C126.527 345.374 127.814 344.883 129.14 344.92H129.23C132.12 344.92 139.07 341.41 153.61 318.49C153.996 317.881 154.509 317.363 155.114 316.971C155.719 316.579 156.401 316.323 157.115 316.219C157.828 316.116 158.555 316.168 159.246 316.371C159.938 316.575 160.577 316.926 161.12 317.4C172.539 327.216 184.992 335.76 198.26 342.88C198.874 343.159 199.425 343.56 199.88 344.058C200.335 344.556 200.685 345.14 200.908 345.777C201.132 346.413 201.224 347.089 201.179 347.762C201.134 348.435 200.954 349.092 200.649 349.693C200.344 350.295 199.92 350.828 199.403 351.262C198.887 351.695 198.287 352.02 197.642 352.216C196.996 352.412 196.318 352.475 195.647 352.402C194.977 352.329 194.328 352.12 193.74 351.79C181.409 345.237 169.752 337.487 158.94 328.65C146.75 347 137.71 354.92 129.23 354.92Z" fill="#013943"/>
<path d="M160.171 316.5H159.741C158.955 316.386 158.246 315.965 157.77 315.33C157.294 314.694 157.089 313.896 157.201 313.11C157.911 308.11 157.031 289.48 150.721 274.98C150.441 274.339 150.393 273.621 150.587 272.949C150.78 272.277 151.203 271.694 151.781 271.3C165.481 261.97 194.661 260.85 195.901 260.81C196.294 260.797 196.687 260.861 197.056 261C197.425 261.139 197.763 261.349 198.051 261.618C198.339 261.887 198.571 262.21 198.734 262.569C198.897 262.928 198.987 263.316 199.001 263.71C199.014 264.104 198.949 264.497 198.81 264.866C198.672 265.235 198.462 265.573 198.193 265.86C197.923 266.148 197.6 266.38 197.241 266.543C196.882 266.706 196.494 266.797 196.101 266.81C195.831 266.81 170.321 267.81 157.221 275.01C162.801 289.45 164.071 307.44 163.141 313.95C163.033 314.66 162.674 315.308 162.129 315.776C161.584 316.244 160.889 316.501 160.171 316.5Z" fill="#013943"/>
<path d="M165.21 312.62C163.21 307.91 154.21 308.44 148.94 312.48C146.12 314.63 142.3 321.12 141.94 323.48C141.82 324.041 141.838 324.622 141.992 325.174C142.147 325.727 142.433 326.233 142.826 326.65C143.22 327.068 143.709 327.383 144.251 327.569C144.794 327.755 145.373 327.807 145.94 327.72C149.39 327.42 154.12 322.41 154.12 322.41C150.97 325.5 155.04 327.68 161.12 323.21C164.44 320.72 167.44 317.89 165.21 312.62Z" fill="#008BA2"/>
<path d="M337.211 251.16C337.164 251.17 337.117 251.17 337.071 251.16C337.007 251.143 336.947 251.113 336.895 251.072C336.843 251.031 336.8 250.98 336.768 250.922C336.737 250.865 336.717 250.801 336.71 250.735C336.704 250.669 336.711 250.603 336.731 250.54C338.061 245.9 339.511 243.07 341.421 241.54C341.121 240.464 341.177 239.321 341.581 238.28C342.047 237.065 342.869 236.019 343.941 235.28C343.649 234.965 343.442 234.582 343.339 234.166C343.236 233.75 343.24 233.314 343.351 232.9C343.713 231.647 344.462 230.541 345.491 229.74C345.12 229.325 344.916 228.787 344.921 228.23C344.921 225.23 350.431 220.71 356.681 219.85C356.813 219.831 356.948 219.866 357.055 219.947C357.161 220.028 357.232 220.147 357.251 220.28C357.269 220.413 357.234 220.547 357.154 220.654C357.073 220.761 356.953 220.831 356.821 220.85C350.881 221.66 345.901 225.96 345.921 228.23C345.918 228.568 346.047 228.895 346.281 229.14C347.626 228.228 349.139 227.593 350.732 227.272C352.326 226.95 353.967 226.95 355.561 227.27C358.631 227.86 359.881 228.51 359.741 229.44C359.461 231.19 352.931 231.56 348.551 231.04C347.766 230.969 347.002 230.748 346.301 230.39C345.358 231.061 344.656 232.019 344.301 233.12C344.215 233.411 344.215 233.721 344.302 234.013C344.389 234.304 344.559 234.563 344.791 234.76C346.651 233.76 349.261 233.4 352.711 234.16C357.241 235.16 357.411 235.71 357.521 236.04C357.556 236.157 357.559 236.281 357.529 236.399C357.499 236.517 357.437 236.624 357.351 236.71C356.401 237.71 349.451 237.24 345.961 236.38C345.539 236.284 345.132 236.133 344.751 235.93C343.718 236.558 342.922 237.511 342.491 238.64C342.202 239.37 342.122 240.167 342.261 240.94C342.439 240.833 342.622 240.737 342.811 240.65C344.881 239.65 347.381 239.83 350.471 241.15C352.471 242.02 353.471 242.8 353.571 243.59C353.575 243.793 353.524 243.993 353.424 244.169C353.323 244.345 353.177 244.49 353.001 244.59C351.471 245.59 346.131 245.45 343.351 243.97C342.711 243.623 342.179 243.107 341.811 242.48C340.181 243.98 338.861 246.65 337.661 250.84C337.624 250.931 337.562 251.009 337.483 251.066C337.403 251.123 337.308 251.155 337.211 251.16ZM342.631 241.83C342.909 242.347 343.333 242.772 343.851 243.05C346.111 244.25 350.551 244.52 352.211 243.85C352.551 243.71 352.601 243.6 352.601 243.6C352.601 243.6 352.551 243.04 350.101 241.99C347.301 240.79 345.101 240.62 343.271 241.47C343.05 241.576 342.836 241.697 342.631 241.83ZM345.971 235.26L346.221 235.33C349.477 236.08 352.828 236.333 356.161 236.08C354.979 235.642 353.761 235.307 352.521 235.08C350.367 234.496 348.089 234.559 345.971 235.26ZM347.231 229.64C347.692 229.805 348.172 229.913 348.661 229.96C353.661 230.55 358.051 229.86 358.661 229.23C358.491 229.08 357.821 228.65 355.341 228.18C352.55 227.623 349.652 228.145 347.231 229.64Z" fill="#013943"/>
<path d="M207.03 353.25C207.69 353.04 207.47 352.4 206.73 352.4H193.19C167.41 349.67 149.4 353.33 160.75 354.19C172.1 355.05 159.95 354.87 151.66 358.01C143.37 361.15 213.31 361.94 219.66 358.01C225.5 354.39 197.89 356.18 207.03 353.25Z" fill="#013943"/>
<path d="M303.97 357.24L186.17 353.33L181.28 239.11L320.39 242.22L303.97 357.24Z" fill="#008BA2"/>
<path d="M222.95 355.05C222.824 355.05 222.702 355.003 222.61 354.918C222.517 354.833 222.46 354.716 222.45 354.59L213.01 239.87C213.001 239.738 213.045 239.608 213.131 239.507C213.216 239.406 213.338 239.343 213.47 239.33C213.601 239.324 213.73 239.368 213.83 239.454C213.931 239.539 213.995 239.659 214.01 239.79L223.5 354.51C223.505 354.576 223.498 354.642 223.478 354.705C223.457 354.767 223.425 354.826 223.382 354.876C223.339 354.926 223.287 354.967 223.228 354.997C223.17 355.027 223.106 355.045 223.04 355.05H222.95Z" fill="#013943"/>
<path d="M303.97 357.24L335.63 352.42L345.6 246.21L320.39 242.22L303.97 357.24Z" fill="#008BA2"/>
<path opacity="0.2" d="M303.97 357.24L335.63 352.42L345.6 246.21L320.39 242.22L303.97 357.24Z" fill="#303030"/>
<path d="M196.23 331.32L193.33 263.45C193.259 261.773 193.532 260.1 194.133 258.533C194.734 256.966 195.65 255.539 196.825 254.34C197.999 253.142 199.407 252.196 200.961 251.563C202.515 250.93 204.183 250.623 205.86 250.66L293.921 252.66C295.654 252.699 297.36 253.105 298.926 253.852C300.491 254.599 301.881 255.669 303.002 256.992C304.124 258.315 304.952 259.86 305.433 261.527C305.914 263.193 306.035 264.943 305.79 266.66L296.03 335C295.608 337.993 294.096 340.725 291.784 342.672C289.471 344.619 286.522 345.644 283.5 345.55L208.11 343.05C205.016 342.954 202.071 341.692 199.868 339.517C197.665 337.341 196.365 334.413 196.23 331.32Z" fill="#013943"/>
<path d="M205.75 271.49L219.37 271.92L219.26 275.43L210.73 275.16L210.65 277.78L218.56 278.03L218.45 281.39L210.54 281.13L210.44 284.38L219.21 284.66L219.09 288.38L205.22 287.94L205.75 271.49Z" fill="white"/>
<path d="M221.9 288.47L222.42 272.02L230.9 272.29C232.116 272.284 233.326 272.459 234.49 272.81C235.316 273.086 236.021 273.637 236.49 274.37C236.838 274.904 237.072 275.504 237.177 276.132C237.283 276.76 237.258 277.404 237.104 278.022C236.95 278.64 236.671 279.22 236.283 279.725C235.895 280.231 235.408 280.651 234.85 280.96C234.282 281.253 233.671 281.455 233.04 281.56C233.505 281.71 233.947 281.925 234.35 282.2C234.642 282.471 234.904 282.773 235.13 283.1C235.388 283.411 235.616 283.746 235.81 284.1L238.12 288.95L232.38 288.76L229.82 283.65C229.617 283.162 229.318 282.72 228.94 282.35C228.581 282.09 228.153 281.944 227.71 281.93H227.26L227.05 288.6L221.9 288.47ZM227.32 278.85L229.46 278.92C229.915 278.892 230.366 278.829 230.81 278.73C231.145 278.679 231.449 278.504 231.66 278.24C231.877 277.973 232 277.643 232.01 277.3C232.029 277.071 231.997 276.841 231.916 276.627C231.834 276.412 231.706 276.219 231.54 276.06C230.982 275.699 230.323 275.528 229.66 275.57L227.42 275.5L227.32 278.85Z" fill="white"/>
<path d="M239.78 289L240.3 272.55L248.77 272.82C249.986 272.813 251.196 272.988 252.36 273.34C253.187 273.613 253.894 274.165 254.36 274.9C254.868 275.701 255.106 276.644 255.04 277.59C255.043 278.388 254.83 279.172 254.423 279.859C254.017 280.545 253.432 281.109 252.73 281.49C252.161 281.781 251.551 281.983 250.92 282.09C251.382 282.239 251.82 282.455 252.22 282.73C252.519 282.993 252.785 283.292 253.01 283.62C253.266 283.933 253.493 284.267 253.69 284.62L256 289.46L250.26 289.28L247.7 284.17C247.496 283.683 247.197 283.241 246.82 282.87C246.463 282.6 246.028 282.453 245.58 282.45H245.14L244.92 289.13L239.78 289ZM245.19 279.38L247.34 279.44C247.795 279.423 248.247 279.362 248.69 279.26C249.023 279.21 249.324 279.035 249.53 278.77C249.754 278.508 249.878 278.175 249.88 277.83C249.902 277.602 249.872 277.372 249.792 277.157C249.713 276.943 249.585 276.749 249.42 276.59C248.863 276.22 248.197 276.048 247.53 276.1L245.3 276.03L245.19 279.38Z" fill="white"/>
<path d="M256.821 281.36C256.743 280.212 256.921 279.061 257.342 277.99C257.762 276.919 258.415 275.955 259.252 275.166C260.09 274.377 261.092 273.784 262.186 273.428C263.28 273.073 264.439 272.964 265.581 273.11C266.732 273.072 267.88 273.265 268.955 273.679C270.031 274.093 271.012 274.719 271.841 275.52C272.58 276.372 273.139 277.365 273.483 278.439C273.827 279.514 273.948 280.647 273.841 281.77C273.849 283.404 273.465 285.015 272.721 286.47C272.046 287.66 271.038 288.627 269.821 289.25C268.386 289.936 266.797 290.239 265.211 290.13C263.628 290.143 262.063 289.802 260.631 289.13C259.411 288.468 258.415 287.459 257.771 286.23C257.014 284.724 256.686 283.04 256.821 281.36ZM261.901 281.54C261.751 282.801 262.036 284.074 262.711 285.15C263.026 285.502 263.409 285.787 263.837 285.988C264.264 286.188 264.728 286.301 265.2 286.319C265.672 286.336 266.143 286.259 266.585 286.091C267.027 285.923 267.43 285.667 267.771 285.34C268.512 284.217 268.863 282.882 268.771 281.54C268.905 280.335 268.611 279.121 267.941 278.11C267.637 277.761 267.263 277.481 266.842 277.289C266.42 277.097 265.963 276.999 265.501 277C265.034 276.966 264.566 277.039 264.131 277.212C263.696 277.385 263.306 277.655 262.991 278C262.233 279.021 261.849 280.27 261.901 281.54Z" fill="white"/>
<path d="M276.41 290.21L276.93 273.75L285.4 274.02C286.616 274.018 287.825 274.193 288.99 274.54C289.813 274.821 290.518 275.37 290.99 276.1C291.495 276.902 291.733 277.844 291.67 278.79C291.675 279.59 291.463 280.376 291.056 281.064C290.649 281.753 290.063 282.318 289.36 282.7C288.788 282.983 288.179 283.182 287.55 283.29C288.013 283.442 288.451 283.661 288.85 283.94C289.149 284.203 289.414 284.502 289.64 284.83C289.898 285.141 290.125 285.476 290.32 285.83L292.63 290.68L286.89 290.5L284.33 285.38C284.127 284.895 283.827 284.456 283.45 284.09C283.091 283.822 282.658 283.671 282.21 283.66H281.77L281.55 290.34L276.41 290.21ZM281.82 280.58L283.97 280.65C284.425 280.633 284.877 280.572 285.32 280.47C285.651 280.417 285.951 280.242 286.16 279.98C286.396 279.701 286.521 279.345 286.51 278.98C286.532 278.754 286.502 278.525 286.422 278.312C286.342 278.099 286.215 277.907 286.05 277.75C285.492 277.38 284.827 277.208 284.16 277.26L281.93 277.19L281.82 280.58Z" fill="white"/>
<path d="M284.5 318.16C284.312 318.164 284.126 318.127 283.953 318.053C283.781 317.979 283.626 317.869 283.5 317.73L274.94 308.36L265.7 316.8C265.444 317.035 265.105 317.158 264.758 317.143C264.411 317.128 264.085 316.976 263.85 316.72L255.29 307.35L246.05 315.79C245.794 316.025 245.455 316.148 245.108 316.133C244.761 316.118 244.435 315.966 244.2 315.71L235.63 306.34L226.4 314.78C226.265 314.902 226.107 314.995 225.935 315.054C225.763 315.112 225.581 315.135 225.4 315.12C225.052 315.099 224.726 314.945 224.49 314.69L215.93 305.33L206.7 313.76C206.442 313.995 206.102 314.119 205.753 314.104C205.405 314.089 205.076 313.936 204.84 313.68C204.723 313.553 204.633 313.404 204.574 313.242C204.515 313.08 204.489 312.908 204.498 312.736C204.506 312.564 204.549 312.395 204.623 312.24C204.697 312.084 204.801 311.945 204.93 311.83L215.13 302.5C215.388 302.265 215.728 302.141 216.076 302.156C216.425 302.171 216.753 302.324 216.99 302.58L225.55 311.95L234.78 303.51C235.042 303.28 235.381 303.158 235.73 303.17C236.078 303.189 236.405 303.343 236.64 303.6L245.2 312.97L254.44 304.53C254.566 304.413 254.714 304.321 254.876 304.262C255.038 304.202 255.209 304.175 255.382 304.183C255.554 304.19 255.723 304.232 255.879 304.305C256.035 304.379 256.174 304.482 256.29 304.61L264.85 313.98L274.09 305.54C274.346 305.305 274.685 305.182 275.031 305.197C275.378 305.212 275.705 305.364 275.94 305.62L285.5 316C285.671 316.191 285.782 316.427 285.821 316.681C285.86 316.934 285.824 317.193 285.718 317.426C285.612 317.66 285.44 317.857 285.224 317.994C285.008 318.132 284.756 318.203 284.5 318.2V318.16Z" fill="white"/>
<path d="M126.25 359.67L119.99 356.68L114.41 329.51L117.44 326.18L126.25 359.67Z" fill="#008BA2"/>
<path d="M126.25 359.67L134.56 354.81L127.44 332.43L117.44 326.18L126.25 359.67Z" fill="#008BA2"/>
<path opacity="0.2" d="M126.25 359.67L134.56 354.81L127.44 332.43L117.44 326.18L126.25 359.67Z" fill="#303030"/>
<path d="M262.5 364.61H261.81C260.484 364.574 259.227 364.013 258.314 363.05C257.402 362.087 256.909 360.801 256.945 359.475C256.981 358.149 257.542 356.891 258.505 355.979C259.468 355.067 260.754 354.574 262.08 354.61C269.78 354.86 286.08 350.13 295.4 341.09C295.963 340.538 296.648 340.127 297.4 339.89C313.19 335.15 319.06 344.72 319.3 345.13L310.7 350.22C310.73 350.284 310.767 350.344 310.81 350.4C310.72 350.27 308.48 347.4 301.36 349.16C289.67 359.82 271.73 364.61 262.5 364.61Z" fill="#013943"/>
<path d="M261.89 371.25L243.68 370.11L242.25 336.53L266.72 337.44L261.89 371.25Z" fill="#008BA2"/>
<path d="M261.891 371.25L266.151 367.01L268.791 346.08L266.721 337.44L261.891 371.25Z" fill="#008BA2"/>
<path opacity="0.2" d="M261.891 371.25L266.151 367.01L268.791 346.08L266.721 337.44L261.891 371.25Z" fill="#303030"/>
<path d="M367.41 358.54C366.757 358.539 366.121 358.325 365.6 357.93C355.2 350.03 341.15 336 335.76 322.47C335.68 322.274 335.622 322.069 335.59 321.86C332.96 306.22 330.45 273.31 330.34 271.92C330.311 271.526 330.359 271.13 330.483 270.755C330.606 270.379 330.802 270.032 331.06 269.733C331.58 269.128 332.32 268.755 333.115 268.695C333.911 268.635 334.698 268.894 335.303 269.415C335.907 269.935 336.281 270.674 336.34 271.47C336.34 271.8 338.91 305.03 341.47 320.54C346.85 333.7 361.47 347.21 369.25 353.15C369.751 353.53 370.12 354.058 370.305 354.659C370.49 355.26 370.481 355.904 370.28 356.5C370.078 357.095 369.695 357.613 369.184 357.979C368.673 358.345 368.059 358.541 367.43 358.54H367.41Z" fill="#013943"/>
<path d="M381.28 360.05C378.96 360.05 376.33 359 373.46 356.93C372.816 356.463 372.383 355.759 372.257 354.974C372.132 354.188 372.323 353.384 372.79 352.74C373.257 352.095 373.961 351.663 374.746 351.537C375.532 351.412 376.336 351.603 376.98 352.07C379.46 353.86 380.81 354.07 381.28 354.07C382.076 354.07 382.839 354.386 383.401 354.949C383.964 355.511 384.28 356.274 384.28 357.07C384.28 357.866 383.964 358.629 383.401 359.191C382.839 359.754 382.076 360.07 381.28 360.07V360.05Z" fill="#013943"/>
<path d="M374.301 356.84C377.511 347.31 390.671 349.19 395.211 350.61C399.089 351.736 402.808 353.348 406.281 355.41C408.731 357.01 408.771 359.7 405.501 361.23C401.501 363.11 391.341 361.44 391.341 361.44C396.581 363.73 391.341 367.44 382.131 363.8C379.141 362.62 373.171 360.34 374.301 356.84Z" fill="#008BA2"/>
<path d="M342.36 276C341.17 284.1 334.46 290.07 329 289.27C323.54 288.47 323.32 281.27 324.51 273.13C325.7 264.99 327.86 259.13 333.32 259.93C338.78 260.73 343.55 267.93 342.36 276Z" fill="#013943"/>
<path d="M210.381 243.7C210.833 243.7 211.201 243.333 211.201 242.88C211.201 242.427 210.833 242.06 210.381 242.06C209.928 242.06 209.561 242.427 209.561 242.88C209.561 243.333 209.928 243.7 210.381 243.7Z" fill="#013943"/>
<path d="M218.71 248.78C218.71 248.942 218.662 249.101 218.572 249.236C218.482 249.37 218.354 249.475 218.204 249.538C218.054 249.6 217.889 249.616 217.73 249.584C217.571 249.553 217.425 249.474 217.31 249.36C217.196 249.245 217.118 249.099 217.086 248.94C217.054 248.781 217.071 248.616 217.133 248.466C217.195 248.316 217.3 248.188 217.435 248.098C217.57 248.008 217.728 247.96 217.89 247.96C218.108 247.96 218.316 248.046 218.47 248.2C218.624 248.354 218.71 248.562 218.71 248.78Z" fill="#013943"/>
<path d="M219.63 345.68C219.63 345.842 219.582 346.001 219.492 346.136C219.402 346.27 219.274 346.376 219.124 346.438C218.974 346.5 218.809 346.516 218.65 346.484C218.491 346.453 218.345 346.375 218.23 346.26C218.116 346.145 218.038 345.999 218.006 345.84C217.974 345.681 217.991 345.516 218.053 345.366C218.115 345.216 218.22 345.088 218.355 344.998C218.49 344.908 218.648 344.86 218.81 344.86C219.028 344.86 219.236 344.946 219.39 345.1C219.544 345.254 219.63 345.463 219.63 345.68Z" fill="#013943"/>
<path d="M227.14 351.59C227.14 351.752 227.092 351.911 227.002 352.045C226.912 352.18 226.784 352.285 226.634 352.348C226.484 352.41 226.319 352.426 226.16 352.394C226.001 352.363 225.855 352.284 225.74 352.17C225.625 352.055 225.547 351.909 225.516 351.75C225.484 351.591 225.5 351.426 225.562 351.276C225.624 351.126 225.73 350.998 225.864 350.908C225.999 350.818 226.158 350.77 226.32 350.77C226.537 350.77 226.746 350.856 226.9 351.01C227.054 351.164 227.14 351.372 227.14 351.59Z" fill="#013943"/>
<path d="M83.01 361.42C81.5704 361.353 80.1643 360.963 78.8955 360.279C77.6268 359.595 76.5279 358.635 75.68 357.47C75.6385 357.416 75.6082 357.355 75.5912 357.289C75.5742 357.223 75.5707 357.155 75.581 357.088C75.5912 357.021 75.615 356.957 75.6509 356.899C75.6869 356.841 75.7341 356.792 75.7898 356.753C75.8455 356.714 75.9085 356.687 75.975 356.674C76.0415 356.66 76.11 356.66 76.1765 356.674C76.2429 356.688 76.3059 356.715 76.3615 356.754C76.4171 356.793 76.4642 356.842 76.5 356.9C78.37 359.6 82.5 361.03 84.3 360.18C84.4803 360.103 84.641 359.987 84.77 359.84C83.8605 359.44 83.0636 358.822 82.4497 358.04C81.8357 357.259 81.4237 356.338 81.25 355.36C81.02 354.09 80.84 352.36 81.88 352.14C83.32 351.82 85.2 355.29 85.88 357.92C86.0032 358.355 86.0472 358.809 86.01 359.26C86.5868 359.432 87.1935 359.48 87.79 359.4C88.0588 359.379 88.3204 359.303 88.558 359.175C88.7956 359.048 89.004 358.872 89.17 358.66C88.5119 358.163 87.966 357.533 87.5679 356.811C87.1699 356.089 86.9286 355.292 86.86 354.47C86.48 351.73 86.77 351.26 87.07 351.02C87.1672 350.945 87.2832 350.899 87.4051 350.887C87.527 350.875 87.6498 350.896 87.76 350.95C88.83 351.4 90.12 355.28 90.37 357.48C90.4 357.709 90.4 357.941 90.37 358.17C90.8011 358.336 91.2582 358.424 91.72 358.43C92.568 358.463 93.4067 358.244 94.13 357.8C93.99 357.71 93.86 357.61 93.73 357.51C92.73 356.62 92.27 355.2 92.45 353.18C92.59 351.61 92.94 350.75 93.57 350.48C93.7733 350.398 93.9958 350.378 94.2107 350.42C94.4255 350.463 94.6233 350.567 94.78 350.72C95.4551 351.465 95.9595 352.349 96.2583 353.309C96.5571 354.269 96.643 355.283 96.51 356.28C96.4232 356.695 96.2494 357.087 96 357.43C97.84 357.75 100.42 357.23 102.65 356.68C102.716 356.664 102.784 356.662 102.851 356.672C102.917 356.683 102.981 356.706 103.039 356.742C103.096 356.777 103.146 356.823 103.186 356.878C103.226 356.932 103.254 356.994 103.27 357.06C103.286 357.126 103.288 357.194 103.278 357.26C103.267 357.327 103.244 357.391 103.208 357.449C103.173 357.506 103.127 357.556 103.072 357.596C103.018 357.636 102.956 357.664 102.89 357.68C100.18 358.35 97.26 358.9 95.2 358.3C94.1945 359.064 92.9631 359.472 91.7 359.46C91.1395 359.453 90.5846 359.348 90.06 359.15C89.8274 359.51 89.5153 359.811 89.1477 360.032C88.7802 360.252 88.367 360.385 87.94 360.42C87.1883 360.517 86.4247 360.452 85.7 360.23C85.4667 360.623 85.1174 360.934 84.7 361.12C84.1637 361.336 83.5881 361.439 83.01 361.42ZM82.15 353.14C82.0117 353.82 82.0391 354.523 82.23 355.19C82.3711 355.99 82.7029 356.743 83.1973 357.387C83.6917 358.032 84.3341 358.547 85.07 358.89C85.056 358.653 85.0158 358.418 84.95 358.19C84.17 355.33 82.67 353.36 82.15 353.14ZM87.72 352.27C87.7265 352.96 87.7834 353.648 87.89 354.33C88.0003 355.549 88.5388 356.69 89.41 357.55C89.1639 355.704 88.5917 353.916 87.72 352.27ZM94.01 351.4C94.01 351.4 93.63 351.59 93.49 353.26C93.35 354.93 93.64 356.08 94.42 356.75C94.6046 356.899 94.806 357.027 95.02 357.13C95.283 356.849 95.469 356.504 95.56 356.13C95.7381 354.556 95.3129 352.973 94.37 351.7C94.16 351.44 94.04 351.4 94.01 351.4Z" fill="#013943"/>
<path d="M229.37 368.98L232.08 364.28L229.37 359.58H226.47L228.11 364.28L226.47 368.98H229.37Z" fill="#013943"/>
<path d="M226.66 366.73C226.326 366.751 225.991 366.704 225.676 366.591C225.36 366.478 225.072 366.301 224.827 366.072C224.583 365.843 224.388 365.566 224.255 365.259C224.122 364.951 224.054 364.62 224.054 364.285C224.054 363.95 224.122 363.619 224.255 363.311C224.388 363.004 224.583 362.727 224.827 362.498C225.072 362.269 225.36 362.092 225.676 361.979C225.991 361.866 226.326 361.819 226.66 361.84L222.06 360.92L220.83 364.64L222.89 367.78L226.66 366.73Z" fill="#013943"/>
<path d="M227.06 359.58H221.63L218.92 364.28L221.63 368.98H227.06L229.77 364.28L227.06 359.58ZM224.35 366.73C223.865 366.732 223.39 366.59 222.986 366.322C222.582 366.054 222.266 365.672 222.079 365.224C221.892 364.777 221.842 364.284 221.936 363.808C222.029 363.332 222.262 362.895 222.604 362.551C222.946 362.207 223.383 361.973 223.858 361.878C224.334 361.782 224.827 361.83 225.275 362.016C225.723 362.201 226.107 362.515 226.376 362.918C226.646 363.321 226.79 363.795 226.79 364.28C226.79 364.928 226.533 365.55 226.076 366.009C225.619 366.468 224.998 366.727 224.35 366.73Z" fill="#008BA2"/>
<path d="M418.39 359.26L416.38 355.77L418.39 352.28H420.54L419.33 355.77L420.54 359.26H418.39Z" fill="#008BA2"/>
<path d="M420.4 357.59C420.65 357.608 420.901 357.575 421.137 357.492C421.373 357.41 421.59 357.279 421.774 357.109C421.957 356.938 422.103 356.732 422.203 356.502C422.304 356.273 422.355 356.025 422.355 355.775C422.355 355.525 422.304 355.277 422.203 355.047C422.103 354.818 421.957 354.612 421.774 354.441C421.59 354.271 421.373 354.14 421.137 354.057C420.901 353.975 420.65 353.941 420.4 353.96L423.82 353.28L424.73 356.04L423.21 358.37L420.4 357.59Z" fill="#008BA2"/>
<path d="M420.11 352.28H424.11L426.11 355.77L424.11 359.26H420.11L418.11 355.77L420.11 352.28ZM422.11 357.59C422.471 357.592 422.824 357.487 423.124 357.288C423.425 357.089 423.66 356.806 423.799 356.473C423.938 356.141 423.976 355.775 423.907 355.421C423.838 355.067 423.665 354.742 423.411 354.487C423.157 354.231 422.832 354.057 422.479 353.986C422.126 353.915 421.759 353.95 421.426 354.088C421.093 354.225 420.808 354.458 420.608 354.758C420.407 355.057 420.3 355.41 420.3 355.77C420.299 356.009 420.345 356.247 420.436 356.468C420.527 356.689 420.661 356.891 420.83 357.06C421 357.229 421.201 357.363 421.422 357.454C421.644 357.545 421.881 357.591 422.12 357.59H422.11Z" fill="#013943"/>
<path d="M343.5 363.9H348.02C348.586 363.897 349.128 363.671 349.527 363.27C349.926 362.869 350.15 362.326 350.15 361.76C350.15 361.194 349.926 360.651 349.527 360.25C349.128 359.849 348.586 359.623 348.02 359.62H343.5C342.933 359.62 342.388 359.845 341.987 360.247C341.586 360.648 341.36 361.192 341.36 361.76C341.36 362.327 341.586 362.872 341.987 363.273C342.388 363.674 342.933 363.9 343.5 363.9Z" fill="#013943"/>
<path d="M336.23 359.86C336.649 359.097 337.283 358.474 338.052 358.067C338.822 357.659 339.694 357.486 340.56 357.569C341.427 357.651 342.251 357.986 342.93 358.531C343.609 359.076 344.113 359.807 344.381 360.636C344.649 361.464 344.669 362.353 344.438 363.192C344.207 364.031 343.736 364.785 343.082 365.359C342.428 365.934 341.62 366.305 340.757 366.426C339.895 366.547 339.017 366.412 338.23 366.04C337.148 365.482 336.331 364.52 335.956 363.362C335.582 362.204 335.68 360.946 336.23 359.86Z" fill="#008BA2"/>
<path d="M337.449 366.039L338.688 366.623L342.995 357.487L341.756 356.903L337.449 366.039Z" fill="#013943"/>
</svg>
