<?xml version="1.0" encoding="UTF-8"?>
<svg id="a" data-name="Camada 1" xmlns="http://www.w3.org/2000/svg" xmlns:xlink="http://www.w3.org/1999/xlink" viewBox="0 0 111.96 64.89">
  <defs>
    <style>
      .i {
        fill: #527385;
      }

      .j {
        fill: #8fa4b0;
      }

      .k {
        fill: #d1dadf;
      }

      .l {
        fill: #b1c0c8;
      }

      .m {
        fill: #618090;
      }

      .n {
        fill: #becad1;
      }

      .o {
        fill: #507183;
      }

      .p {
        fill: #8ba1ad;
      }

      .q {
        fill: #98abb6;
      }

      .r {
        fill: #9db0ba;
      }

      .s {
        fill: #b9c6ce;
      }

      .t {
        fill: #5e7c8d;
      }

      .u {
        fill: #fff;
      }

      .v {
        fill: #afbfc7;
      }

      .w {
        fill: #4a6d7f;
      }

      .x {
        fill: #c7d2d8;
      }

      .y {
        fill: #ccd6db;
      }

      .z {
        fill: #567688;
      }

      .aa {
        fill: #718c9b;
      }

      .ab {
        fill: #c0ccd3;
      }

      .ac {
        fill: #a2b3bd;
      }

      .ad {
        fill: #acbcc4;
      }

      .ae {
        fill: url(#h);
      }

      .af {
        fill: #607e8f;
      }

      .ag {
        fill: #5d7c8d;
      }

      .ah {
        fill: #486b7e;
      }

      .ai {
        fill: #95aab5;
      }

      .aj {
        fill: #7e96a4;
      }

      .ak {
        fill: #4a6d80;
      }

      .al {
        fill: #4f7183;
      }

      .am {
        fill: #93a8b3;
      }

      .an {
        fill: #4b6e80;
      }

      .ao {
        fill: #5b7b8c;
      }

      .ap {
        fill: #9baeb8;
      }

      .aq {
        fill: #668393;
      }

      .ar {
        fill: #4e7083;
      }

      .as {
        fill: #94a9b4;
      }

      .at {
        fill: #d3dbe0;
      }

      .au {
        fill: #7f97a4;
      }

      .av {
        fill: #a6b7c0;
      }

      .aw {
        fill: #99acb7;
      }

      .ax {
        fill: #698695;
      }

      .ay {
        fill: #c9d3d9;
      }

      .az {
        fill: #638191;
      }

      .ba {
        fill: #5f7e8e;
      }

      .bb {
        fill: url(#f);
      }

      .bc {
        fill: #758f9e;
      }

      .bd {
        fill: #a7b8c1;
      }

      .be {
        fill: #b3c1c9;
      }

      .bf {
        fill: #bac7ce;
      }

      .bg {
        fill: #748f9d;
      }

      .bh {
        fill: #849ba8;
      }

      .bi {
        fill: #8aa0ac;
      }

      .bj {
        fill: #859ca9;
      }

      .bk {
        fill: #5a798a;
      }

      .bl {
        fill: #c1cdd3;
      }

      .bm {
        fill: #688595;
      }

      .bn {
        fill: #c4cfd5;
      }

      .bo {
        fill: #a0b3bc;
      }

      .bp {
        fill: #d4dce1;
      }

      .bq {
        fill: #738e9c;
      }

      .br {
        fill: #517284;
      }

      .bs {
        fill: #9cafb9;
      }

      .bt {
        fill: #abbbc4;
      }

      .bu {
        fill: #6a8696;
      }

      .bv {
        fill: #9aadb8;
      }

      .bw {
        fill: #adbdc5;
      }

      .bx {
        fill: #628091;
      }

      .by {
        fill: #6e8998;
      }

      .bz {
        fill: url(#e);
      }

      .ca {
        fill: #7c95a2;
      }

      .cb {
        fill: #4e7082;
      }

      .cc {
        fill: #bbc8cf;
      }

      .cd {
        fill: #7b94a2;
      }

      .ce {
        fill: #d0d9de;
      }

      .cf {
        fill: #587889;
      }

      .cg {
        fill: #92a7b2;
      }

      .ch {
        fill: #76909e;
      }

      .ci {
        fill: #8098a5;
      }

      .cj {
        fill: #869da9;
      }

      .ck {
        fill: #6f8b9a;
      }

      .cl {
        fill: #d9e0e4;
      }

      .cm {
        fill: #899fac;
      }

      .cn {
        fill: #4b6d80;
      }

      .co {
        fill: #557587;
      }

      .cp {
        fill: #4d6f82;
      }

      .cq {
        fill: #bfcbd2;
      }

      .cr {
        fill: url(#d);
      }

      .cs {
        fill: #547586;
      }

      .ct {
        fill: #728d9c;
      }

      .cu {
        fill: #617f8f;
      }

      .cv {
        fill: #7992a0;
      }

      .cw {
        fill: #7892a0;
      }

      .cx {
        fill: #b6c4cc;
      }

      .cy {
        fill: #6d8998;
      }

      .cz {
        fill: #d5dde1;
      }

      .da {
        fill: #cad4da;
      }

      .db {
        fill: #658292;
      }

      .dc {
        fill: #708c9a;
      }

      .dd {
        fill: #7d96a3;
      }

      .de, .df, .dg {
        fill: none;
      }

      .dh {
        fill: #a3b4be;
      }

      .di {
        fill: #77919f;
      }

      .dj {
        fill: #cbd5da;
      }

      .dk {
        fill: #829aa7;
      }

      .dl {
        fill: #507284;
      }

      .dm {
        fill: #577889;
      }

      .dn {
        fill: #5c7b8c;
      }

      .do {
        fill: #90a5b1;
      }

      .dp {
        fill: #a5b6c0;
      }

      .dq {
        fill: #8da3af;
      }

      .dr {
        fill: #8ca2ae;
      }

      .ds {
        fill: #4d6f81;
      }

      .dt {
        fill: #ced7dc;
      }

      .du {
        fill: #9eb1bb;
      }

      .dv {
        fill: #b4c2ca;
      }

      .dw {
        fill: #537486;
      }

      .dx {
        fill: #a4b5bf;
      }

      .dy {
        fill: #5e7d8e;
      }

      .dz {
        fill: #6b8797;
      }

      .ea {
        fill: #517385;
      }

      .eb {
        fill: #59798a;
      }

      .ec {
        fill: url(#c);
      }

      .ed {
        fill: #dae1e5;
      }

      .ee {
        fill: #557687;
      }

      .df {
        opacity: .36;
      }

      .ef {
        fill: #7a93a1;
      }

      .eg {
        fill: #678494;
      }

      .eh {
        fill: #bcc9d0;
      }

      .ei {
        fill: #9fb2bc;
      }

      .ej {
        fill: #889fab;
      }

      .ek {
        fill: #577788;
      }

      .el {
        fill: #aebec6;
      }

      .em {
        fill: #91a6b2;
      }

      .en {
        fill: #cfd8dd;
      }

      .eo {
        fill: #4c6e81;
      }

      .ep {
        fill: #648292;
      }

      .eq {
        fill: #8ea4af;
      }

      .er {
        fill: #496c7f;
      }

      .es {
        fill: #d6dee2;
      }

      .et {
        fill: #aabac3;
      }

      .dg {
        clip-path: url(#g);
      }

      .eu {
        fill: #b5c3cb;
      }

      .ev {
        fill: #b2c1c9;
      }

      .ew {
        fill: #a8b9c2;
      }

      .ex {
        fill: #8199a6;
      }

      .ey {
        fill: #5a7a8b;
      }

      .ez {
        fill: #879eaa;
      }

      .fa {
        fill: #b8c5cd;
      }

      .fb {
        fill: #6c8897;
      }

      .fc {
        fill: #97abb5;
      }

      .fd {
        fill: #d8dfe3;
      }

      .fe {
        fill: #c6d1d7;
      }

      .ff {
        fill: #c5d0d6;
      }

      .fg {
        fill: #c2ced4;
      }

      .fh {
        fill: #6e8a99;
      }

      .fi {
        fill: #839aa7;
      }
    </style>
    <linearGradient id="c" data-name="Gradiente sem nome" x1="-372.59" y1="739.68" x2="-382.34" y2="721.02" gradientTransform="translate(-331.77 -709.11) rotate(179.95) scale(1 -1)" gradientUnits="userSpaceOnUse">
      <stop offset="0" stop-color="#97c9c0"/>
      <stop offset=".35" stop-color="#bbdbd6"/>
      <stop offset=".92" stop-color="#fff"/>
    </linearGradient>
    <linearGradient id="d" data-name="Gradiente sem nome 2" x1="68.11" y1="56.65" x2="35.83" y2="46.77" gradientTransform="translate(0 65.89) scale(1 -1)" gradientUnits="userSpaceOnUse">
      <stop offset="0" stop-color="#4d6f82"/>
      <stop offset="1" stop-color="#304855"/>
    </linearGradient>
    <linearGradient id="e" data-name="Gradiente sem nome 3" x1="-123.62" y1="59.79" x2="-133.37" y2="41.13" gradientTransform="translate(194.17 77.74) rotate(-.05) scale(1 -1)" gradientUnits="userSpaceOnUse">
      <stop offset="0" stop-color="#97c9c0"/>
      <stop offset=".35" stop-color="#bbdbd6"/>
      <stop offset=".92" stop-color="#fff"/>
    </linearGradient>
    <linearGradient id="f" data-name="Gradiente sem nome 4" x1="-181.45" y1="736.31" x2="-213.73" y2="726.43" gradientTransform="translate(-137.6 -697.26) rotate(-180) scale(1 -1)" gradientUnits="userSpaceOnUse">
      <stop offset="0" stop-color="#4d6f82"/>
      <stop offset="1" stop-color="#304855"/>
    </linearGradient>
    <clipPath id="g">
      <path class="de" d="m63.19,6.67c1.73.78,3.66,1.92,3.78,1.71.24-.4-1.04-1.28-2.53-2.1-.18-.1-.42-.23-.74-.38-.46-.22-2.59-1.22-5.7-1.47h-.06c-.88-.09-1.9-.13-3.03-.08-.89.04-1.7.14-2.42.26,4.97-.03,8.43,1.05,10.69,2.07h.01Z"/>
    </clipPath>
    <linearGradient id="h" data-name="Gradiente sem nome 5" x1="52.21" y1="59.52" x2="67.02" y2="59.52" gradientTransform="translate(0 65.89) scale(1 -1)" gradientUnits="userSpaceOnUse">
      <stop offset="0" stop-color="#4d6f82"/>
      <stop offset="1" stop-color="#304855"/>
    </linearGradient>
  </defs>
  <g id="b" data-name="a">
    <g>
      <path class="ec" d="m53.25,11.6c-1.07.65-3.18,2.14-4.59,4.89-1.93,3.77-1.32,7.73-.8,9.17.91,2.49,3.57,4.59,2.29,6.59-.91,1.41-3.1,1.25-4.78.73-3.08-.95-5.66-3.34-6.7-5.07-2.68-4.44-1.4-11.48,3.4-14.97,4.82-3.51,10.62-1.54,11.18-1.34Z"/>
      <path class="cr" d="m67.85,10.14c1.5-3.92-5.73-6.46-12.24-6.44-8.76.03-14.51,6.2-14.93,6.7-1.06,1.27-5.34,6.38-4.09,12.71.47,2.4,1.58,4.18,2.39,5.25-.24-1.04-.44-2.56-.06-4.29,1.27-5.86,8.23-8.78,11.32-10.08,1.13-.48,2.21-.85,3.22-1.16,2.74-.83,5.59-1.24,8.45-1.31,3.97-.09,5.3.3,5.95-1.39h-.01Z"/>
    </g>
    <g>
      <path class="bz" d="m58.72,36.69c1.07-.65,3.18-2.14,4.59-4.89,1.93-3.77,1.32-7.73.8-9.17-.91-2.49-3.57-4.59-2.29-6.59.91-1.41,3.1-1.25,4.78-.73,3.08.95,5.66,3.34,6.7,5.07,2.68,4.44,1.4,11.48-3.4,14.97-4.82,3.51-10.62,1.54-11.18,1.34Z"/>
      <path class="bb" d="m44.11,38.15c-1.5,3.92,5.73,6.46,12.24,6.44,8.76-.03,14.51-6.2,14.93-6.7,1.06-1.27,5.34-6.38,4.09-12.71-.47-2.4-1.58-4.18-2.39-5.25.24,1.04.44,2.56.06,4.29-1.27,5.86-8.23,8.78-11.32,10.08-1.13.48-2.21.85-3.22,1.16-2.74.83-5.59,1.24-8.45,1.31-3.97.09-5.3-.3-5.95,1.39h.01Z"/>
    </g>
    <g class="df">
      <g class="dg">
        <g>
          <polygon class="ah" points="57.02 4.28 67.04 8.59 52.51 8.59 52.51 4.28 57.02 4.28"/>
          <polygon class="ah" points="57.08 4.28 67.1 8.59 67.04 8.59 57.02 4.28 57.08 4.28"/>
          <polygon class="ah" points="57.15 4.28 67.17 8.59 67.1 8.59 57.08 4.28 57.15 4.28"/>
          <polygon class="ah" points="57.21 4.28 67.21 8.58 67.21 8.59 67.17 8.59 57.15 4.28 57.21 4.28"/>
          <polygon class="er" points="57.28 4.28 67.21 8.55 67.21 8.58 57.21 4.28 57.28 4.28"/>
          <polygon class="er" points="57.35 4.28 67.21 8.52 67.21 8.55 57.28 4.28 57.35 4.28"/>
          <polygon class="er" points="57.41 4.28 67.21 8.49 67.21 8.52 57.35 4.28 57.41 4.28"/>
          <polygon class="w" points="57.48 4.28 67.21 8.47 67.21 8.49 57.41 4.28 57.48 4.28"/>
          <polygon class="ak" points="57.54 4.28 67.21 8.44 67.21 8.47 57.48 4.28 57.54 4.28"/>
          <polygon class="cn" points="57.61 4.28 67.21 8.41 67.21 8.44 57.54 4.28 57.61 4.28"/>
          <polygon class="an" points="57.67 4.28 67.21 8.38 67.21 8.41 57.61 4.28 57.67 4.28"/>
          <polygon class="eo" points="57.74 4.28 67.21 8.35 67.21 8.38 57.67 4.28 57.74 4.28"/>
          <polygon class="eo" points="57.81 4.28 67.21 8.32 67.21 8.35 57.74 4.28 57.81 4.28"/>
          <polygon class="ds" points="57.87 4.28 67.21 8.3 67.21 8.32 57.81 4.28 57.87 4.28"/>
          <polygon class="cp" points="57.94 4.28 67.21 8.27 67.21 8.3 57.87 4.28 57.94 4.28"/>
          <polygon class="cb" points="58 4.28 67.21 8.24 67.21 8.27 57.94 4.28 58 4.28"/>
          <polygon class="ar" points="58.07 4.28 67.21 8.21 67.21 8.24 58 4.28 58.07 4.28"/>
          <polygon class="al" points="58.14 4.28 67.21 8.18 67.21 8.21 58.07 4.28 58.14 4.28"/>
          <polygon class="o" points="58.2 4.28 67.21 8.15 67.21 8.18 58.14 4.28 58.2 4.28"/>
          <polygon class="dl" points="58.27 4.28 67.21 8.13 67.21 8.15 58.2 4.28 58.27 4.28"/>
          <polygon class="br" points="58.33 4.28 67.21 8.1 67.21 8.13 58.27 4.28 58.33 4.28"/>
          <polygon class="ea" points="58.4 4.28 67.21 8.07 67.21 8.1 58.33 4.28 58.4 4.28"/>
          <polygon class="i" points="58.46 4.28 67.21 8.04 67.21 8.07 58.4 4.28 58.46 4.28"/>
          <polygon class="dw" points="58.53 4.28 67.21 8.01 67.21 8.04 58.46 4.28 58.53 4.28"/>
          <polygon class="dw" points="58.6 4.28 67.21 7.98 67.21 8.01 58.53 4.28 58.6 4.28"/>
          <polygon class="cs" points="58.66 4.28 67.21 7.96 67.21 7.98 58.6 4.28 58.66 4.28"/>
          <polygon class="co" points="58.73 4.28 67.21 7.93 67.21 7.96 58.66 4.28 58.73 4.28"/>
          <polygon class="ee" points="58.79 4.28 67.21 7.9 67.21 7.93 58.73 4.28 58.79 4.28"/>
          <polygon class="z" points="58.86 4.28 67.21 7.87 67.21 7.9 58.79 4.28 58.86 4.28"/>
          <polygon class="ek" points="58.93 4.28 67.21 7.84 67.21 7.87 58.86 4.28 58.93 4.28"/>
          <polygon class="dm" points="58.99 4.28 67.21 7.82 67.21 7.84 58.93 4.28 58.99 4.28"/>
          <polygon class="cf" points="59.06 4.28 67.21 7.79 67.21 7.82 58.99 4.28 59.06 4.28"/>
          <polygon class="eb" points="59.12 4.28 67.21 7.76 67.21 7.79 59.06 4.28 59.12 4.28"/>
          <polygon class="bk" points="59.19 4.28 67.21 7.73 67.21 7.76 59.12 4.28 59.19 4.28"/>
          <polygon class="ey" points="59.25 4.28 67.21 7.7 67.21 7.73 59.19 4.28 59.25 4.28"/>
          <polygon class="ao" points="59.32 4.28 67.21 7.67 67.21 7.7 59.25 4.28 59.32 4.28"/>
          <polygon class="dn" points="59.39 4.28 67.21 7.65 67.21 7.67 59.32 4.28 59.39 4.28"/>
          <polygon class="ag" points="59.45 4.28 67.21 7.62 67.21 7.65 59.39 4.28 59.45 4.28"/>
          <polygon class="t" points="59.52 4.28 67.21 7.59 67.21 7.62 59.45 4.28 59.52 4.28"/>
          <polygon class="dy" points="59.58 4.28 67.21 7.56 67.21 7.59 59.52 4.28 59.58 4.28"/>
          <polygon class="ba" points="59.65 4.28 67.21 7.53 67.21 7.56 59.58 4.28 59.65 4.28"/>
          <polygon class="af" points="59.72 4.28 67.21 7.5 67.21 7.53 59.65 4.28 59.72 4.28"/>
          <polygon class="cu" points="59.78 4.28 67.21 7.48 67.21 7.5 59.72 4.28 59.78 4.28"/>
          <polygon class="m" points="59.85 4.28 67.21 7.45 67.21 7.48 59.78 4.28 59.85 4.28"/>
          <polygon class="bx" points="59.91 4.28 67.21 7.42 67.21 7.45 59.85 4.28 59.91 4.28"/>
          <polygon class="az" points="59.98 4.28 67.21 7.39 67.21 7.42 59.91 4.28 59.98 4.28"/>
          <polygon class="ep" points="60.05 4.28 67.21 7.36 67.21 7.39 59.98 4.28 60.05 4.28"/>
          <polygon class="db" points="60.11 4.28 67.21 7.33 67.21 7.36 60.05 4.28 60.11 4.28"/>
          <polygon class="aq" points="60.18 4.28 67.21 7.31 67.21 7.33 60.11 4.28 60.18 4.28"/>
          <polygon class="eg" points="60.24 4.28 67.21 7.28 67.21 7.31 60.18 4.28 60.24 4.28"/>
          <polygon class="eg" points="60.31 4.28 67.21 7.25 67.21 7.28 60.24 4.28 60.31 4.28"/>
          <polygon class="bm" points="60.37 4.28 67.21 7.22 67.21 7.25 60.31 4.28 60.37 4.28"/>
          <polygon class="ax" points="60.44 4.28 67.21 7.19 67.21 7.22 60.37 4.28 60.44 4.28"/>
          <polygon class="bu" points="60.51 4.28 67.21 7.16 67.21 7.19 60.44 4.28 60.51 4.28"/>
          <polygon class="dz" points="60.57 4.28 67.21 7.14 67.21 7.16 60.51 4.28 60.57 4.28"/>
          <polygon class="fb" points="60.64 4.28 67.21 7.11 67.21 7.14 60.57 4.28 60.64 4.28"/>
          <polygon class="cy" points="60.7 4.28 67.21 7.08 67.21 7.11 60.64 4.28 60.7 4.28"/>
          <polygon class="by" points="60.77 4.28 67.21 7.05 67.21 7.08 60.7 4.28 60.77 4.28"/>
          <polygon class="fh" points="60.84 4.28 67.21 7.02 67.21 7.05 60.77 4.28 60.84 4.28"/>
          <polygon class="ck" points="60.9 4.28 67.21 7 67.21 7.02 60.84 4.28 60.9 4.28"/>
          <polygon class="dc" points="60.97 4.28 67.21 6.97 67.21 7 60.9 4.28 60.97 4.28"/>
          <polygon class="aa" points="61.03 4.28 67.21 6.94 67.21 6.97 60.97 4.28 61.03 4.28"/>
          <polygon class="ct" points="61.1 4.28 67.21 6.91 67.21 6.94 61.03 4.28 61.1 4.28"/>
          <polygon class="bq" points="61.16 4.28 67.21 6.88 67.21 6.91 61.1 4.28 61.16 4.28"/>
          <polygon class="bg" points="61.23 4.28 67.21 6.85 67.21 6.88 61.16 4.28 61.23 4.28"/>
          <polygon class="bc" points="61.3 4.28 67.21 6.83 67.21 6.85 61.23 4.28 61.3 4.28"/>
          <polygon class="ch" points="61.36 4.28 67.21 6.8 67.21 6.83 61.3 4.28 61.36 4.28"/>
          <polygon class="di" points="61.43 4.28 67.21 6.77 67.21 6.8 61.36 4.28 61.43 4.28"/>
          <polygon class="cw" points="61.49 4.28 67.21 6.74 67.21 6.77 61.43 4.28 61.49 4.28"/>
          <polygon class="cv" points="61.56 4.28 67.21 6.71 67.21 6.74 61.49 4.28 61.56 4.28"/>
          <polygon class="ef" points="61.63 4.28 67.21 6.68 67.21 6.71 61.56 4.28 61.63 4.28"/>
          <polygon class="cd" points="61.69 4.28 67.21 6.66 67.21 6.68 61.63 4.28 61.69 4.28"/>
          <polygon class="ca" points="61.76 4.28 67.21 6.63 67.21 6.66 61.69 4.28 61.76 4.28"/>
          <polygon class="dd" points="61.82 4.28 67.21 6.6 67.21 6.63 61.76 4.28 61.82 4.28"/>
          <polygon class="aj" points="61.89 4.28 67.21 6.57 67.21 6.6 61.82 4.28 61.89 4.28"/>
          <polygon class="au" points="61.95 4.28 67.21 6.54 67.21 6.57 61.89 4.28 61.95 4.28"/>
          <polygon class="ci" points="62.02 4.28 67.21 6.51 67.21 6.54 61.95 4.28 62.02 4.28"/>
          <polygon class="ex" points="62.09 4.28 67.21 6.49 67.21 6.51 62.02 4.28 62.09 4.28"/>
          <polygon class="dk" points="62.15 4.28 67.21 6.46 67.21 6.49 62.09 4.28 62.15 4.28"/>
          <polygon class="fi" points="62.22 4.28 67.21 6.43 67.21 6.46 62.15 4.28 62.22 4.28"/>
          <polygon class="bh" points="62.28 4.28 67.21 6.4 67.21 6.43 62.22 4.28 62.28 4.28"/>
          <polygon class="bj" points="62.35 4.28 67.21 6.37 67.21 6.4 62.28 4.28 62.35 4.28"/>
          <polygon class="cj" points="62.42 4.28 67.21 6.34 67.21 6.37 62.35 4.28 62.42 4.28"/>
          <polygon class="ez" points="62.48 4.28 67.21 6.32 67.21 6.34 62.42 4.28 62.48 4.28"/>
          <polygon class="ej" points="62.55 4.28 67.21 6.29 67.21 6.32 62.48 4.28 62.55 4.28"/>
          <polygon class="cm" points="62.61 4.28 67.21 6.26 67.21 6.29 62.55 4.28 62.61 4.28"/>
          <polygon class="bi" points="62.68 4.28 67.21 6.23 67.21 6.26 62.61 4.28 62.68 4.28"/>
          <polygon class="p" points="62.74 4.28 67.21 6.2 67.21 6.23 62.68 4.28 62.74 4.28"/>
          <polygon class="dr" points="62.81 4.28 67.21 6.18 67.21 6.2 62.74 4.28 62.81 4.28"/>
          <polygon class="dq" points="62.88 4.28 67.21 6.15 67.21 6.18 62.81 4.28 62.88 4.28"/>
          <polygon class="eq" points="62.94 4.28 67.21 6.12 67.21 6.15 62.88 4.28 62.94 4.28"/>
          <polygon class="j" points="63.01 4.28 67.21 6.09 67.21 6.12 62.94 4.28 63.01 4.28"/>
          <polygon class="do" points="63.07 4.28 67.21 6.06 67.21 6.09 63.01 4.28 63.07 4.28"/>
          <polygon class="em" points="63.14 4.28 67.21 6.03 67.21 6.06 63.07 4.28 63.14 4.28"/>
          <polygon class="cg" points="63.21 4.28 67.21 6.01 67.21 6.03 63.14 4.28 63.21 4.28"/>
          <polygon class="am" points="63.27 4.28 67.21 5.98 67.21 6.01 63.21 4.28 63.27 4.28"/>
          <polygon class="as" points="63.34 4.28 67.21 5.95 67.21 5.98 63.27 4.28 63.34 4.28"/>
          <polygon class="ai" points="63.4 4.28 67.21 5.92 67.21 5.95 63.34 4.28 63.4 4.28"/>
          <polygon class="fc" points="63.47 4.28 67.21 5.89 67.21 5.92 63.4 4.28 63.47 4.28"/>
          <polygon class="q" points="63.53 4.28 67.21 5.86 67.21 5.89 63.47 4.28 63.53 4.28"/>
          <polygon class="aw" points="63.6 4.28 67.21 5.84 67.21 5.86 63.53 4.28 63.6 4.28"/>
          <polygon class="bv" points="63.67 4.28 67.21 5.81 67.21 5.84 63.6 4.28 63.67 4.28"/>
          <polygon class="ap" points="63.73 4.28 67.21 5.78 67.21 5.81 63.67 4.28 63.73 4.28"/>
          <polygon class="bs" points="63.8 4.28 67.21 5.75 67.21 5.78 63.73 4.28 63.8 4.28"/>
          <polygon class="r" points="63.86 4.28 67.21 5.72 67.21 5.75 63.8 4.28 63.86 4.28"/>
          <polygon class="du" points="63.93 4.28 67.21 5.69 67.21 5.72 63.86 4.28 63.93 4.28"/>
          <polygon class="ei" points="64 4.28 67.21 5.67 67.21 5.69 63.93 4.28 64 4.28"/>
          <polygon class="bo" points="64.06 4.28 67.21 5.64 67.21 5.67 64 4.28 64.06 4.28"/>
          <polygon class="ac" points="64.13 4.28 67.21 5.61 67.21 5.64 64.06 4.28 64.13 4.28"/>
          <polygon class="dh" points="64.19 4.28 67.21 5.58 67.21 5.61 64.13 4.28 64.19 4.28"/>
          <polygon class="dx" points="64.26 4.28 67.21 5.55 67.21 5.58 64.19 4.28 64.26 4.28"/>
          <polygon class="dp" points="64.33 4.28 67.21 5.52 67.21 5.55 64.26 4.28 64.33 4.28"/>
          <polygon class="av" points="64.39 4.28 67.21 5.5 67.21 5.52 64.33 4.28 64.39 4.28"/>
          <polygon class="bd" points="64.46 4.28 67.21 5.47 67.21 5.5 64.39 4.28 64.46 4.28"/>
          <polygon class="ew" points="64.52 4.28 67.21 5.44 67.21 5.47 64.46 4.28 64.52 4.28"/>
          <polygon class="et" points="64.59 4.28 67.21 5.41 67.21 5.44 64.52 4.28 64.59 4.28"/>
          <polygon class="bt" points="64.65 4.28 67.21 5.38 67.21 5.41 64.59 4.28 64.65 4.28"/>
          <polygon class="ad" points="64.72 4.28 67.21 5.36 67.21 5.38 64.65 4.28 64.72 4.28"/>
          <polygon class="bw" points="64.79 4.28 67.21 5.33 67.21 5.36 64.72 4.28 64.79 4.28"/>
          <polygon class="el" points="64.85 4.28 67.21 5.3 67.21 5.33 64.79 4.28 64.85 4.28"/>
          <polygon class="v" points="64.92 4.28 67.21 5.27 67.21 5.3 64.85 4.28 64.92 4.28"/>
          <polygon class="l" points="64.98 4.28 67.21 5.24 67.21 5.27 64.92 4.28 64.98 4.28"/>
          <polygon class="ev" points="65.05 4.28 67.21 5.21 67.21 5.24 64.98 4.28 65.05 4.28"/>
          <polygon class="be" points="65.12 4.28 67.21 5.19 67.21 5.21 65.05 4.28 65.12 4.28"/>
          <polygon class="dv" points="65.18 4.28 67.21 5.16 67.21 5.19 65.12 4.28 65.18 4.28"/>
          <polygon class="eu" points="65.25 4.28 67.21 5.13 67.21 5.16 65.18 4.28 65.25 4.28"/>
          <polygon class="cx" points="65.31 4.28 67.21 5.1 67.21 5.13 65.25 4.28 65.31 4.28"/>
          <polygon class="fa" points="65.38 4.28 67.21 5.07 67.21 5.1 65.31 4.28 65.38 4.28"/>
          <polygon class="s" points="65.44 4.28 67.21 5.04 67.21 5.07 65.38 4.28 65.44 4.28"/>
          <polygon class="bf" points="65.51 4.28 67.21 5.02 67.21 5.04 65.44 4.28 65.51 4.28"/>
          <polygon class="cc" points="65.58 4.28 67.21 4.99 67.21 5.02 65.51 4.28 65.58 4.28"/>
          <polygon class="eh" points="65.64 4.28 67.21 4.96 67.21 4.99 65.58 4.28 65.64 4.28"/>
          <polygon class="n" points="65.71 4.28 67.21 4.93 67.21 4.96 65.64 4.28 65.71 4.28"/>
          <polygon class="cq" points="65.77 4.28 67.21 4.9 67.21 4.93 65.71 4.28 65.77 4.28"/>
          <polygon class="ab" points="65.84 4.28 67.21 4.87 67.21 4.9 65.77 4.28 65.84 4.28"/>
          <polygon class="bl" points="65.91 4.28 67.21 4.85 67.21 4.87 65.84 4.28 65.91 4.28"/>
          <polygon class="fg" points="65.97 4.28 67.21 4.82 67.21 4.85 65.91 4.28 65.97 4.28"/>
          <polygon class="bn" points="66.04 4.28 67.21 4.79 67.21 4.82 65.97 4.28 66.04 4.28"/>
          <polygon class="ff" points="66.1 4.28 67.21 4.76 67.21 4.79 66.04 4.28 66.1 4.28"/>
          <polygon class="fe" points="66.17 4.28 67.21 4.73 67.21 4.76 66.1 4.28 66.17 4.28"/>
          <polygon class="x" points="66.23 4.28 67.21 4.7 67.21 4.73 66.17 4.28 66.23 4.28"/>
          <polygon class="ay" points="66.3 4.28 67.21 4.68 67.21 4.7 66.23 4.28 66.3 4.28"/>
          <polygon class="da" points="66.37 4.28 67.21 4.65 67.21 4.68 66.3 4.28 66.37 4.28"/>
          <polygon class="dj" points="66.43 4.28 67.21 4.62 67.21 4.65 66.37 4.28 66.43 4.28"/>
          <polygon class="y" points="66.5 4.28 67.21 4.59 67.21 4.62 66.43 4.28 66.5 4.28"/>
          <polygon class="dt" points="66.56 4.28 67.21 4.56 67.21 4.59 66.5 4.28 66.56 4.28"/>
          <polygon class="en" points="66.63 4.28 67.21 4.54 67.21 4.56 66.56 4.28 66.63 4.28"/>
          <polygon class="ce" points="66.7 4.28 67.21 4.51 67.21 4.54 66.63 4.28 66.7 4.28"/>
          <polygon class="k" points="66.76 4.28 67.21 4.48 67.21 4.51 66.7 4.28 66.76 4.28"/>
          <polygon class="at" points="66.83 4.28 67.21 4.45 67.21 4.48 66.76 4.28 66.83 4.28"/>
          <polygon class="bp" points="66.89 4.28 67.21 4.42 67.21 4.45 66.83 4.28 66.89 4.28"/>
          <polygon class="cz" points="66.96 4.28 67.21 4.39 67.21 4.42 66.89 4.28 66.96 4.28"/>
          <polygon class="es" points="67.02 4.28 67.21 4.37 67.21 4.39 66.96 4.28 67.02 4.28"/>
          <polygon class="fd" points="67.09 4.28 67.21 4.34 67.21 4.37 67.02 4.28 67.09 4.28"/>
          <polygon class="cl" points="67.16 4.28 67.21 4.31 67.21 4.34 67.09 4.28 67.16 4.28"/>
          <polygon class="ed" points="67.21 4.31 67.16 4.28 67.21 4.28 67.21 4.31"/>
        </g>
      </g>
      <path class="ae" d="m63.19,6.67c1.69.76,3.66,1.92,3.78,1.71.24-.4-1.04-1.28-2.53-2.1-.18-.1-.42-.23-.74-.38-.46-.22-2.59-1.22-5.7-1.47h-.06c-.61-.05-1.73-.13-3.03-.08-.7.03-1.63.1-2.72.29,5.01-.12,8.57.94,10.99,2.04h0Z"/>
    </g>
    <g>
      <path class="u" d="m4.71,56.6l.74-.06c.04.3.12.54.24.73s.33.34.6.46.57.18.91.18c.3,0,.56-.04.79-.13s.4-.21.51-.37.17-.32.17-.51-.05-.35-.16-.49c-.11-.14-.29-.25-.53-.35-.16-.06-.51-.16-1.05-.29s-.93-.25-1.14-.37c-.28-.15-.49-.33-.63-.55-.14-.22-.21-.47-.21-.74,0-.3.08-.58.25-.84s.42-.46.74-.59c.33-.13.69-.2,1.09-.2.44,0,.83.07,1.16.21.34.14.59.35.77.62.18.27.28.59.29.93l-.75.06c-.04-.37-.18-.66-.41-.85-.23-.19-.58-.29-1.03-.29s-.82.09-1.04.26-.33.38-.33.63c0,.21.08.39.23.53s.54.28,1.18.42,1.07.27,1.31.38c.35.16.6.36.76.6.16.24.25.52.25.84s-.09.61-.27.89-.44.5-.78.65-.72.23-1.14.23c-.54,0-.99-.08-1.35-.23s-.65-.39-.85-.71c-.21-.31-.31-.67-.33-1.06h0Z"/>
      <path class="u" d="m10.16,56.36c0-.79.22-1.38.66-1.77.37-.32.82-.48,1.35-.48.59,0,1.07.19,1.45.58s.56.92.56,1.6c0,.55-.08.99-.25,1.3-.17.32-.41.56-.72.74-.32.17-.66.26-1.04.26-.6,0-1.09-.19-1.46-.58s-.56-.94-.56-1.67v.02Zm.75,0c0,.55.12.96.36,1.23s.54.41.91.41.66-.14.9-.41.36-.69.36-1.26c0-.53-.12-.93-.36-1.21s-.54-.41-.9-.41-.67.14-.91.41-.36.68-.36,1.23h0Z"/>
      <path class="u" d="m15.04,58.5v-5.92h.73v5.92h-.73Z"/>
      <path class="u" d="m19.74,58.5v-.63c-.33.48-.79.73-1.36.73-.25,0-.49-.05-.71-.15-.22-.1-.38-.22-.49-.37-.11-.15-.18-.33-.22-.54-.03-.14-.04-.37-.04-.68v-2.66h.73v2.38c0,.38.01.64.04.77.05.19.14.34.29.45.15.11.33.16.55.16s.42-.06.61-.17.33-.26.41-.46c.08-.19.12-.47.12-.84v-2.3h.73v4.29h-.65v.02Z"/>
      <path class="u" d="m24.35,56.93l.72.09c-.08.49-.28.88-.6,1.16s-.72.42-1.19.42c-.59,0-1.06-.19-1.42-.58s-.54-.93-.54-1.65c0-.46.08-.87.23-1.22.15-.35.39-.61.7-.78s.66-.26,1.02-.26c.47,0,.85.12,1.14.35.3.24.49.57.57,1l-.71.11c-.07-.29-.19-.51-.36-.65-.17-.15-.38-.22-.62-.22-.37,0-.66.13-.89.39s-.34.68-.34,1.25.11,1,.33,1.26.51.39.86.39c.29,0,.52-.09.72-.26.19-.18.31-.44.36-.81h.02Zm-1.69,2.11l.21-.72h.54l-.13.43c.23.03.4.1.52.21s.17.24.17.38c0,.2-.1.38-.29.54-.19.15-.49.23-.88.23-.22,0-.41-.02-.58-.05l.04-.47c.17,0,.3.02.38.02.25,0,.43-.03.53-.1.08-.05.12-.12.12-.2,0-.05-.02-.09-.05-.13-.03-.04-.09-.07-.17-.1s-.22-.04-.42-.04h0Z"/>
      <path class="u" d="m28.52,57.97c-.27.23-.53.39-.78.48s-.52.14-.8.14c-.47,0-.83-.12-1.09-.35-.25-.23-.38-.52-.38-.88,0-.21.05-.4.14-.58s.22-.31.38-.42c.15-.1.33-.18.52-.24.14-.04.36-.07.65-.11.59-.07,1.02-.15,1.3-.25v-.19c0-.3-.07-.5-.21-.63-.19-.16-.46-.25-.83-.25-.34,0-.59.06-.76.18-.16.12-.28.33-.36.64l-.71-.1c.06-.3.17-.55.32-.74.15-.19.36-.33.64-.43s.6-.15.97-.15.66.04.89.13.4.19.5.33c.11.13.18.3.23.5.02.12.04.35.04.67v.97c0,.68.02,1.1.05,1.28.03.18.09.35.18.52h-.76c-.08-.15-.12-.33-.15-.53h.02Zm-2.42-4.4c0-.28.07-.5.23-.67.15-.17.35-.25.59-.25.17,0,.39.07.68.22.16.08.29.12.38.12s.15-.02.2-.07c.05-.05.08-.14.1-.28h.53c0,.31-.09.54-.23.69-.15.15-.33.23-.56.23-.17,0-.39-.08-.67-.23-.18-.1-.31-.15-.4-.15s-.17.03-.22.1c-.06.06-.09.16-.08.29h-.55Zm2.36,2.77c-.26.11-.66.2-1.19.27-.3.04-.51.09-.63.15-.12.05-.22.13-.29.24-.07.1-.1.22-.1.35,0,.19.07.36.22.48.15.13.36.19.64.19s.53-.06.75-.18.38-.29.48-.5c.08-.16.12-.41.12-.73,0,0,0-.27,0-.27Z"/>
      <path class="u" d="m30.07,56.36c0-.79.22-1.38.66-1.77.37-.32.82-.48,1.35-.48.59,0,1.07.19,1.45.58s.56.92.56,1.6c0,.55-.08.99-.25,1.3-.17.32-.41.56-.72.74-.32.17-.66.26-1.04.26-.6,0-1.09-.19-1.46-.58s-.56-.94-.56-1.67v.02Zm.75,0c0,.55.12.96.36,1.23s.54.41.91.41.66-.14.9-.41.36-.69.36-1.26c0-.53-.12-.93-.36-1.21s-.54-.41-.9-.41-.67.14-.91.41-.36.68-.36,1.23h0Z"/>
      <path class="u" d="m37.15,55.62c0-.98.26-1.75.79-2.31.53-.56,1.21-.83,2.04-.83.55,0,1.04.13,1.48.39s.77.63,1,1.09c.23.47.35,1,.35,1.59s-.12,1.14-.36,1.61-.59.83-1.03,1.08c-.44.24-.92.37-1.44.37-.56,0-1.06-.13-1.5-.4s-.77-.64-1-1.1c-.23-.47-.34-.96-.34-1.48h0Zm.81,0c0,.71.19,1.28.58,1.69.38.41.87.62,1.44.62s1.08-.21,1.46-.62c.38-.41.57-1,.57-1.77,0-.48-.08-.9-.24-1.26-.16-.36-.4-.64-.72-.84-.31-.2-.67-.3-1.06-.3-.56,0-1.03.19-1.43.57s-.6,1.02-.6,1.91Z"/>
      <path class="u" d="m43.76,58.5v-4.29h.65v.61c.32-.47.77-.71,1.37-.71.26,0,.5.05.71.14.22.09.38.21.49.37s.18.33.23.54c.03.13.04.37.04.71v2.64h-.73v-2.61c0-.3-.03-.52-.08-.66-.06-.15-.16-.26-.3-.35s-.31-.13-.51-.13c-.31,0-.58.1-.8.29-.22.2-.34.57-.34,1.12v2.34h-.73Z"/>
      <path class="u" d="m48.37,58.5v-5.92h.73v5.92h-.73Z"/>
      <path class="u" d="m50.25,53.42v-.84h.73v.84h-.73Zm0,5.09v-4.29h.73v4.29h-.73Z"/>
      <path class="u" d="m52.11,58.5v-4.29h.65v.61c.32-.47.77-.71,1.37-.71.26,0,.5.05.71.14.22.09.38.21.49.37s.18.33.23.54c.03.13.04.37.04.71v2.64h-.73v-2.61c0-.3-.03-.52-.08-.66-.06-.15-.16-.26-.3-.35s-.31-.13-.51-.13c-.31,0-.58.1-.8.29-.22.2-.34.57-.34,1.12v2.34h-.73Z"/>
      <path class="u" d="m59.68,57.12l.75.09c-.12.44-.34.78-.66,1.02s-.73.36-1.23.36c-.63,0-1.13-.19-1.49-.58-.37-.39-.55-.93-.55-1.63s.19-1.28.56-1.68c.37-.4.85-.6,1.45-.6s1.04.2,1.41.59c.36.39.55.94.55,1.65v.19h-3.2c.03.47.16.83.4,1.08s.54.38.9.38c.27,0,.49-.07.68-.21s.34-.36.45-.67h-.02Zm-2.39-1.18h2.4c-.03-.36-.12-.63-.27-.81-.23-.28-.53-.42-.9-.42-.33,0-.62.11-.84.34s-.35.52-.38.9h0Z"/>
      <path class="u" d="m66.48,58.5v-.54c-.27.43-.67.64-1.2.64-.34,0-.66-.09-.94-.28-.29-.19-.51-.45-.67-.79s-.24-.73-.24-1.17.07-.82.21-1.17.36-.62.64-.8c.29-.19.6-.28.96-.28.26,0,.49.05.69.16.2.11.37.25.49.43v-2.13h.72v5.92h-.67,0Zm-2.3-2.14c0,.55.12.96.35,1.23.23.27.51.41.82.41s.59-.13.81-.39.33-.66.33-1.19c0-.59-.11-1.02-.34-1.29-.23-.27-.51-.41-.84-.41s-.59.13-.81.4-.33.68-.33,1.25h0Z"/>
      <path class="u" d="m71.26,57.12l.75.09c-.12.44-.34.78-.66,1.02-.32.24-.73.36-1.23.36-.63,0-1.13-.19-1.49-.58-.37-.39-.55-.93-.55-1.63s.19-1.28.56-1.68c.37-.4.85-.6,1.45-.6s1.04.2,1.41.59c.36.39.55.94.55,1.65v.19h-3.2c.03.47.16.83.4,1.08s.54.38.9.38c.27,0,.49-.07.68-.21s.34-.36.45-.67h-.02Zm-2.39-1.18h2.4c-.03-.36-.12-.63-.27-.81-.23-.28-.53-.42-.9-.42-.33,0-.62.11-.84.34s-.35.52-.38.9h-.01Z"/>
      <path class="u" d="m75.34,58.5v-5.92h.78v5.23h2.92v.7h-3.7Z"/>
      <path class="u" d="m79.91,53.42v-.84h.73v.84h-.73Zm0,5.09v-4.29h.73v4.29h-.73Z"/>
      <path class="u" d="m84.57,56.93l.71.09c-.08.49-.28.88-.6,1.16s-.72.42-1.19.42c-.59,0-1.06-.19-1.42-.58-.36-.38-.54-.93-.54-1.65,0-.46.08-.87.23-1.22s.39-.61.7-.78.66-.26,1.02-.26c.47,0,.85.12,1.14.35.3.24.49.57.57,1l-.71.11c-.07-.29-.19-.51-.36-.65s-.38-.22-.62-.22c-.37,0-.66.13-.89.39-.23.26-.34.68-.34,1.25s.11,1,.33,1.26.51.39.87.39c.29,0,.52-.09.71-.26.19-.18.31-.44.36-.81h.03Z"/>
      <path class="u" d="m85.94,53.42v-.84h.73v.84h-.73Zm0,5.09v-4.29h.73v4.29h-.73Z"/>
      <path class="u" d="m89.38,57.85l.11.64c-.21.04-.39.06-.55.06-.26,0-.47-.04-.61-.13s-.25-.19-.31-.33c-.06-.14-.09-.42-.09-.86v-2.47h-.53v-.57h.53v-1.06l.72-.44v1.5h.73v.57h-.73v2.51c0,.21.01.34.04.4s.07.11.13.14c.06.04.14.05.25.05.08,0,.19,0,.32-.03v.02Z"/>
      <path class="u" d="m92.92,57.97c-.27.23-.53.39-.78.48s-.52.14-.8.14c-.47,0-.83-.12-1.09-.35-.25-.23-.38-.52-.38-.88,0-.21.05-.4.14-.58s.22-.31.38-.42c.16-.1.33-.18.52-.24.14-.04.36-.07.65-.11.59-.07,1.02-.15,1.3-.25v-.19c0-.3-.07-.5-.21-.63-.19-.16-.46-.25-.83-.25-.34,0-.59.06-.76.18-.16.12-.28.33-.36.64l-.71-.1c.06-.3.17-.55.32-.74.15-.19.36-.33.64-.43s.61-.15.97-.15.66.04.89.13c.23.09.4.19.51.33.11.13.18.3.23.5.02.12.04.35.04.67v.97c0,.68.02,1.1.05,1.28.03.18.09.35.18.52h-.76c-.08-.15-.12-.33-.15-.53h0Zm-.06-1.62c-.26.11-.66.2-1.19.27-.3.04-.51.09-.63.15-.12.05-.22.13-.29.24-.07.1-.1.22-.1.35,0,.19.07.36.22.48.15.13.36.19.64.19s.53-.06.75-.18.38-.29.48-.5c.08-.16.12-.41.12-.73,0,0,0-.27,0-.27Z"/>
      <path class="u" d="m97.55,56.93l.71.09c-.08.49-.28.88-.6,1.16s-.72.42-1.19.42c-.59,0-1.06-.19-1.42-.58-.36-.38-.54-.93-.54-1.65,0-.46.08-.87.23-1.22s.39-.61.7-.78.66-.26,1.02-.26c.47,0,.85.12,1.14.35.3.24.49.57.57,1l-.71.11c-.07-.29-.19-.51-.36-.65s-.38-.22-.62-.22c-.37,0-.66.13-.89.39-.23.26-.34.68-.34,1.25s.11,1,.33,1.26.51.39.87.39c.29,0,.52-.09.71-.26.19-.18.31-.44.36-.81h.03Zm-1.69,2.11l.21-.72h.54l-.13.43c.23.03.4.1.52.21.12.11.17.24.17.38,0,.2-.1.38-.29.54-.19.15-.49.23-.88.23-.22,0-.42-.02-.58-.05l.04-.47c.17,0,.3.02.38.02.25,0,.43-.03.53-.1.08-.05.12-.12.12-.2,0-.05-.02-.09-.05-.13-.03-.04-.09-.07-.17-.1s-.22-.04-.42-.04h.01Z"/>
      <path class="u" d="m101.71,57.97c-.27.23-.53.39-.78.48s-.52.14-.8.14c-.47,0-.83-.12-1.09-.35-.25-.23-.38-.52-.38-.88,0-.21.05-.4.14-.58s.22-.31.38-.42c.16-.1.33-.18.52-.24.14-.04.36-.07.65-.11.59-.07,1.02-.15,1.3-.25v-.19c0-.3-.07-.5-.21-.63-.19-.16-.46-.25-.83-.25-.34,0-.59.06-.76.18-.16.12-.28.33-.36.64l-.71-.1c.06-.3.17-.55.32-.74.15-.19.36-.33.64-.43s.61-.15.97-.15.66.04.89.13c.23.09.4.19.51.33.11.13.18.3.23.5.02.12.04.35.04.67v.97c0,.68.02,1.1.05,1.28.03.18.09.35.18.52h-.76c-.08-.15-.12-.33-.15-.53h0Zm-2.42-4.4c0-.28.07-.5.23-.67.15-.17.35-.25.59-.25.17,0,.39.07.68.22.16.08.29.12.38.12s.15-.02.2-.07c.05-.05.08-.14.1-.28h.53c0,.31-.08.54-.23.69-.15.15-.33.23-.56.23-.17,0-.39-.08-.67-.23-.18-.1-.31-.15-.4-.15s-.17.03-.22.1c-.06.06-.09.16-.08.29h-.55Zm2.36,2.77c-.26.11-.66.2-1.19.27-.3.04-.51.09-.63.15-.12.05-.22.13-.29.24-.07.1-.1.22-.1.35,0,.19.07.36.22.48.15.13.36.19.64.19s.53-.06.75-.18.38-.29.48-.5c.08-.16.12-.41.12-.73,0,0,0-.27,0-.27Z"/>
      <path class="u" d="m103.27,56.36c0-.79.22-1.38.66-1.77.37-.32.82-.48,1.35-.48.59,0,1.07.19,1.45.58.37.39.56.92.56,1.6,0,.55-.08.99-.25,1.3-.17.32-.41.56-.72.74-.32.17-.66.26-1.04.26-.6,0-1.09-.19-1.46-.58-.37-.39-.56-.94-.56-1.67v.02Zm.75,0c0,.55.12.96.36,1.23s.54.41.91.41.66-.14.9-.41.36-.69.36-1.26c0-.53-.12-.93-.36-1.21s-.54-.41-.9-.41-.67.14-.91.41c-.24.27-.36.68-.36,1.23h0Z"/>
    </g>
  </g>
</svg>