<?xml version="1.0" encoding="UTF-8"?>
<svg id="a" data-name="Camada 1" xmlns="http://www.w3.org/2000/svg" xmlns:xlink="http://www.w3.org/1999/xlink" viewBox="0 0 88.5 84.14">
  <defs>
    <style>
      .g {
        fill: #fff;
      }

      .h {
        fill: url(#f);
      }

      .i {
        fill: url(#e);
      }

      .j {
        fill: url(#d);
      }

      .k {
        fill: url(#c);
      }
    </style>
    <linearGradient id="c" data-name="Gradiente sem nome 26" x1="-342.06" y1="743.52" x2="-352.68" y2="723.19" gradientTransform="translate(-314.27 -709.12) rotate(179.95) scale(1 -1)" gradientUnits="userSpaceOnUse">
      <stop offset="0" stop-color="#a6a8ab"/>
      <stop offset=".35" stop-color="#c1c2c5"/>
      <stop offset=".92" stop-color="#fff"/>
    </linearGradient>
    <linearGradient id="d" data-name="Gradiente sem nome 14" x1="56.3" y1="58.25" x2="24.22" y2="43.43" gradientTransform="translate(0 65.89) scale(1 -1)" gradientUnits="userSpaceOnUse">
      <stop offset="0" stop-color="#ebd658"/>
      <stop offset="1" stop-color="#e4bb57"/>
    </linearGradient>
    <linearGradient id="e" data-name="Gradiente sem nome 17" x1="-138.17" y1="59.18" x2="-138.21" y2="36.25" gradientTransform="translate(194.17 77.75) rotate(-.05) scale(1 -1)" gradientUnits="userSpaceOnUse">
      <stop offset="0" stop-color="#a6a8ab"/>
      <stop offset=".35" stop-color="#bfc1c3"/>
      <stop offset=".92" stop-color="#fff"/>
    </linearGradient>
    <linearGradient id="f" data-name="Gradiente sem nome 22" x1="-151.14" y1="740.96" x2="-186.3" y2="730.2" gradientTransform="translate(-120.1 -697.26) rotate(-180) scale(1 -1)" gradientUnits="userSpaceOnUse">
      <stop offset="0" stop-color="#5ea7de"/>
      <stop offset="1" stop-color="#407093"/>
    </linearGradient>
  </defs>
  <g id="b" data-name="a">
    <g>
      <path class="k" d="m41.28,13.79c-1.17.71-3.46,2.33-5,5.33-2.1,4.11-1.44,8.42-.87,9.99.99,2.71,3.89,5,2.49,7.18-.99,1.54-3.38,1.36-5.21.8-3.36-1.03-6.17-3.64-7.3-5.52-2.92-4.84-1.53-12.51,3.7-16.31,5.25-3.82,11.57-1.68,12.18-1.46Z"/>
      <path class="j" d="m57.18,12.2c1.63-4.27-6.24-7.04-13.33-7.02-9.54.03-15.81,6.75-16.26,7.3-1.15,1.38-5.82,6.95-4.46,13.85.51,2.61,1.72,4.55,2.6,5.72-.26-1.13-.48-2.79-.07-4.67,1.38-6.38,8.97-9.56,12.33-10.98,1.23-.52,2.41-.93,3.51-1.26,2.98-.9,6.09-1.35,9.21-1.43,4.32-.1,5.77.33,6.48-1.51h-.01Z"/>
    </g>
    <g>
      <path class="i" d="m47.23,41.13c1.17-.71,3.46-2.33,5-5.33,2.1-4.11,1.44-8.42.87-9.99-.99-2.71-3.89-5-2.49-7.18.99-1.54,3.38-1.36,5.21-.8,3.36,1.03,6.17,3.64,7.3,5.52,2.92,4.84,1.53,12.51-3.7,16.31-5.25,3.82-11.57,1.68-12.18,1.46Z"/>
      <path class="h" d="m31.32,42.72c-1.63,4.27,6.24,7.04,13.33,7.02,9.54-.03,15.81-6.75,16.26-7.3,1.15-1.38,5.82-6.95,4.46-13.85-.51-2.61-1.72-4.55-2.6-5.72.26,1.13.48,2.79.07,4.67-1.38,6.38-8.97,9.56-12.33,10.98-1.23.52-2.41.93-3.51,1.26-2.98.9-6.09,1.35-9.21,1.43-4.32.1-5.77-.33-6.48,1.51h.01Z"/>
    </g>
  </g>
  <g>
    <path class="g" d="m38.37,62.49c-.06-1.05-.06-1.65.02-2.4.09-.81.22-1.61.66-2.55.7-1.51,1.95-2.25,3.53-2.42,1.09-.11,2.2-.11,3.29-.07.6.02,1.22.18,1.8.38,1.27.45,2.06,1.36,2.48,2.65.3.91.44,1.82.48,2.76.04.85.09,1.7.07,2.55-.03,1.28-.17,2.55-.62,3.76-.55,1.5-1.68,2.33-3.22,2.67-1.16.26-2.34.26-3.51.18-.75-.05-1.5-.27-2.22-.52-1.37-.48-1.93-1.76-2.1-2.06-.44-.79-.52-2.18-.66-4.94Zm3.23.14c.09.89.14,1.94.33,2.97.16.88.67,1.58,1.63,1.75.49.09,1,.1,1.49.08.93-.04,1.69-.63,1.89-1.53.17-.75.33-1.51.36-2.27.06-1.45.08-2.91-.28-4.33-.16-.62-.46-1.18-1.08-1.45-.8-.35-1.64-.35-2.47-.16-1.07.25-1.46,1.11-1.62,2.05-.15.9-.17,1.82-.25,2.89Z"/>
    <path class="g" d="m35.99,55.55c-.06.68-.11,1.32-.16,1.96-.02.26-.18.28-.4.27-1.2-.04-2.39-.08-3.59-.11-.5-.01-1.01,0-1.51.03-1.1.04-1.3.75-1.17,1.66.11.74.71,1.01,1.31,1.22,1.02.36,2.06.68,3.09,1.05.87.31,1.66.75,2.22,1.53.39.55.59,1.17.63,1.82.04.72.1,1.46-.02,2.17-.25,1.44-.83,2.25-2.63,2.66-1.32.3-2.67.25-4,.2-1.11-.05-2.21-.26-3.31-.42-.28-.04-.4-.18-.33-.52.1-.47.1-.97.11-1.46,0-.28.08-.41.39-.39.79.04,1.58.07,2.37.07.95.01,1.89.02,2.84-.01.31-.01.62-.13.92-.24.46-.16.53-.99.48-1.51-.06-.7-.53-.99-1.12-1.19-1.07-.36-2.15-.69-3.2-1.1-1.09-.42-2.09-1.01-2.57-2.16-.17-.4-.32-.83-.35-1.25-.05-.87-.1-1.75.17-2.62.36-1.16,1.18-1.79,2.32-2,1.57-.29,3.16-.35,4.75-.11.82.12,1.65.24,2.47.36.09.01.18.05.29.08Z"/>
    <path class="g" d="m62.43,67.15c.04.84.07,1.62.11,2.44-.47.05-.9.14-1.33.15-1.81.04-3.62.14-5.43.05-1.28-.06-2.46-.87-2.63-2.54-.02-.21-.03-.43-.03-.65,0-3.66,0-7.32,0-10.99,0-.11,0-.21,0-.34h3.2c0,.14,0,.28,0,.42,0,3.46,0,6.92,0,10.37,0,.63.15.87.63,1.03.16.05.35.05.53.05,1.51,0,3.03,0,4.54,0,.13,0,.26,0,.42,0Z"/>
  </g>
  <g>
    <path class="g" d="m7.46,77.41c-.11,0-.23,0-.35,0-.12,0-.24-.02-.36-.03s-.24-.03-.35-.05c-.11-.02-.21-.04-.3-.06v-.68c.12.01.25.02.4.03s.3.01.46.02c.16,0,.31,0,.46,0s.28-.01.38-.04c.11-.03.19-.07.25-.13.06-.06.09-.15.09-.27v-.16c0-.13-.04-.23-.11-.29-.08-.07-.18-.1-.32-.1h-.37c-.41,0-.73-.09-.95-.27-.22-.18-.33-.49-.33-.92v-.21c0-.42.12-.73.36-.92.24-.2.59-.29,1.03-.29.16,0,.32,0,.48.02.16.02.31.03.46.05.15.02.27.04.38.07v.68c-.18-.01-.38-.02-.6-.04-.22-.01-.42-.02-.61-.02-.13,0-.25.01-.35.04s-.18.07-.24.14c-.05.07-.08.17-.08.3v.12c0,.15.04.26.13.33.09.07.21.1.38.1h.43c.26,0,.48.05.65.14.17.09.3.23.38.39.08.17.13.36.13.57v.25c0,.34-.06.6-.19.78-.13.18-.3.3-.53.36-.22.06-.49.1-.79.1Z"/>
    <path class="g" d="m10.9,77.41c-.26,0-.48-.03-.66-.08-.18-.05-.33-.14-.45-.27-.11-.12-.2-.29-.25-.5-.05-.21-.08-.46-.08-.76,0-.32.03-.58.08-.79.05-.21.14-.37.25-.49.11-.12.26-.2.45-.25.18-.05.4-.07.66-.07s.48.03.67.08.33.14.45.25c.11.12.2.28.25.49.05.21.08.47.08.79s-.03.57-.08.78-.13.37-.25.49c-.11.12-.26.21-.45.26s-.41.08-.67.08Zm0-.69c.1,0,.19,0,.27-.03.07-.02.13-.06.18-.12.04-.06.08-.15.1-.28s.04-.29.04-.49-.01-.37-.04-.49c-.02-.12-.06-.21-.1-.27-.04-.06-.1-.1-.18-.12-.07-.02-.16-.03-.27-.03s-.19,0-.26.03c-.07.02-.13.06-.18.12-.05.06-.08.15-.1.27-.02.12-.03.29-.03.49s.01.37.03.49.06.22.1.28.11.1.18.12c.07.02.16.03.26.03Z"/>
    <path class="g" d="m13.89,77.39c-.22,0-.41-.04-.55-.11-.15-.07-.25-.18-.32-.33-.07-.15-.1-.34-.1-.58v-3.45h.86v3.32c0,.12.01.21.04.28s.06.12.11.15c.05.03.11.05.18.06l.24.04v.62h-.45Z"/>
    <path class="g" d="m15.63,77.41c-.28,0-.5-.08-.66-.25-.16-.17-.24-.4-.24-.7v-2.22h.86v1.96c0,.18.04.29.13.35.08.06.19.09.33.09.11,0,.22-.02.34-.06s.22-.1.31-.17v-2.18h.87v3.14h-.72l-.15-.32c-.14.09-.3.18-.48.25-.18.07-.38.11-.58.11Z"/>
    <path class="g" d="m19.43,77.41c-.19,0-.37-.03-.53-.08-.16-.05-.3-.13-.42-.25-.12-.12-.21-.28-.27-.48-.06-.2-.1-.46-.1-.77s.03-.58.09-.79c.06-.21.15-.38.26-.5.11-.12.26-.21.42-.26.17-.05.36-.08.57-.08.19,0,.37.01.55.03.17.02.35.06.55.11v.5h-.82c-.18,0-.32.03-.43.08s-.19.15-.24.29c-.05.14-.07.35-.07.61s.02.46.07.59c.05.14.13.23.24.27.11.05.26.07.44.07h.86v.49c-.1.03-.21.06-.34.08s-.26.04-.41.06-.28.02-.42.02Zm-.41,1.12v-.36l.1-.02c.08,0,.14-.03.18-.06.04-.03.06-.08.06-.14,0-.05-.02-.1-.05-.13-.04-.04-.11-.06-.22-.08l.34-.08c.14,0,.25.03.34.09.09.06.14.16.14.3s-.05.26-.15.34c-.1.08-.26.13-.47.13h-.28Zm.08-.78l.3-.47h.39l-.3.47h-.39Z"/>
    <path class="g" d="m21.74,77.41c-.24,0-.43-.07-.58-.21-.15-.14-.22-.33-.22-.58v-.28c0-.24.08-.43.25-.59.17-.15.43-.23.78-.23h.8v-.22c0-.1-.02-.18-.05-.24-.04-.06-.1-.11-.2-.14s-.24-.04-.44-.04h-.94v-.5c.15-.05.33-.09.53-.12.2-.04.44-.05.73-.05.26,0,.48.03.67.09.19.06.33.17.42.32.1.15.14.36.14.63v2.13h-.68l-.14-.33s-.07.07-.14.11-.15.08-.24.12c-.1.04-.2.08-.32.1s-.24.04-.37.04Zm-.47-3.71c.01-.19.05-.34.1-.45.06-.11.13-.19.22-.24.09-.05.19-.07.29-.07.1,0,.18.01.26.04.08.03.15.06.21.1.07.04.13.07.19.1s.12.04.19.04.13-.03.18-.08c.04-.05.07-.13.07-.22h.43c-.01.26-.07.46-.17.59s-.25.2-.43.2c-.1,0-.19-.01-.26-.04-.08-.03-.15-.06-.22-.1-.07-.04-.13-.07-.2-.1-.06-.03-.12-.04-.18-.04-.08,0-.14.03-.18.08-.04.05-.07.12-.08.2h-.43Zm.91,3.11s.08,0,.13-.01c.05,0,.1-.02.15-.04.05-.01.1-.03.15-.04.04-.01.08-.03.11-.04.03-.01.05-.02.06-.02v-.73l-.53.04c-.15.01-.26.05-.34.12-.07.07-.11.16-.11.27v.13c0,.08.02.14.05.19.03.05.08.09.13.11s.12.03.19.03Z"/>
    <path class="g" d="m25.63,77.41c-.26,0-.48-.03-.66-.08-.18-.05-.33-.14-.45-.27-.11-.12-.2-.29-.25-.5-.05-.21-.08-.46-.08-.76,0-.32.03-.58.08-.79.05-.21.14-.37.25-.49.11-.12.26-.2.45-.25.18-.05.4-.07.66-.07s.48.03.67.08.33.14.45.25c.11.12.2.28.25.49.05.21.08.47.08.79s-.03.57-.08.78-.13.37-.25.49c-.11.12-.26.21-.45.26s-.41.08-.67.08Zm0-.69c.1,0,.19,0,.27-.03.07-.02.13-.06.18-.12.04-.06.08-.15.1-.28s.04-.29.04-.49-.01-.37-.04-.49c-.02-.12-.06-.21-.1-.27-.04-.06-.1-.1-.18-.12-.07-.02-.16-.03-.27-.03s-.19,0-.26.03c-.07.02-.13.06-.18.12-.05.06-.08.15-.1.27-.02.12-.03.29-.03.49s.01.37.03.49.06.22.1.28.11.1.18.12c.07.02.16.03.26.03Z"/>
    <path class="g" d="m30.86,77.41c-.3,0-.55-.03-.78-.08-.22-.06-.41-.16-.56-.32-.15-.15-.26-.37-.34-.66-.07-.29-.11-.66-.11-1.13s.04-.84.11-1.13c.08-.29.19-.51.34-.67.15-.16.33-.26.55-.32.22-.06.48-.09.78-.09s.55.03.78.09c.22.06.41.17.55.32.15.16.26.38.33.67.07.29.11.67.11,1.13s-.04.84-.11,1.13c-.07.29-.18.51-.33.66-.15.15-.33.26-.55.32-.22.06-.48.08-.78.08Zm0-.78c.18,0,.32-.02.44-.06s.21-.11.28-.21c.07-.1.12-.24.15-.43.03-.18.05-.42.05-.72,0-.31-.02-.56-.05-.75-.03-.19-.08-.33-.15-.43-.07-.1-.16-.17-.28-.2s-.26-.05-.44-.05-.31.02-.43.05c-.12.04-.21.1-.28.2-.07.1-.12.24-.16.43-.03.19-.05.44-.05.75s.01.54.04.72c.03.19.08.33.15.43.07.1.16.17.28.21.12.04.27.06.44.06Z"/>
    <path class="g" d="m33.23,77.38v-3.14h.71l.15.32c.12-.1.26-.18.44-.26s.36-.11.55-.11c.26,0,.46.05.6.15s.24.24.29.41c.06.17.08.36.08.56v2.07h-.86v-1.96c0-.1-.02-.18-.06-.25s-.09-.12-.15-.15c-.07-.03-.15-.05-.24-.05-.08,0-.16,0-.24.03-.08.02-.15.05-.22.08-.07.04-.13.08-.2.12v2.18h-.86Z"/>
    <path class="g" d="m37.68,77.39c-.22,0-.41-.04-.55-.11-.15-.07-.25-.18-.32-.33-.07-.15-.1-.34-.1-.58v-3.45h.86v3.32c0,.12.01.21.04.28s.06.12.11.15c.05.03.11.05.18.06l.24.04v.62h-.45Z"/>
    <path class="g" d="m38.64,73.78c-.08,0-.12-.04-.12-.12v-.57c0-.08.04-.12.12-.12h.67s.06.01.08.04.03.05.03.09v.57c0,.08-.04.12-.11.12h-.67Zm-.1,3.6v-3.14h.86v3.14h-.86Z"/>
    <path class="g" d="m40.06,77.38v-3.14h.71l.15.32c.12-.1.26-.18.44-.26s.36-.11.55-.11c.26,0,.46.05.6.15s.24.24.29.41c.06.17.08.36.08.56v2.07h-.86v-1.96c0-.1-.02-.18-.06-.25s-.09-.12-.15-.15c-.07-.03-.15-.05-.24-.05-.08,0-.16,0-.24.03-.08.02-.15.05-.22.08-.07.04-.13.08-.2.12v2.18h-.86Z"/>
    <path class="g" d="m44.85,77.41c-.35,0-.62-.05-.83-.14-.21-.09-.35-.25-.45-.49-.09-.23-.14-.56-.14-.97s.04-.75.13-.99c.09-.23.23-.4.43-.49.2-.09.48-.14.82-.14.31,0,.56.03.75.09s.32.17.41.33.13.38.13.66c0,.21-.04.38-.13.5-.08.12-.2.21-.35.26-.15.05-.33.08-.54.08h-.79c0,.16.03.29.07.38.04.1.12.16.23.2.11.04.27.06.48.06h.92v.51c-.15.03-.32.06-.5.09-.18.03-.4.04-.65.04Zm-.57-1.8h.71c.12,0,.2-.02.26-.07.05-.05.08-.13.08-.25,0-.11-.02-.2-.05-.27-.04-.07-.09-.12-.16-.15-.07-.03-.17-.04-.3-.04-.13,0-.24.02-.31.07-.08.04-.13.12-.17.24-.04.11-.05.27-.05.48Z"/>
    <path class="g" d="m49.2,77.41c-.25,0-.45-.05-.62-.16-.17-.1-.29-.27-.38-.5-.08-.23-.13-.54-.13-.91s.04-.71.11-.95c.07-.24.19-.42.36-.53.17-.11.41-.17.71-.17.14,0,.29.01.43.04s.26.06.37.1v-1.42h.87v4.46h-.73l-.14-.3c-.07.06-.15.12-.24.17-.1.05-.2.09-.3.12s-.21.04-.32.04Zm.3-.7c.12,0,.22-.02.32-.06.1-.04.17-.08.24-.12v-1.58c-.08-.03-.16-.05-.25-.08-.09-.03-.18-.04-.27-.04-.14,0-.26.03-.35.08-.09.05-.15.14-.19.28-.04.14-.06.34-.06.6,0,.24.02.43.06.56.04.13.1.23.18.28.08.05.19.08.33.08Z"/>
    <path class="g" d="m52.9,77.41c-.35,0-.62-.05-.83-.14-.21-.09-.35-.25-.45-.49-.09-.23-.14-.56-.14-.97s.04-.75.13-.99c.09-.23.23-.4.43-.49.2-.09.48-.14.82-.14.31,0,.56.03.75.09s.32.17.41.33.13.38.13.66c0,.21-.04.38-.13.5-.08.12-.2.21-.35.26-.15.05-.33.08-.54.08h-.79c0,.16.03.29.07.38.04.1.12.16.23.2.11.04.27.06.48.06h.92v.51c-.15.03-.32.06-.5.09-.18.03-.4.04-.65.04Zm-.57-1.8h.71c.12,0,.2-.02.26-.07.05-.05.08-.13.08-.25,0-.11-.02-.2-.05-.27-.04-.07-.09-.12-.16-.15-.07-.03-.17-.04-.3-.04-.13,0-.24.02-.31.07-.08.04-.13.12-.17.24-.04.11-.05.27-.05.48Z"/>
    <path class="g" d="m57.29,77.38c-.22,0-.41-.03-.56-.1-.15-.07-.27-.18-.34-.33-.08-.15-.11-.35-.11-.59v-3.3h.86v3.16c0,.09.02.17.05.23.03.06.08.1.14.12.06.02.12.03.2.03h1.37v.78h-1.59Z"/>
    <path class="g" d="m59.45,73.78c-.08,0-.12-.04-.12-.12v-.57c0-.08.04-.12.12-.12h.67s.06.01.08.04.03.05.03.09v.57c0,.08-.04.12-.11.12h-.67Zm-.1,3.6v-3.14h.86v3.14h-.86Z"/>
    <path class="g" d="m62.1,77.41c-.19,0-.37-.03-.53-.08-.16-.05-.3-.13-.42-.25-.12-.12-.21-.28-.27-.48-.06-.2-.1-.46-.1-.77s.03-.58.09-.79c.06-.21.15-.38.26-.5.11-.12.26-.21.42-.26.17-.05.36-.08.57-.08.19,0,.37.01.55.03.17.02.35.06.55.11v.5h-.82c-.18,0-.32.03-.43.08s-.19.15-.24.29c-.05.14-.07.35-.07.61s.02.46.07.59c.05.14.13.23.24.27.11.05.26.07.44.07h.86v.49c-.1.03-.21.06-.34.08s-.26.04-.41.06-.28.02-.42.02Z"/>
    <path class="g" d="m63.84,73.78c-.08,0-.12-.04-.12-.12v-.57c0-.08.04-.12.12-.12h.67s.06.01.08.04.03.05.03.09v.57c0,.08-.04.12-.11.12h-.67Zm-.1,3.6v-3.14h.86v3.14h-.86Z"/>
    <path class="g" d="m66.46,77.38c-.24,0-.44-.04-.59-.11-.15-.07-.26-.19-.32-.35-.07-.16-.1-.38-.09-.66l.03-1.33h-.49v-.55l.52-.14.12-.88h.68v.88h.74v.7h-.74v1.32c0,.09,0,.16.02.21.02.05.04.1.07.13s.06.06.1.07.08.03.12.03l.4.04v.64h-.57Z"/>
    <path class="g" d="m68.2,77.41c-.24,0-.43-.07-.58-.21-.15-.14-.22-.33-.22-.58v-.28c0-.24.08-.43.25-.59.17-.15.43-.23.78-.23h.8v-.22c0-.1-.02-.18-.05-.24-.04-.06-.1-.11-.2-.14-.09-.03-.24-.04-.43-.04h-.94v-.5c.15-.05.33-.09.53-.12.2-.04.44-.05.73-.05.26,0,.48.03.67.09.18.06.32.17.42.32.1.15.14.36.14.63v2.13h-.68l-.14-.33s-.07.07-.14.11-.15.08-.24.12c-.1.04-.2.08-.32.1s-.24.04-.37.04Zm.44-.6s.08,0,.13-.01c.05,0,.1-.02.15-.04.05-.01.1-.03.15-.04s.08-.03.11-.04c.03-.01.05-.02.06-.02v-.73l-.53.04c-.15.01-.26.05-.33.12-.07.07-.11.16-.11.27v.13c0,.08.02.14.05.19.03.05.08.09.13.11s.12.03.19.03Z"/>
    <path class="g" d="m71.97,77.41c-.19,0-.37-.03-.53-.08-.16-.05-.3-.13-.42-.25-.12-.12-.21-.28-.27-.48s-.1-.46-.1-.77.03-.58.09-.79c.06-.21.14-.38.26-.5.11-.12.26-.21.42-.26.17-.05.36-.08.57-.08.19,0,.37.01.55.03.17.02.36.06.55.11v.5h-.82c-.18,0-.32.03-.43.08-.11.05-.19.15-.24.29-.05.14-.07.35-.07.61s.02.46.07.59c.05.14.13.23.24.27.11.05.26.07.44.07h.86v.49c-.1.03-.21.06-.34.08-.13.03-.26.04-.41.06-.14.01-.28.02-.42.02Zm-.41,1.12v-.36l.11-.02c.08,0,.14-.03.18-.06s.06-.08.06-.14c0-.05-.02-.1-.05-.13s-.11-.06-.22-.08l.34-.08c.14,0,.25.03.34.09.09.06.14.16.14.3s-.05.26-.16.34c-.1.08-.26.13-.47.13h-.28Zm.08-.78l.3-.47h.39l-.3.47h-.39Z"/>
    <path class="g" d="m74.95,77.41c-.26,0-.48-.03-.66-.08-.18-.05-.33-.14-.45-.27-.12-.12-.2-.29-.25-.5s-.08-.46-.08-.76c0-.32.03-.58.08-.79.05-.21.14-.37.25-.49.11-.12.26-.2.45-.25.19-.05.4-.07.66-.07s.48.03.67.08c.18.05.33.14.45.25.12.12.2.28.25.49.05.21.08.47.08.79s-.03.57-.08.78-.13.37-.25.49c-.11.12-.26.21-.45.26-.19.05-.41.08-.67.08Zm-1.04-3.7c.01-.19.05-.34.1-.45.06-.11.13-.19.22-.24.09-.05.19-.07.29-.07.1,0,.18.01.26.04.08.03.15.06.21.1.07.04.13.07.19.1s.12.04.19.04c.07,0,.13-.03.18-.08s.07-.13.07-.22h.43c-.01.26-.07.46-.17.59-.1.13-.25.2-.43.2-.1,0-.18-.01-.26-.04-.08-.03-.15-.06-.22-.1s-.13-.07-.2-.1c-.06-.03-.12-.04-.18-.04-.08,0-.14.03-.18.08s-.07.12-.08.2h-.43Zm1.04,3.01c.11,0,.19,0,.27-.03.07-.02.13-.06.17-.12.04-.06.08-.15.1-.28s.04-.29.04-.49-.01-.37-.04-.49c-.02-.12-.06-.21-.1-.27-.04-.06-.1-.1-.17-.12s-.16-.03-.27-.03-.19,0-.26.03-.13.06-.18.12c-.05.06-.08.15-.1.27-.02.12-.03.29-.03.49s.01.37.03.49.06.22.1.28c.05.06.11.1.18.12.07.02.16.03.26.03Z"/>
    <path class="g" d="m78.29,77.41c-.35,0-.62-.05-.83-.14-.21-.09-.36-.25-.45-.49-.09-.23-.14-.56-.14-.97s.04-.75.13-.99c.08-.23.23-.4.43-.49s.48-.14.82-.14c.31,0,.56.03.75.09.19.06.32.17.41.33s.13.38.13.66c0,.21-.04.38-.13.5-.08.12-.2.21-.35.26-.15.05-.33.08-.54.08h-.79c0,.16.03.29.07.38.04.1.12.16.23.2.11.04.27.06.48.06h.92v.51c-.15.03-.32.06-.5.09-.18.03-.4.04-.65.04Zm-.57-1.8h.71c.12,0,.2-.02.26-.07.05-.05.08-.13.08-.25,0-.11-.02-.2-.05-.27-.04-.07-.09-.12-.16-.15s-.17-.04-.3-.04c-.13,0-.24.02-.32.07-.08.04-.13.12-.17.24-.04.11-.05.27-.05.48Z"/>
    <path class="g" d="m81.24,77.41c-.1,0-.2,0-.32,0-.11,0-.23-.01-.34-.03s-.22-.03-.32-.04c-.1-.02-.18-.04-.25-.06v-.51h1.39c.08,0,.15,0,.2-.02.05-.01.09-.04.12-.08.03-.04.04-.09.04-.16v-.1c0-.08-.03-.14-.08-.18s-.14-.06-.28-.06h-.49c-.18,0-.34-.03-.48-.08-.14-.05-.26-.14-.34-.27-.08-.12-.13-.29-.13-.5v-.18c0-.2.04-.37.12-.5.08-.14.21-.24.39-.31.18-.07.43-.11.75-.11.13,0,.27,0,.41.02.15.01.28.03.42.05.13.02.23.05.31.07v.51h-1.31c-.11,0-.2.02-.26.06s-.09.11-.09.21v.09c0,.07.01.12.04.15.03.03.07.06.13.07s.13.02.21.02h.5c.32,0,.55.07.7.22.15.15.22.35.22.6v.28c0,.21-.05.38-.15.5-.1.12-.24.21-.43.26-.19.05-.42.08-.69.08Z"/>
  </g>
</svg>